ISO-10303-21;
HEADER;
/* Generated by software containing ST-Developer
 * from STEP Tools, Inc. (www.steptools.com) 
 */

FILE_DESCRIPTION(
/* description */ ('KiCad electronic assembly'),
/* implementation_level */ '2;1');

FILE_NAME(
/* name */ 'Bottom.step',
/* time_stamp */ '2026-09-06T16:29:47+05:30',
/* author */ (''),
/* organization */ (''),
/* preprocessor_version */ 'ST-DEVELOPER v20.1',
/* originating_system */ 'Autodesk Translation Framework v15.8.0.0',
/* authorisation */ '');

FILE_SCHEMA (('AUTOMOTIVE_DESIGN { 1 0 10303 214 3 1 1 }'));
ENDSEC;

DATA;
#10=MECHANICAL_DESIGN_GEOMETRIC_PRESENTATION_REPRESENTATION('',(#13,#14),
#580);
#11=SHAPE_REPRESENTATION_RELATIONSHIP('SRR','None',#586,#12);
#12=ADVANCED_BREP_SHAPE_REPRESENTATION('',(#15,#16),#579);
#13=STYLED_ITEM('',(#595),#15);
#14=STYLED_ITEM('',(#595),#16);
#15=MANIFOLD_SOLID_BREP('Bottom',#367);
#16=MANIFOLD_SOLID_BREP('Bottom',#368);
#17=FACE_BOUND('',#50,.T.);
#18=FACE_OUTER_BOUND('',#37,.T.);
#19=FACE_OUTER_BOUND('',#38,.T.);
#20=FACE_OUTER_BOUND('',#39,.T.);
#21=FACE_OUTER_BOUND('',#40,.T.);
#22=FACE_OUTER_BOUND('',#41,.T.);
#23=FACE_OUTER_BOUND('',#42,.T.);
#24=FACE_OUTER_BOUND('',#43,.T.);
#25=FACE_OUTER_BOUND('',#44,.T.);
#26=FACE_OUTER_BOUND('',#45,.T.);
#27=FACE_OUTER_BOUND('',#46,.T.);
#28=FACE_OUTER_BOUND('',#47,.T.);
#29=FACE_OUTER_BOUND('',#48,.T.);
#30=FACE_OUTER_BOUND('',#49,.T.);
#31=FACE_OUTER_BOUND('',#51,.T.);
#32=FACE_OUTER_BOUND('',#52,.T.);
#33=FACE_OUTER_BOUND('',#53,.T.);
#34=FACE_OUTER_BOUND('',#54,.T.);
#35=FACE_OUTER_BOUND('',#55,.T.);
#36=FACE_OUTER_BOUND('',#56,.T.);
#37=EDGE_LOOP('',(#233,#234,#235,#236));
#38=EDGE_LOOP('',(#237,#238,#239,#240));
#39=EDGE_LOOP('',(#241,#242,#243,#244));
#40=EDGE_LOOP('',(#245,#246,#247,#248,#249,#250,#251,#252));
#41=EDGE_LOOP('',(#253,#254,#255,#256,#257,#258,#259,#260,#261,#262,#263,
#264));
#42=EDGE_LOOP('',(#265,#266,#267,#268));
#43=EDGE_LOOP('',(#269,#270,#271,#272));
#44=EDGE_LOOP('',(#273,#274,#275,#276));
#45=EDGE_LOOP('',(#277,#278,#279,#280,#281,#282,#283,#284));
#46=EDGE_LOOP('',(#285,#286,#287,#288));
#47=EDGE_LOOP('',(#289,#290,#291,#292));
#48=EDGE_LOOP('',(#293,#294,#295,#296));
#49=EDGE_LOOP('',(#297,#298,#299,#300));
#50=EDGE_LOOP('',(#301,#302,#303,#304));
#51=EDGE_LOOP('',(#305,#306,#307,#308));
#52=EDGE_LOOP('',(#309,#310,#311,#312));
#53=EDGE_LOOP('',(#313,#314,#315,#316));
#54=EDGE_LOOP('',(#317,#318,#319,#320));
#55=EDGE_LOOP('',(#321,#322,#323,#324));
#56=EDGE_LOOP('',(#325,#326,#327,#328));
#57=LINE('',#481,#105);
#58=LINE('',#483,#106);
#59=LINE('',#485,#107);
#60=LINE('',#486,#108);
#61=LINE('',#489,#109);
#62=LINE('',#491,#110);
#63=LINE('',#492,#111);
#64=LINE('',#495,#112);
#65=LINE('',#497,#113);
#66=LINE('',#498,#114);
#67=LINE('',#501,#115);
#68=LINE('',#503,#116);
#69=LINE('',#505,#117);
#70=LINE('',#507,#118);
#71=LINE('',#508,#119);
#72=LINE('',#511,#120);
#73=LINE('',#513,#121);
#74=LINE('',#514,#122);
#75=LINE('',#516,#123);
#76=LINE('',#518,#124);
#77=LINE('',#520,#125);
#78=LINE('',#522,#126);
#79=LINE('',#523,#127);
#80=LINE('',#526,#128);
#81=LINE('',#527,#129);
#82=LINE('',#530,#130);
#83=LINE('',#531,#131);
#84=LINE('',#533,#132);
#85=LINE('',#536,#133);
#86=LINE('',#538,#134);
#87=LINE('',#539,#135);
#88=LINE('',#542,#136);
#89=LINE('',#543,#137);
#90=LINE('',#546,#138);
#91=LINE('',#547,#139);
#92=LINE('',#549,#140);
#93=LINE('',#554,#141);
#94=LINE('',#556,#142);
#95=LINE('',#558,#143);
#96=LINE('',#559,#144);
#97=LINE('',#563,#145);
#98=LINE('',#565,#146);
#99=LINE('',#567,#147);
#100=LINE('',#568,#148);
#101=LINE('',#570,#149);
#102=LINE('',#571,#150);
#103=LINE('',#573,#151);
#104=LINE('',#575,#152);
#105=VECTOR('',#393,10.);
#106=VECTOR('',#394,10.);
#107=VECTOR('',#395,10.);
#108=VECTOR('',#396,10.);
#109=VECTOR('',#399,10.);
#110=VECTOR('',#400,10.);
#111=VECTOR('',#401,10.);
#112=VECTOR('',#404,10.);
#113=VECTOR('',#405,10.);
#114=VECTOR('',#406,10.);
#115=VECTOR('',#409,10.);
#116=VECTOR('',#410,10.);
#117=VECTOR('',#411,10.);
#118=VECTOR('',#412,10.);
#119=VECTOR('',#413,10.);
#120=VECTOR('',#416,10.);
#121=VECTOR('',#417,10.);
#122=VECTOR('',#418,10.);
#123=VECTOR('',#419,10.);
#124=VECTOR('',#420,10.);
#125=VECTOR('',#421,10.);
#126=VECTOR('',#422,10.);
#127=VECTOR('',#423,10.);
#128=VECTOR('',#426,10.);
#129=VECTOR('',#427,10.);
#130=VECTOR('',#430,10.);
#131=VECTOR('',#431,10.);
#132=VECTOR('',#434,10.);
#133=VECTOR('',#437,10.);
#134=VECTOR('',#438,10.);
#135=VECTOR('',#439,10.);
#136=VECTOR('',#442,10.);
#137=VECTOR('',#443,10.);
#138=VECTOR('',#446,10.);
#139=VECTOR('',#447,10.);
#140=VECTOR('',#450,10.);
#141=VECTOR('',#455,10.);
#142=VECTOR('',#456,10.);
#143=VECTOR('',#457,10.);
#144=VECTOR('',#458,10.);
#145=VECTOR('',#461,10.);
#146=VECTOR('',#462,10.);
#147=VECTOR('',#463,10.);
#148=VECTOR('',#464,10.);
#149=VECTOR('',#467,10.);
#150=VECTOR('',#468,10.);
#151=VECTOR('',#471,10.);
#152=VECTOR('',#474,10.);
#153=VERTEX_POINT('',#479);
#154=VERTEX_POINT('',#480);
#155=VERTEX_POINT('',#482);
#156=VERTEX_POINT('',#484);
#157=VERTEX_POINT('',#488);
#158=VERTEX_POINT('',#490);
#159=VERTEX_POINT('',#494);
#160=VERTEX_POINT('',#496);
#161=VERTEX_POINT('',#500);
#162=VERTEX_POINT('',#502);
#163=VERTEX_POINT('',#504);
#164=VERTEX_POINT('',#506);
#165=VERTEX_POINT('',#510);
#166=VERTEX_POINT('',#512);
#167=VERTEX_POINT('',#515);
#168=VERTEX_POINT('',#517);
#169=VERTEX_POINT('',#519);
#170=VERTEX_POINT('',#521);
#171=VERTEX_POINT('',#525);
#172=VERTEX_POINT('',#529);
#173=VERTEX_POINT('',#535);
#174=VERTEX_POINT('',#537);
#175=VERTEX_POINT('',#541);
#176=VERTEX_POINT('',#545);
#177=VERTEX_POINT('',#552);
#178=VERTEX_POINT('',#553);
#179=VERTEX_POINT('',#555);
#180=VERTEX_POINT('',#557);
#181=VERTEX_POINT('',#561);
#182=VERTEX_POINT('',#562);
#183=VERTEX_POINT('',#564);
#184=VERTEX_POINT('',#566);
#185=EDGE_CURVE('',#153,#154,#57,.T.);
#186=EDGE_CURVE('',#155,#153,#58,.T.);
#187=EDGE_CURVE('',#156,#155,#59,.T.);
#188=EDGE_CURVE('',#156,#154,#60,.T.);
#189=EDGE_CURVE('',#154,#157,#61,.T.);
#190=EDGE_CURVE('',#158,#156,#62,.T.);
#191=EDGE_CURVE('',#157,#158,#63,.T.);
#192=EDGE_CURVE('',#159,#153,#64,.T.);
#193=EDGE_CURVE('',#160,#159,#65,.T.);
#194=EDGE_CURVE('',#155,#160,#66,.T.);
#195=EDGE_CURVE('',#161,#157,#67,.T.);
#196=EDGE_CURVE('',#161,#162,#68,.T.);
#197=EDGE_CURVE('',#163,#162,#69,.T.);
#198=EDGE_CURVE('',#164,#163,#70,.T.);
#199=EDGE_CURVE('',#159,#164,#71,.T.);
#200=EDGE_CURVE('',#164,#165,#72,.T.);
#201=EDGE_CURVE('',#165,#166,#73,.T.);
#202=EDGE_CURVE('',#166,#161,#74,.T.);
#203=EDGE_CURVE('',#158,#167,#75,.T.);
#204=EDGE_CURVE('',#167,#168,#76,.T.);
#205=EDGE_CURVE('',#168,#169,#77,.T.);
#206=EDGE_CURVE('',#169,#170,#78,.T.);
#207=EDGE_CURVE('',#170,#160,#79,.T.);
#208=EDGE_CURVE('',#171,#166,#80,.T.);
#209=EDGE_CURVE('',#162,#171,#81,.T.);
#210=EDGE_CURVE('',#172,#163,#82,.T.);
#211=EDGE_CURVE('',#165,#172,#83,.T.);
#212=EDGE_CURVE('',#171,#172,#84,.T.);
#213=EDGE_CURVE('',#173,#170,#85,.T.);
#214=EDGE_CURVE('',#174,#173,#86,.T.);
#215=EDGE_CURVE('',#167,#174,#87,.T.);
#216=EDGE_CURVE('',#175,#174,#88,.T.);
#217=EDGE_CURVE('',#168,#175,#89,.T.);
#218=EDGE_CURVE('',#176,#175,#90,.T.);
#219=EDGE_CURVE('',#169,#176,#91,.T.);
#220=EDGE_CURVE('',#173,#176,#92,.T.);
#221=EDGE_CURVE('',#177,#178,#93,.T.);
#222=EDGE_CURVE('',#178,#179,#94,.T.);
#223=EDGE_CURVE('',#179,#180,#95,.T.);
#224=EDGE_CURVE('',#180,#177,#96,.T.);
#225=EDGE_CURVE('',#181,#182,#97,.T.);
#226=EDGE_CURVE('',#182,#183,#98,.T.);
#227=EDGE_CURVE('',#183,#184,#99,.T.);
#228=EDGE_CURVE('',#184,#181,#100,.T.);
#229=EDGE_CURVE('',#177,#182,#101,.T.);
#230=EDGE_CURVE('',#178,#181,#102,.T.);
#231=EDGE_CURVE('',#180,#183,#103,.T.);
#232=EDGE_CURVE('',#179,#184,#104,.T.);
#233=ORIENTED_EDGE('',*,*,#185,.F.);
#234=ORIENTED_EDGE('',*,*,#186,.F.);
#235=ORIENTED_EDGE('',*,*,#187,.F.);
#236=ORIENTED_EDGE('',*,*,#188,.T.);
#237=ORIENTED_EDGE('',*,*,#189,.F.);
#238=ORIENTED_EDGE('',*,*,#188,.F.);
#239=ORIENTED_EDGE('',*,*,#190,.F.);
#240=ORIENTED_EDGE('',*,*,#191,.F.);
#241=ORIENTED_EDGE('',*,*,#192,.F.);
#242=ORIENTED_EDGE('',*,*,#193,.F.);
#243=ORIENTED_EDGE('',*,*,#194,.F.);
#244=ORIENTED_EDGE('',*,*,#186,.T.);
#245=ORIENTED_EDGE('',*,*,#192,.T.);
#246=ORIENTED_EDGE('',*,*,#185,.T.);
#247=ORIENTED_EDGE('',*,*,#189,.T.);
#248=ORIENTED_EDGE('',*,*,#195,.F.);
#249=ORIENTED_EDGE('',*,*,#196,.T.);
#250=ORIENTED_EDGE('',*,*,#197,.F.);
#251=ORIENTED_EDGE('',*,*,#198,.F.);
#252=ORIENTED_EDGE('',*,*,#199,.F.);
#253=ORIENTED_EDGE('',*,*,#193,.T.);
#254=ORIENTED_EDGE('',*,*,#199,.T.);
#255=ORIENTED_EDGE('',*,*,#200,.T.);
#256=ORIENTED_EDGE('',*,*,#201,.T.);
#257=ORIENTED_EDGE('',*,*,#202,.T.);
#258=ORIENTED_EDGE('',*,*,#195,.T.);
#259=ORIENTED_EDGE('',*,*,#191,.T.);
#260=ORIENTED_EDGE('',*,*,#203,.T.);
#261=ORIENTED_EDGE('',*,*,#204,.T.);
#262=ORIENTED_EDGE('',*,*,#205,.T.);
#263=ORIENTED_EDGE('',*,*,#206,.T.);
#264=ORIENTED_EDGE('',*,*,#207,.T.);
#265=ORIENTED_EDGE('',*,*,#208,.F.);
#266=ORIENTED_EDGE('',*,*,#209,.F.);
#267=ORIENTED_EDGE('',*,*,#196,.F.);
#268=ORIENTED_EDGE('',*,*,#202,.F.);
#269=ORIENTED_EDGE('',*,*,#198,.T.);
#270=ORIENTED_EDGE('',*,*,#210,.F.);
#271=ORIENTED_EDGE('',*,*,#211,.F.);
#272=ORIENTED_EDGE('',*,*,#200,.F.);
#273=ORIENTED_EDGE('',*,*,#211,.T.);
#274=ORIENTED_EDGE('',*,*,#212,.F.);
#275=ORIENTED_EDGE('',*,*,#208,.T.);
#276=ORIENTED_EDGE('',*,*,#201,.F.);
#277=ORIENTED_EDGE('',*,*,#194,.T.);
#278=ORIENTED_EDGE('',*,*,#207,.F.);
#279=ORIENTED_EDGE('',*,*,#213,.F.);
#280=ORIENTED_EDGE('',*,*,#214,.F.);
#281=ORIENTED_EDGE('',*,*,#215,.F.);
#282=ORIENTED_EDGE('',*,*,#203,.F.);
#283=ORIENTED_EDGE('',*,*,#190,.T.);
#284=ORIENTED_EDGE('',*,*,#187,.T.);
#285=ORIENTED_EDGE('',*,*,#215,.T.);
#286=ORIENTED_EDGE('',*,*,#216,.F.);
#287=ORIENTED_EDGE('',*,*,#217,.F.);
#288=ORIENTED_EDGE('',*,*,#204,.F.);
#289=ORIENTED_EDGE('',*,*,#217,.T.);
#290=ORIENTED_EDGE('',*,*,#218,.F.);
#291=ORIENTED_EDGE('',*,*,#219,.F.);
#292=ORIENTED_EDGE('',*,*,#205,.F.);
#293=ORIENTED_EDGE('',*,*,#219,.T.);
#294=ORIENTED_EDGE('',*,*,#220,.F.);
#295=ORIENTED_EDGE('',*,*,#213,.T.);
#296=ORIENTED_EDGE('',*,*,#206,.F.);
#297=ORIENTED_EDGE('',*,*,#220,.T.);
#298=ORIENTED_EDGE('',*,*,#218,.T.);
#299=ORIENTED_EDGE('',*,*,#216,.T.);
#300=ORIENTED_EDGE('',*,*,#214,.T.);
#301=ORIENTED_EDGE('',*,*,#212,.T.);
#302=ORIENTED_EDGE('',*,*,#210,.T.);
#303=ORIENTED_EDGE('',*,*,#197,.T.);
#304=ORIENTED_EDGE('',*,*,#209,.T.);
#305=ORIENTED_EDGE('',*,*,#221,.T.);
#306=ORIENTED_EDGE('',*,*,#222,.T.);
#307=ORIENTED_EDGE('',*,*,#223,.T.);
#308=ORIENTED_EDGE('',*,*,#224,.T.);
#309=ORIENTED_EDGE('',*,*,#225,.T.);
#310=ORIENTED_EDGE('',*,*,#226,.T.);
#311=ORIENTED_EDGE('',*,*,#227,.T.);
#312=ORIENTED_EDGE('',*,*,#228,.T.);
#313=ORIENTED_EDGE('',*,*,#221,.F.);
#314=ORIENTED_EDGE('',*,*,#229,.T.);
#315=ORIENTED_EDGE('',*,*,#225,.F.);
#316=ORIENTED_EDGE('',*,*,#230,.F.);
#317=ORIENTED_EDGE('',*,*,#224,.F.);
#318=ORIENTED_EDGE('',*,*,#231,.T.);
#319=ORIENTED_EDGE('',*,*,#226,.F.);
#320=ORIENTED_EDGE('',*,*,#229,.F.);
#321=ORIENTED_EDGE('',*,*,#223,.F.);
#322=ORIENTED_EDGE('',*,*,#232,.T.);
#323=ORIENTED_EDGE('',*,*,#227,.F.);
#324=ORIENTED_EDGE('',*,*,#231,.F.);
#325=ORIENTED_EDGE('',*,*,#222,.F.);
#326=ORIENTED_EDGE('',*,*,#230,.T.);
#327=ORIENTED_EDGE('',*,*,#228,.F.);
#328=ORIENTED_EDGE('',*,*,#232,.F.);
#329=PLANE('',#370);
#330=PLANE('',#371);
#331=PLANE('',#372);
#332=PLANE('',#373);
#333=PLANE('',#374);
#334=PLANE('',#375);
#335=PLANE('',#376);
#336=PLANE('',#377);
#337=PLANE('',#378);
#338=PLANE('',#379);
#339=PLANE('',#380);
#340=PLANE('',#381);
#341=PLANE('',#382);
#342=PLANE('',#383);
#343=PLANE('',#384);
#344=PLANE('',#385);
#345=PLANE('',#386);
#346=PLANE('',#387);
#347=PLANE('',#388);
#348=ADVANCED_FACE('',(#18),#329,.F.);
#349=ADVANCED_FACE('',(#19),#330,.F.);
#350=ADVANCED_FACE('',(#20),#331,.F.);
#351=ADVANCED_FACE('',(#21),#332,.T.);
#352=ADVANCED_FACE('',(#22),#333,.T.);
#353=ADVANCED_FACE('',(#23),#334,.T.);
#354=ADVANCED_FACE('',(#24),#335,.T.);
#355=ADVANCED_FACE('',(#25),#336,.T.);
#356=ADVANCED_FACE('',(#26),#337,.T.);
#357=ADVANCED_FACE('',(#27),#338,.T.);
#358=ADVANCED_FACE('',(#28),#339,.T.);
#359=ADVANCED_FACE('',(#29),#340,.T.);
#360=ADVANCED_FACE('',(#30,#17),#341,.T.);
#361=ADVANCED_FACE('',(#31),#342,.F.);
#362=ADVANCED_FACE('',(#32),#343,.T.);
#363=ADVANCED_FACE('',(#33),#344,.T.);
#364=ADVANCED_FACE('',(#34),#345,.T.);
#365=ADVANCED_FACE('',(#35),#346,.T.);
#366=ADVANCED_FACE('',(#36),#347,.T.);
#367=CLOSED_SHELL('',(#348,#349,#350,#351,#352,#353,#354,#355,#356,#357,
#358,#359,#360));
#368=CLOSED_SHELL('',(#361,#362,#363,#364,#365,#366));
#369=AXIS2_PLACEMENT_3D('',#477,#389,#390);
#370=AXIS2_PLACEMENT_3D('',#478,#391,#392);
#371=AXIS2_PLACEMENT_3D('',#487,#397,#398);
#372=AXIS2_PLACEMENT_3D('',#493,#402,#403);
#373=AXIS2_PLACEMENT_3D('',#499,#407,#408);
#374=AXIS2_PLACEMENT_3D('',#509,#414,#415);
#375=AXIS2_PLACEMENT_3D('',#524,#424,#425);
#376=AXIS2_PLACEMENT_3D('',#528,#428,#429);
#377=AXIS2_PLACEMENT_3D('',#532,#432,#433);
#378=AXIS2_PLACEMENT_3D('',#534,#435,#436);
#379=AXIS2_PLACEMENT_3D('',#540,#440,#441);
#380=AXIS2_PLACEMENT_3D('',#544,#444,#445);
#381=AXIS2_PLACEMENT_3D('',#548,#448,#449);
#382=AXIS2_PLACEMENT_3D('',#550,#451,#452);
#383=AXIS2_PLACEMENT_3D('',#551,#453,#454);
#384=AXIS2_PLACEMENT_3D('',#560,#459,#460);
#385=AXIS2_PLACEMENT_3D('',#569,#465,#466);
#386=AXIS2_PLACEMENT_3D('',#572,#469,#470);
#387=AXIS2_PLACEMENT_3D('',#574,#472,#473);
#388=AXIS2_PLACEMENT_3D('',#576,#475,#476);
#389=DIRECTION('axis',(0.,0.,1.));
#390=DIRECTION('refdir',(1.,0.,0.));
#391=DIRECTION('center_axis',(0.,0.,-1.));
#392=DIRECTION('ref_axis',(0.,1.,0.));
#393=DIRECTION('',(0.,-1.,0.));
#394=DIRECTION('',(1.,0.,0.));
#395=DIRECTION('',(0.,1.,0.));
#396=DIRECTION('',(1.,0.,0.));
#397=DIRECTION('center_axis',(0.,-1.,0.));
#398=DIRECTION('ref_axis',(0.,0.,-1.));
#399=DIRECTION('',(0.,0.,1.));
#400=DIRECTION('',(0.,0.,-1.));
#401=DIRECTION('',(-1.,0.,0.));
#402=DIRECTION('center_axis',(0.,1.,0.));
#403=DIRECTION('ref_axis',(0.,0.,1.));
#404=DIRECTION('',(0.,0.,-1.));
#405=DIRECTION('',(1.,0.,0.));
#406=DIRECTION('',(0.,0.,1.));
#407=DIRECTION('center_axis',(1.,0.,0.));
#408=DIRECTION('ref_axis',(0.,-1.,0.));
#409=DIRECTION('',(0.,1.,0.));
#410=DIRECTION('',(0.,0.,-1.));
#411=DIRECTION('',(0.,-1.,0.));
#412=DIRECTION('',(0.,0.,-1.));
#413=DIRECTION('',(0.,1.,0.));
#414=DIRECTION('center_axis',(0.,0.,1.));
#415=DIRECTION('ref_axis',(1.,0.,0.));
#416=DIRECTION('',(1.,0.,0.));
#417=DIRECTION('',(0.,-1.,0.));
#418=DIRECTION('',(-1.,0.,0.));
#419=DIRECTION('',(0.,-1.,0.));
#420=DIRECTION('',(1.,0.,0.));
#421=DIRECTION('',(0.,1.,0.));
#422=DIRECTION('',(-1.,0.,0.));
#423=DIRECTION('',(0.,-1.,0.));
#424=DIRECTION('center_axis',(0.,1.,0.));
#425=DIRECTION('ref_axis',(1.,0.,0.));
#426=DIRECTION('',(0.,0.,1.));
#427=DIRECTION('',(1.,0.,0.));
#428=DIRECTION('center_axis',(0.,-1.,0.));
#429=DIRECTION('ref_axis',(-1.,0.,0.));
#430=DIRECTION('',(-1.,0.,0.));
#431=DIRECTION('',(0.,0.,-1.));
#432=DIRECTION('center_axis',(-1.,0.,0.));
#433=DIRECTION('ref_axis',(0.,1.,0.));
#434=DIRECTION('',(0.,1.,0.));
#435=DIRECTION('center_axis',(-1.,0.,0.));
#436=DIRECTION('ref_axis',(0.,1.,0.));
#437=DIRECTION('',(0.,0.,1.));
#438=DIRECTION('',(0.,1.,0.));
#439=DIRECTION('',(0.,0.,-1.));
#440=DIRECTION('center_axis',(0.,-1.,0.));
#441=DIRECTION('ref_axis',(-1.,0.,0.));
#442=DIRECTION('',(-1.,0.,0.));
#443=DIRECTION('',(0.,0.,-1.));
#444=DIRECTION('center_axis',(1.,0.,0.));
#445=DIRECTION('ref_axis',(0.,-1.,0.));
#446=DIRECTION('',(0.,-1.,0.));
#447=DIRECTION('',(0.,0.,-1.));
#448=DIRECTION('center_axis',(0.,1.,0.));
#449=DIRECTION('ref_axis',(1.,0.,0.));
#450=DIRECTION('',(1.,0.,0.));
#451=DIRECTION('center_axis',(0.,0.,-1.));
#452=DIRECTION('ref_axis',(-1.,0.,0.));
#453=DIRECTION('center_axis',(0.,0.,-1.));
#454=DIRECTION('ref_axis',(-1.,0.,0.));
#455=DIRECTION('',(0.,-1.,0.));
#456=DIRECTION('',(1.,0.,0.));
#457=DIRECTION('',(0.,1.,0.));
#458=DIRECTION('',(-1.,0.,0.));
#459=DIRECTION('center_axis',(0.,0.,-1.));
#460=DIRECTION('ref_axis',(-1.,0.,0.));
#461=DIRECTION('',(0.,1.,0.));
#462=DIRECTION('',(1.,0.,0.));
#463=DIRECTION('',(0.,-1.,0.));
#464=DIRECTION('',(-1.,0.,0.));
#465=DIRECTION('center_axis',(-1.,0.,0.));
#466=DIRECTION('ref_axis',(0.,1.,0.));
#467=DIRECTION('',(0.,0.,-1.));
#468=DIRECTION('',(0.,0.,-1.));
#469=DIRECTION('center_axis',(0.,1.,0.));
#470=DIRECTION('ref_axis',(1.,0.,0.));
#471=DIRECTION('',(0.,0.,-1.));
#472=DIRECTION('center_axis',(1.,0.,0.));
#473=DIRECTION('ref_axis',(0.,-1.,0.));
#474=DIRECTION('',(0.,0.,-1.));
#475=DIRECTION('center_axis',(0.,-1.,0.));
#476=DIRECTION('ref_axis',(-1.,0.,0.));
#477=CARTESIAN_POINT('',(0.,0.,0.));
#478=CARTESIAN_POINT('Origin',(97.0000014454126,-90.0000013411045,1.00000001490116));
#479=CARTESIAN_POINT('',(97.25,-80.0000011920929,1.00000001490116));
#480=CARTESIAN_POINT('',(97.25,-90.0000013411045,1.00000001490116));
#481=CARTESIAN_POINT('',(97.25,-67.9375006705523,1.00000001490116));
#482=CARTESIAN_POINT('',(97.0000014454126,-80.0000011920929,1.00000001490116));
#483=CARTESIAN_POINT('',(97.0000014454126,-80.0000011920929,1.00000001490116));
#484=CARTESIAN_POINT('',(97.0000014454126,-90.0000013411045,1.00000001490116));
#485=CARTESIAN_POINT('',(97.0000014454126,-98.5000014677644,1.00000001490116));
#486=CARTESIAN_POINT('',(97.0000014454126,-90.0000013411045,1.00000001490116));
#487=CARTESIAN_POINT('Origin',(97.0000014454126,-90.0000013411045,5.00000007450581));
#488=CARTESIAN_POINT('',(97.25,-90.0000013411045,5.));
#489=CARTESIAN_POINT('',(97.25,-90.0000013411045,2.5000000372529));
#490=CARTESIAN_POINT('',(97.0000014454126,-90.0000013411045,5.00000007450581));
#491=CARTESIAN_POINT('',(97.0000014454126,-90.0000013411045,2.5000000372529));
#492=CARTESIAN_POINT('',(116.507605773262,-90.0000013411045,5.));
#493=CARTESIAN_POINT('Origin',(97.0000014454126,-80.0000011920929,1.00000001490116));
#494=CARTESIAN_POINT('',(97.25,-80.0000011920929,5.));
#495=CARTESIAN_POINT('',(97.25,-80.0000011920929,0.500000007450581));
#496=CARTESIAN_POINT('',(97.0000014454126,-80.0000011920929,5.00000007450581));
#497=CARTESIAN_POINT('',(116.507605773262,-80.0000011920929,5.));
#498=CARTESIAN_POINT('',(97.0000014454126,-80.0000011920929,0.500000007450581));
#499=CARTESIAN_POINT('Origin',(97.25,-45.875,0.));
#500=CARTESIAN_POINT('',(97.25,-106.75,5.));
#501=CARTESIAN_POINT('',(97.25,-106.75,5.));
#502=CARTESIAN_POINT('',(97.25,-106.75,-5.1));
#503=CARTESIAN_POINT('',(97.25,-106.75,0.));
#504=CARTESIAN_POINT('',(97.25,-45.875,-5.1));
#505=CARTESIAN_POINT('',(97.25,-106.75,-5.1));
#506=CARTESIAN_POINT('',(97.25,-45.875,5.));
#507=CARTESIAN_POINT('',(97.25,-45.875,0.));
#508=CARTESIAN_POINT('',(97.25,-106.75,5.));
#509=CARTESIAN_POINT('Origin',(136.015210101111,-76.2369641218903,5.));
#510=CARTESIAN_POINT('',(174.45,-45.875,5.));
#511=CARTESIAN_POINT('',(97.25,-45.875,5.));
#512=CARTESIAN_POINT('',(174.45,-106.75,5.));
#513=CARTESIAN_POINT('',(174.45,-45.875,5.));
#514=CARTESIAN_POINT('',(174.45,-106.75,5.));
#515=CARTESIAN_POINT('',(97.0000014454126,-107.000001594424,5.));
#516=CARTESIAN_POINT('',(97.0000014454126,-45.4739266493563,5.));
#517=CARTESIAN_POINT('',(175.030418756809,-107.000001594424,5.));
#518=CARTESIAN_POINT('',(97.0000014454126,-107.000001594424,5.));
#519=CARTESIAN_POINT('',(175.030418756809,-45.4739266493563,5.));
#520=CARTESIAN_POINT('',(175.030418756809,-107.000001594424,5.));
#521=CARTESIAN_POINT('',(97.0000014454126,-45.4739266493563,5.));
#522=CARTESIAN_POINT('',(175.030418756809,-45.4739266493563,5.));
#523=CARTESIAN_POINT('',(97.0000014454126,-45.4739266493563,5.));
#524=CARTESIAN_POINT('Origin',(97.25,-106.75,0.));
#525=CARTESIAN_POINT('',(174.45,-106.75,-5.1));
#526=CARTESIAN_POINT('',(174.45,-106.75,0.));
#527=CARTESIAN_POINT('',(174.45,-106.75,-5.1));
#528=CARTESIAN_POINT('Origin',(174.45,-45.875,0.));
#529=CARTESIAN_POINT('',(174.45,-45.875,-5.1));
#530=CARTESIAN_POINT('',(97.25,-45.875,-5.1));
#531=CARTESIAN_POINT('',(174.45,-45.875,0.));
#532=CARTESIAN_POINT('Origin',(174.45,-106.75,0.));
#533=CARTESIAN_POINT('',(174.45,-45.875,-5.1));
#534=CARTESIAN_POINT('Origin',(97.0000014454126,-107.000001594424,0.));
#535=CARTESIAN_POINT('',(97.0000014454126,-45.4739266493563,-5.1));
#536=CARTESIAN_POINT('',(97.0000014454126,-45.4739266493563,0.));
#537=CARTESIAN_POINT('',(97.0000014454126,-107.000001594424,-5.1));
#538=CARTESIAN_POINT('',(97.0000014454126,-45.4739266493563,-5.1));
#539=CARTESIAN_POINT('',(97.0000014454126,-107.000001594424,0.));
#540=CARTESIAN_POINT('Origin',(175.030418756809,-107.000001594424,0.));
#541=CARTESIAN_POINT('',(175.030418756809,-107.000001594424,-5.1));
#542=CARTESIAN_POINT('',(97.0000014454126,-107.000001594424,-5.1));
#543=CARTESIAN_POINT('',(175.030418756809,-107.000001594424,0.));
#544=CARTESIAN_POINT('Origin',(175.030418756809,-45.4739266493563,0.));
#545=CARTESIAN_POINT('',(175.030418756809,-45.4739266493563,-5.1));
#546=CARTESIAN_POINT('',(175.030418756809,-107.000001594424,-5.1));
#547=CARTESIAN_POINT('',(175.030418756809,-45.4739266493563,0.));
#548=CARTESIAN_POINT('Origin',(97.0000014454126,-45.4739266493563,0.));
#549=CARTESIAN_POINT('',(175.030418756809,-45.4739266493563,-5.1));
#550=CARTESIAN_POINT('Origin',(136.015210101111,-76.2369641218903,-5.1));
#551=CARTESIAN_POINT('Origin',(135.85,-76.3125,-5.1));
#552=CARTESIAN_POINT('',(97.25,-45.875,-5.1));
#553=CARTESIAN_POINT('',(97.25,-106.75,-5.1));
#554=CARTESIAN_POINT('',(97.25,-106.75,-5.1));
#555=CARTESIAN_POINT('',(174.45,-106.75,-5.1));
#556=CARTESIAN_POINT('',(174.45,-106.75,-5.1));
#557=CARTESIAN_POINT('',(174.45,-45.875,-5.1));
#558=CARTESIAN_POINT('',(174.45,-45.875,-5.1));
#559=CARTESIAN_POINT('',(97.25,-45.875,-5.1));
#560=CARTESIAN_POINT('Origin',(135.85,-76.3125,-5.3));
#561=CARTESIAN_POINT('',(97.25,-106.75,-5.3));
#562=CARTESIAN_POINT('',(97.25,-45.875,-5.3));
#563=CARTESIAN_POINT('',(97.25,-45.875,-5.3));
#564=CARTESIAN_POINT('',(174.45,-45.875,-5.3));
#565=CARTESIAN_POINT('',(174.45,-45.875,-5.3));
#566=CARTESIAN_POINT('',(174.45,-106.75,-5.3));
#567=CARTESIAN_POINT('',(174.45,-106.75,-5.3));
#568=CARTESIAN_POINT('',(97.25,-106.75,-5.3));
#569=CARTESIAN_POINT('Origin',(97.25,-106.75,-5.1));
#570=CARTESIAN_POINT('',(97.25,-45.875,-5.1));
#571=CARTESIAN_POINT('',(97.25,-106.75,-5.1));
#572=CARTESIAN_POINT('Origin',(97.25,-45.875,-5.1));
#573=CARTESIAN_POINT('',(174.45,-45.875,-5.1));
#574=CARTESIAN_POINT('Origin',(174.45,-45.875,-5.1));
#575=CARTESIAN_POINT('',(174.45,-106.75,-5.1));
#576=CARTESIAN_POINT('Origin',(174.45,-106.75,-5.1));
#577=UNCERTAINTY_MEASURE_WITH_UNIT(LENGTH_MEASURE(0.01),#581,
'DISTANCE_ACCURACY_VALUE',
'Maximum model space distance between geometric entities at asserted c
onnectivities');
#578=UNCERTAINTY_MEASURE_WITH_UNIT(LENGTH_MEASURE(0.01),#581,
'DISTANCE_ACCURACY_VALUE',
'Maximum model space distance between geometric entities at asserted c
onnectivities');
#579=(
GEOMETRIC_REPRESENTATION_CONTEXT(3)
GLOBAL_UNCERTAINTY_ASSIGNED_CONTEXT((#577))
GLOBAL_UNIT_ASSIGNED_CONTEXT((#581,#582,#583))
REPRESENTATION_CONTEXT('','3D')
);
#580=(
GEOMETRIC_REPRESENTATION_CONTEXT(3)
GLOBAL_UNCERTAINTY_ASSIGNED_CONTEXT((#578))
GLOBAL_UNIT_ASSIGNED_CONTEXT((#581,#582,#583))
REPRESENTATION_CONTEXT('','3D')
);
#581=(
LENGTH_UNIT()
NAMED_UNIT(*)
SI_UNIT(.MILLI.,.METRE.)
);
#582=(
NAMED_UNIT(*)
PLANE_ANGLE_UNIT()
SI_UNIT($,.RADIAN.)
);
#583=(
NAMED_UNIT(*)
SI_UNIT($,.STERADIAN.)
SOLID_ANGLE_UNIT()
);
#584=SHAPE_DEFINITION_REPRESENTATION(#585,#586);
#585=PRODUCT_DEFINITION_SHAPE('',$,#588);
#586=SHAPE_REPRESENTATION('',(#369),#579);
#587=PRODUCT_DEFINITION_CONTEXT('part definition',#592,'design');
#588=PRODUCT_DEFINITION('HackPad1 1','HackMain',#589,#587);
#589=PRODUCT_DEFINITION_FORMATION('',$,#594);
#590=PRODUCT_RELATED_PRODUCT_CATEGORY('HackMain','HackMain',(#594));
#591=APPLICATION_PROTOCOL_DEFINITION('international standard',
'automotive_design',2009,#592);
#592=APPLICATION_CONTEXT(
'Core Data for Automotive Mechanical Design Process');
#593=PRODUCT_CONTEXT('part definition',#592,'mechanical');
#594=PRODUCT('HackPad1 1','HackMain','KiCad electronic assembly',(#593));
#595=PRESENTATION_STYLE_ASSIGNMENT((#596));
#596=SURFACE_STYLE_USAGE(.BOTH.,#597);
#597=SURFACE_SIDE_STYLE('',(#598));
#598=SURFACE_STYLE_FILL_AREA(#599);
#599=FILL_AREA_STYLE('Steel - Satin',(#600));
#600=FILL_AREA_STYLE_COLOUR('Steel - Satin',#601);
#601=COLOUR_RGB('Steel - Satin',0.627450980392157,0.627450980392157,0.627450980392157);
ENDSEC;
END-ISO-10303-21;
