ISO-10303-21;
HEADER;
/* Generated by software containing ST-Developer
 * from STEP Tools, Inc. (www.steptools.com) 
 */

FILE_DESCRIPTION(
/* description */ ('KiCad electronic assembly'),
/* implementation_level */ '2;1');

FILE_NAME(
/* name */ 'Top.step',
/* time_stamp */ '2026-09-06T16:29:32+05:30',
/* author */ (''),
/* organization */ (''),
/* preprocessor_version */ 'ST-DEVELOPER v20.1',
/* originating_system */ 'Autodesk Translation Framework v15.8.0.0',
/* authorisation */ '');

FILE_SCHEMA (('AUTOMOTIVE_DESIGN { 1 0 10303 214 3 1 1 }'));
ENDSEC;

DATA;
#10=MECHANICAL_DESIGN_GEOMETRIC_PRESENTATION_REPRESENTATION('',(#13),#1417);
#11=SHAPE_REPRESENTATION_RELATIONSHIP('SRR','None',#1423,#12);
#12=ADVANCED_BREP_SHAPE_REPRESENTATION('',(#14),#1416);
#13=STYLED_ITEM('',(#1432),#14);
#14=MANIFOLD_SOLID_BREP('Top',#873);
#15=FACE_BOUND('',#140,.T.);
#16=FACE_BOUND('',#141,.T.);
#17=FACE_BOUND('',#142,.T.);
#18=FACE_BOUND('',#143,.T.);
#19=FACE_BOUND('',#144,.T.);
#20=FACE_BOUND('',#145,.T.);
#21=FACE_BOUND('',#146,.T.);
#22=FACE_BOUND('',#147,.T.);
#23=FACE_BOUND('',#148,.T.);
#24=FACE_BOUND('',#149,.T.);
#25=FACE_BOUND('',#151,.T.);
#26=FACE_BOUND('',#152,.T.);
#27=FACE_BOUND('',#153,.T.);
#28=FACE_BOUND('',#154,.T.);
#29=FACE_BOUND('',#155,.T.);
#30=FACE_BOUND('',#156,.T.);
#31=FACE_BOUND('',#157,.T.);
#32=FACE_BOUND('',#158,.T.);
#33=FACE_BOUND('',#159,.T.);
#34=FACE_BOUND('',#160,.T.);
#35=PLANE('',#881);
#36=PLANE('',#882);
#37=PLANE('',#895);
#38=PLANE('',#896);
#39=PLANE('',#903);
#40=PLANE('',#904);
#41=PLANE('',#911);
#42=PLANE('',#912);
#43=PLANE('',#913);
#44=PLANE('',#914);
#45=PLANE('',#915);
#46=PLANE('',#916);
#47=PLANE('',#917);
#48=PLANE('',#918);
#49=PLANE('',#919);
#50=PLANE('',#920);
#51=PLANE('',#921);
#52=PLANE('',#922);
#53=PLANE('',#923);
#54=PLANE('',#924);
#55=PLANE('',#925);
#56=PLANE('',#926);
#57=PLANE('',#927);
#58=PLANE('',#928);
#59=PLANE('',#929);
#60=PLANE('',#930);
#61=PLANE('',#931);
#62=PLANE('',#932);
#63=PLANE('',#933);
#64=PLANE('',#934);
#65=PLANE('',#935);
#66=PLANE('',#936);
#67=PLANE('',#937);
#68=PLANE('',#938);
#69=PLANE('',#939);
#70=PLANE('',#940);
#71=PLANE('',#941);
#72=PLANE('',#942);
#73=FACE_OUTER_BOUND('',#121,.T.);
#74=FACE_OUTER_BOUND('',#122,.T.);
#75=FACE_OUTER_BOUND('',#123,.T.);
#76=FACE_OUTER_BOUND('',#124,.T.);
#77=FACE_OUTER_BOUND('',#125,.T.);
#78=FACE_OUTER_BOUND('',#126,.T.);
#79=FACE_OUTER_BOUND('',#127,.T.);
#80=FACE_OUTER_BOUND('',#128,.T.);
#81=FACE_OUTER_BOUND('',#129,.T.);
#82=FACE_OUTER_BOUND('',#130,.T.);
#83=FACE_OUTER_BOUND('',#131,.T.);
#84=FACE_OUTER_BOUND('',#132,.T.);
#85=FACE_OUTER_BOUND('',#133,.T.);
#86=FACE_OUTER_BOUND('',#134,.T.);
#87=FACE_OUTER_BOUND('',#135,.T.);
#88=FACE_OUTER_BOUND('',#136,.T.);
#89=FACE_OUTER_BOUND('',#137,.T.);
#90=FACE_OUTER_BOUND('',#138,.T.);
#91=FACE_OUTER_BOUND('',#139,.T.);
#92=FACE_OUTER_BOUND('',#150,.T.);
#93=FACE_OUTER_BOUND('',#161,.T.);
#94=FACE_OUTER_BOUND('',#162,.T.);
#95=FACE_OUTER_BOUND('',#163,.T.);
#96=FACE_OUTER_BOUND('',#164,.T.);
#97=FACE_OUTER_BOUND('',#165,.T.);
#98=FACE_OUTER_BOUND('',#166,.T.);
#99=FACE_OUTER_BOUND('',#167,.T.);
#100=FACE_OUTER_BOUND('',#168,.T.);
#101=FACE_OUTER_BOUND('',#169,.T.);
#102=FACE_OUTER_BOUND('',#170,.T.);
#103=FACE_OUTER_BOUND('',#171,.T.);
#104=FACE_OUTER_BOUND('',#172,.T.);
#105=FACE_OUTER_BOUND('',#173,.T.);
#106=FACE_OUTER_BOUND('',#174,.T.);
#107=FACE_OUTER_BOUND('',#175,.T.);
#108=FACE_OUTER_BOUND('',#176,.T.);
#109=FACE_OUTER_BOUND('',#177,.T.);
#110=FACE_OUTER_BOUND('',#178,.T.);
#111=FACE_OUTER_BOUND('',#179,.T.);
#112=FACE_OUTER_BOUND('',#180,.T.);
#113=FACE_OUTER_BOUND('',#181,.T.);
#114=FACE_OUTER_BOUND('',#182,.T.);
#115=FACE_OUTER_BOUND('',#183,.T.);
#116=FACE_OUTER_BOUND('',#184,.T.);
#117=FACE_OUTER_BOUND('',#185,.T.);
#118=FACE_OUTER_BOUND('',#186,.T.);
#119=FACE_OUTER_BOUND('',#187,.T.);
#120=FACE_OUTER_BOUND('',#188,.T.);
#121=EDGE_LOOP('',(#587,#588,#589,#590));
#122=EDGE_LOOP('',(#591,#592,#593,#594));
#123=EDGE_LOOP('',(#595));
#124=EDGE_LOOP('',(#596));
#125=EDGE_LOOP('',(#597,#598,#599,#600));
#126=EDGE_LOOP('',(#601,#602,#603,#604));
#127=EDGE_LOOP('',(#605,#606,#607,#608));
#128=EDGE_LOOP('',(#609,#610,#611,#612));
#129=EDGE_LOOP('',(#613,#614));
#130=EDGE_LOOP('',(#615,#616));
#131=EDGE_LOOP('',(#617,#618,#619,#620));
#132=EDGE_LOOP('',(#621,#622,#623,#624));
#133=EDGE_LOOP('',(#625));
#134=EDGE_LOOP('',(#626));
#135=EDGE_LOOP('',(#627,#628,#629,#630));
#136=EDGE_LOOP('',(#631,#632,#633,#634));
#137=EDGE_LOOP('',(#635));
#138=EDGE_LOOP('',(#636));
#139=EDGE_LOOP('',(#637,#638,#639,#640));
#140=EDGE_LOOP('',(#641,#642));
#141=EDGE_LOOP('',(#643,#644,#645,#646));
#142=EDGE_LOOP('',(#647,#648,#649,#650));
#143=EDGE_LOOP('',(#651,#652,#653,#654));
#144=EDGE_LOOP('',(#655,#656,#657,#658));
#145=EDGE_LOOP('',(#659,#660,#661,#662));
#146=EDGE_LOOP('',(#663,#664,#665,#666));
#147=EDGE_LOOP('',(#667));
#148=EDGE_LOOP('',(#668));
#149=EDGE_LOOP('',(#669));
#150=EDGE_LOOP('',(#670,#671,#672,#673));
#151=EDGE_LOOP('',(#674,#675));
#152=EDGE_LOOP('',(#676,#677,#678,#679));
#153=EDGE_LOOP('',(#680,#681,#682,#683));
#154=EDGE_LOOP('',(#684,#685,#686,#687));
#155=EDGE_LOOP('',(#688,#689,#690,#691));
#156=EDGE_LOOP('',(#692,#693,#694,#695));
#157=EDGE_LOOP('',(#696,#697,#698,#699));
#158=EDGE_LOOP('',(#700));
#159=EDGE_LOOP('',(#701));
#160=EDGE_LOOP('',(#702));
#161=EDGE_LOOP('',(#703,#704,#705,#706));
#162=EDGE_LOOP('',(#707,#708,#709,#710));
#163=EDGE_LOOP('',(#711,#712,#713,#714));
#164=EDGE_LOOP('',(#715,#716,#717,#718));
#165=EDGE_LOOP('',(#719,#720,#721,#722));
#166=EDGE_LOOP('',(#723,#724,#725,#726));
#167=EDGE_LOOP('',(#727,#728,#729,#730));
#168=EDGE_LOOP('',(#731,#732,#733,#734));
#169=EDGE_LOOP('',(#735,#736,#737,#738));
#170=EDGE_LOOP('',(#739,#740,#741,#742));
#171=EDGE_LOOP('',(#743,#744,#745,#746));
#172=EDGE_LOOP('',(#747,#748,#749,#750));
#173=EDGE_LOOP('',(#751,#752,#753,#754));
#174=EDGE_LOOP('',(#755,#756,#757,#758));
#175=EDGE_LOOP('',(#759,#760,#761,#762));
#176=EDGE_LOOP('',(#763,#764,#765,#766));
#177=EDGE_LOOP('',(#767,#768,#769,#770));
#178=EDGE_LOOP('',(#771,#772,#773,#774));
#179=EDGE_LOOP('',(#775,#776,#777,#778));
#180=EDGE_LOOP('',(#779,#780,#781,#782));
#181=EDGE_LOOP('',(#783,#784,#785,#786));
#182=EDGE_LOOP('',(#787,#788,#789,#790));
#183=EDGE_LOOP('',(#791,#792,#793,#794));
#184=EDGE_LOOP('',(#795,#796,#797,#798));
#185=EDGE_LOOP('',(#799,#800,#801,#802));
#186=EDGE_LOOP('',(#803,#804,#805,#806));
#187=EDGE_LOOP('',(#807,#808,#809,#810));
#188=EDGE_LOOP('',(#811,#812,#813,#814));
#189=LINE('',#1180,#283);
#190=LINE('',#1186,#284);
#191=LINE('',#1195,#285);
#192=LINE('',#1198,#286);
#193=LINE('',#1207,#287);
#194=LINE('',#1210,#288);
#195=LINE('',#1220,#289);
#196=LINE('',#1226,#290);
#197=LINE('',#1234,#291);
#198=LINE('',#1240,#292);
#199=LINE('',#1247,#293);
#200=LINE('',#1249,#294);
#201=LINE('',#1251,#295);
#202=LINE('',#1252,#296);
#203=LINE('',#1255,#297);
#204=LINE('',#1257,#298);
#205=LINE('',#1259,#299);
#206=LINE('',#1260,#300);
#207=LINE('',#1263,#301);
#208=LINE('',#1265,#302);
#209=LINE('',#1267,#303);
#210=LINE('',#1268,#304);
#211=LINE('',#1271,#305);
#212=LINE('',#1273,#306);
#213=LINE('',#1275,#307);
#214=LINE('',#1276,#308);
#215=LINE('',#1279,#309);
#216=LINE('',#1281,#310);
#217=LINE('',#1283,#311);
#218=LINE('',#1284,#312);
#219=LINE('',#1287,#313);
#220=LINE('',#1289,#314);
#221=LINE('',#1291,#315);
#222=LINE('',#1292,#316);
#223=LINE('',#1295,#317);
#224=LINE('',#1297,#318);
#225=LINE('',#1299,#319);
#226=LINE('',#1300,#320);
#227=LINE('',#1304,#321);
#228=LINE('',#1306,#322);
#229=LINE('',#1308,#323);
#230=LINE('',#1309,#324);
#231=LINE('',#1312,#325);
#232=LINE('',#1314,#326);
#233=LINE('',#1316,#327);
#234=LINE('',#1317,#328);
#235=LINE('',#1320,#329);
#236=LINE('',#1322,#330);
#237=LINE('',#1324,#331);
#238=LINE('',#1325,#332);
#239=LINE('',#1328,#333);
#240=LINE('',#1330,#334);
#241=LINE('',#1332,#335);
#242=LINE('',#1333,#336);
#243=LINE('',#1336,#337);
#244=LINE('',#1338,#338);
#245=LINE('',#1340,#339);
#246=LINE('',#1341,#340);
#247=LINE('',#1344,#341);
#248=LINE('',#1346,#342);
#249=LINE('',#1348,#343);
#250=LINE('',#1349,#344);
#251=LINE('',#1352,#345);
#252=LINE('',#1354,#346);
#253=LINE('',#1356,#347);
#254=LINE('',#1357,#348);
#255=LINE('',#1359,#349);
#256=LINE('',#1360,#350);
#257=LINE('',#1362,#351);
#258=LINE('',#1364,#352);
#259=LINE('',#1367,#353);
#260=LINE('',#1368,#354);
#261=LINE('',#1370,#355);
#262=LINE('',#1372,#356);
#263=LINE('',#1375,#357);
#264=LINE('',#1376,#358);
#265=LINE('',#1378,#359);
#266=LINE('',#1380,#360);
#267=LINE('',#1383,#361);
#268=LINE('',#1384,#362);
#269=LINE('',#1386,#363);
#270=LINE('',#1388,#364);
#271=LINE('',#1391,#365);
#272=LINE('',#1392,#366);
#273=LINE('',#1394,#367);
#274=LINE('',#1396,#368);
#275=LINE('',#1399,#369);
#276=LINE('',#1400,#370);
#277=LINE('',#1402,#371);
#278=LINE('',#1404,#372);
#279=LINE('',#1407,#373);
#280=LINE('',#1408,#374);
#281=LINE('',#1410,#375);
#282=LINE('',#1412,#376);
#283=VECTOR('',#949,1.36019615059217);
#284=VECTOR('',#956,1.36019615059217);
#285=VECTOR('',#967,10.);
#286=VECTOR('',#970,10.);
#287=VECTOR('',#981,10.);
#288=VECTOR('',#984,10.);
#289=VECTOR('',#999,1.37218906555173);
#290=VECTOR('',#1006,1.37218906555173);
#291=VECTOR('',#1017,1.30095551555357);
#292=VECTOR('',#1024,1.30095551555357);
#293=VECTOR('',#1033,10.);
#294=VECTOR('',#1034,10.);
#295=VECTOR('',#1035,10.);
#296=VECTOR('',#1036,10.);
#297=VECTOR('',#1037,10.);
#298=VECTOR('',#1038,10.);
#299=VECTOR('',#1039,10.);
#300=VECTOR('',#1040,10.);
#301=VECTOR('',#1041,10.);
#302=VECTOR('',#1042,10.);
#303=VECTOR('',#1043,10.);
#304=VECTOR('',#1044,10.);
#305=VECTOR('',#1045,10.);
#306=VECTOR('',#1046,10.);
#307=VECTOR('',#1047,10.);
#308=VECTOR('',#1048,10.);
#309=VECTOR('',#1049,10.);
#310=VECTOR('',#1050,10.);
#311=VECTOR('',#1051,10.);
#312=VECTOR('',#1052,10.);
#313=VECTOR('',#1053,10.);
#314=VECTOR('',#1054,10.);
#315=VECTOR('',#1055,10.);
#316=VECTOR('',#1056,10.);
#317=VECTOR('',#1057,10.);
#318=VECTOR('',#1058,10.);
#319=VECTOR('',#1059,10.);
#320=VECTOR('',#1060,10.);
#321=VECTOR('',#1063,10.);
#322=VECTOR('',#1064,10.);
#323=VECTOR('',#1065,10.);
#324=VECTOR('',#1066,10.);
#325=VECTOR('',#1067,10.);
#326=VECTOR('',#1068,10.);
#327=VECTOR('',#1069,10.);
#328=VECTOR('',#1070,10.);
#329=VECTOR('',#1071,10.);
#330=VECTOR('',#1072,10.);
#331=VECTOR('',#1073,10.);
#332=VECTOR('',#1074,10.);
#333=VECTOR('',#1075,10.);
#334=VECTOR('',#1076,10.);
#335=VECTOR('',#1077,10.);
#336=VECTOR('',#1078,10.);
#337=VECTOR('',#1079,10.);
#338=VECTOR('',#1080,10.);
#339=VECTOR('',#1081,10.);
#340=VECTOR('',#1082,10.);
#341=VECTOR('',#1083,10.);
#342=VECTOR('',#1084,10.);
#343=VECTOR('',#1085,10.);
#344=VECTOR('',#1086,10.);
#345=VECTOR('',#1087,10.);
#346=VECTOR('',#1088,10.);
#347=VECTOR('',#1089,10.);
#348=VECTOR('',#1090,10.);
#349=VECTOR('',#1093,10.);
#350=VECTOR('',#1094,10.);
#351=VECTOR('',#1097,10.);
#352=VECTOR('',#1100,10.);
#353=VECTOR('',#1105,10.);
#354=VECTOR('',#1106,10.);
#355=VECTOR('',#1109,10.);
#356=VECTOR('',#1112,10.);
#357=VECTOR('',#1117,10.);
#358=VECTOR('',#1118,10.);
#359=VECTOR('',#1121,10.);
#360=VECTOR('',#1124,10.);
#361=VECTOR('',#1129,10.);
#362=VECTOR('',#1130,10.);
#363=VECTOR('',#1133,10.);
#364=VECTOR('',#1136,10.);
#365=VECTOR('',#1141,10.);
#366=VECTOR('',#1142,10.);
#367=VECTOR('',#1145,10.);
#368=VECTOR('',#1148,10.);
#369=VECTOR('',#1153,10.);
#370=VECTOR('',#1154,10.);
#371=VECTOR('',#1157,10.);
#372=VECTOR('',#1160,10.);
#373=VECTOR('',#1165,10.);
#374=VECTOR('',#1166,10.);
#375=VECTOR('',#1169,10.);
#376=VECTOR('',#1172,10.);
#377=CIRCLE('',#876,1.36019615059217);
#378=CIRCLE('',#877,1.36019615059217);
#379=CIRCLE('',#879,1.36019615059217);
#380=CIRCLE('',#880,1.36019615059217);
#381=CIRCLE('',#884,0.499999988824125);
#382=CIRCLE('',#885,0.499999988824125);
#383=CIRCLE('',#887,1.54194882877444);
#384=CIRCLE('',#888,1.54194882877444);
#385=CIRCLE('',#890,1.54194882877444);
#386=CIRCLE('',#891,1.54194882877444);
#387=CIRCLE('',#893,0.499999988824125);
#388=CIRCLE('',#894,0.499999988824125);
#389=CIRCLE('',#898,1.37218906555173);
#390=CIRCLE('',#899,1.37218906555173);
#391=CIRCLE('',#901,1.37218906555173);
#392=CIRCLE('',#902,1.37218906555173);
#393=CIRCLE('',#906,1.30095551555357);
#394=CIRCLE('',#907,1.30095551555357);
#395=CIRCLE('',#909,1.30095551555357);
#396=CIRCLE('',#910,1.30095551555357);
#397=VERTEX_POINT('',#1177);
#398=VERTEX_POINT('',#1179);
#399=VERTEX_POINT('',#1183);
#400=VERTEX_POINT('',#1185);
#401=VERTEX_POINT('',#1191);
#402=VERTEX_POINT('',#1192);
#403=VERTEX_POINT('',#1194);
#404=VERTEX_POINT('',#1196);
#405=VERTEX_POINT('',#1203);
#406=VERTEX_POINT('',#1204);
#407=VERTEX_POINT('',#1206);
#408=VERTEX_POINT('',#1208);
#409=VERTEX_POINT('',#1217);
#410=VERTEX_POINT('',#1219);
#411=VERTEX_POINT('',#1223);
#412=VERTEX_POINT('',#1225);
#413=VERTEX_POINT('',#1231);
#414=VERTEX_POINT('',#1233);
#415=VERTEX_POINT('',#1237);
#416=VERTEX_POINT('',#1239);
#417=VERTEX_POINT('',#1245);
#418=VERTEX_POINT('',#1246);
#419=VERTEX_POINT('',#1248);
#420=VERTEX_POINT('',#1250);
#421=VERTEX_POINT('',#1253);
#422=VERTEX_POINT('',#1254);
#423=VERTEX_POINT('',#1256);
#424=VERTEX_POINT('',#1258);
#425=VERTEX_POINT('',#1261);
#426=VERTEX_POINT('',#1262);
#427=VERTEX_POINT('',#1264);
#428=VERTEX_POINT('',#1266);
#429=VERTEX_POINT('',#1269);
#430=VERTEX_POINT('',#1270);
#431=VERTEX_POINT('',#1272);
#432=VERTEX_POINT('',#1274);
#433=VERTEX_POINT('',#1277);
#434=VERTEX_POINT('',#1278);
#435=VERTEX_POINT('',#1280);
#436=VERTEX_POINT('',#1282);
#437=VERTEX_POINT('',#1285);
#438=VERTEX_POINT('',#1286);
#439=VERTEX_POINT('',#1288);
#440=VERTEX_POINT('',#1290);
#441=VERTEX_POINT('',#1293);
#442=VERTEX_POINT('',#1294);
#443=VERTEX_POINT('',#1296);
#444=VERTEX_POINT('',#1298);
#445=VERTEX_POINT('',#1302);
#446=VERTEX_POINT('',#1303);
#447=VERTEX_POINT('',#1305);
#448=VERTEX_POINT('',#1307);
#449=VERTEX_POINT('',#1310);
#450=VERTEX_POINT('',#1311);
#451=VERTEX_POINT('',#1313);
#452=VERTEX_POINT('',#1315);
#453=VERTEX_POINT('',#1318);
#454=VERTEX_POINT('',#1319);
#455=VERTEX_POINT('',#1321);
#456=VERTEX_POINT('',#1323);
#457=VERTEX_POINT('',#1326);
#458=VERTEX_POINT('',#1327);
#459=VERTEX_POINT('',#1329);
#460=VERTEX_POINT('',#1331);
#461=VERTEX_POINT('',#1334);
#462=VERTEX_POINT('',#1335);
#463=VERTEX_POINT('',#1337);
#464=VERTEX_POINT('',#1339);
#465=VERTEX_POINT('',#1342);
#466=VERTEX_POINT('',#1343);
#467=VERTEX_POINT('',#1345);
#468=VERTEX_POINT('',#1347);
#469=VERTEX_POINT('',#1350);
#470=VERTEX_POINT('',#1351);
#471=VERTEX_POINT('',#1353);
#472=VERTEX_POINT('',#1355);
#473=EDGE_CURVE('',#397,#397,#377,.T.);
#474=EDGE_CURVE('',#397,#398,#189,.T.);
#475=EDGE_CURVE('',#398,#398,#378,.T.);
#476=EDGE_CURVE('',#399,#399,#379,.F.);
#477=EDGE_CURVE('',#399,#400,#190,.T.);
#478=EDGE_CURVE('',#400,#400,#380,.T.);
#479=EDGE_CURVE('',#401,#402,#381,.T.);
#480=EDGE_CURVE('',#403,#401,#191,.T.);
#481=EDGE_CURVE('',#404,#403,#382,.T.);
#482=EDGE_CURVE('',#404,#402,#192,.T.);
#483=EDGE_CURVE('',#402,#401,#383,.T.);
#484=EDGE_CURVE('',#404,#403,#384,.T.);
#485=EDGE_CURVE('',#405,#406,#385,.T.);
#486=EDGE_CURVE('',#405,#407,#193,.T.);
#487=EDGE_CURVE('',#407,#408,#386,.F.);
#488=EDGE_CURVE('',#406,#408,#194,.T.);
#489=EDGE_CURVE('',#406,#405,#387,.T.);
#490=EDGE_CURVE('',#408,#407,#388,.F.);
#491=EDGE_CURVE('',#409,#409,#389,.T.);
#492=EDGE_CURVE('',#409,#410,#195,.T.);
#493=EDGE_CURVE('',#410,#410,#390,.T.);
#494=EDGE_CURVE('',#411,#411,#391,.F.);
#495=EDGE_CURVE('',#411,#412,#196,.T.);
#496=EDGE_CURVE('',#412,#412,#392,.T.);
#497=EDGE_CURVE('',#413,#413,#393,.T.);
#498=EDGE_CURVE('',#413,#414,#197,.T.);
#499=EDGE_CURVE('',#414,#414,#394,.T.);
#500=EDGE_CURVE('',#415,#415,#395,.F.);
#501=EDGE_CURVE('',#415,#416,#198,.T.);
#502=EDGE_CURVE('',#416,#416,#396,.T.);
#503=EDGE_CURVE('',#417,#418,#199,.T.);
#504=EDGE_CURVE('',#418,#419,#200,.T.);
#505=EDGE_CURVE('',#419,#420,#201,.T.);
#506=EDGE_CURVE('',#420,#417,#202,.T.);
#507=EDGE_CURVE('',#421,#422,#203,.T.);
#508=EDGE_CURVE('',#422,#423,#204,.T.);
#509=EDGE_CURVE('',#423,#424,#205,.T.);
#510=EDGE_CURVE('',#424,#421,#206,.T.);
#511=EDGE_CURVE('',#425,#426,#207,.T.);
#512=EDGE_CURVE('',#426,#427,#208,.T.);
#513=EDGE_CURVE('',#427,#428,#209,.T.);
#514=EDGE_CURVE('',#428,#425,#210,.T.);
#515=EDGE_CURVE('',#429,#430,#211,.T.);
#516=EDGE_CURVE('',#430,#431,#212,.T.);
#517=EDGE_CURVE('',#431,#432,#213,.T.);
#518=EDGE_CURVE('',#432,#429,#214,.T.);
#519=EDGE_CURVE('',#433,#434,#215,.T.);
#520=EDGE_CURVE('',#434,#435,#216,.T.);
#521=EDGE_CURVE('',#435,#436,#217,.T.);
#522=EDGE_CURVE('',#436,#433,#218,.T.);
#523=EDGE_CURVE('',#437,#438,#219,.T.);
#524=EDGE_CURVE('',#438,#439,#220,.T.);
#525=EDGE_CURVE('',#439,#440,#221,.T.);
#526=EDGE_CURVE('',#440,#437,#222,.T.);
#527=EDGE_CURVE('',#441,#442,#223,.T.);
#528=EDGE_CURVE('',#442,#443,#224,.T.);
#529=EDGE_CURVE('',#443,#444,#225,.T.);
#530=EDGE_CURVE('',#444,#441,#226,.T.);
#531=EDGE_CURVE('',#445,#446,#227,.T.);
#532=EDGE_CURVE('',#446,#447,#228,.T.);
#533=EDGE_CURVE('',#447,#448,#229,.T.);
#534=EDGE_CURVE('',#448,#445,#230,.T.);
#535=EDGE_CURVE('',#449,#450,#231,.T.);
#536=EDGE_CURVE('',#451,#449,#232,.T.);
#537=EDGE_CURVE('',#452,#451,#233,.T.);
#538=EDGE_CURVE('',#450,#452,#234,.T.);
#539=EDGE_CURVE('',#453,#454,#235,.T.);
#540=EDGE_CURVE('',#455,#453,#236,.T.);
#541=EDGE_CURVE('',#456,#455,#237,.T.);
#542=EDGE_CURVE('',#454,#456,#238,.T.);
#543=EDGE_CURVE('',#457,#458,#239,.T.);
#544=EDGE_CURVE('',#459,#457,#240,.T.);
#545=EDGE_CURVE('',#460,#459,#241,.T.);
#546=EDGE_CURVE('',#458,#460,#242,.T.);
#547=EDGE_CURVE('',#461,#462,#243,.T.);
#548=EDGE_CURVE('',#463,#461,#244,.T.);
#549=EDGE_CURVE('',#464,#463,#245,.T.);
#550=EDGE_CURVE('',#462,#464,#246,.T.);
#551=EDGE_CURVE('',#465,#466,#247,.T.);
#552=EDGE_CURVE('',#467,#465,#248,.T.);
#553=EDGE_CURVE('',#468,#467,#249,.T.);
#554=EDGE_CURVE('',#466,#468,#250,.T.);
#555=EDGE_CURVE('',#469,#470,#251,.T.);
#556=EDGE_CURVE('',#471,#469,#252,.T.);
#557=EDGE_CURVE('',#472,#471,#253,.T.);
#558=EDGE_CURVE('',#470,#472,#254,.T.);
#559=EDGE_CURVE('',#449,#441,#255,.T.);
#560=EDGE_CURVE('',#451,#444,#256,.T.);
#561=EDGE_CURVE('',#452,#443,#257,.T.);
#562=EDGE_CURVE('',#450,#442,#258,.T.);
#563=EDGE_CURVE('',#453,#437,#259,.T.);
#564=EDGE_CURVE('',#455,#440,#260,.T.);
#565=EDGE_CURVE('',#456,#439,#261,.T.);
#566=EDGE_CURVE('',#454,#438,#262,.T.);
#567=EDGE_CURVE('',#457,#433,#263,.T.);
#568=EDGE_CURVE('',#459,#436,#264,.T.);
#569=EDGE_CURVE('',#460,#435,#265,.T.);
#570=EDGE_CURVE('',#458,#434,#266,.T.);
#571=EDGE_CURVE('',#461,#429,#267,.T.);
#572=EDGE_CURVE('',#463,#432,#268,.T.);
#573=EDGE_CURVE('',#464,#431,#269,.T.);
#574=EDGE_CURVE('',#462,#430,#270,.T.);
#575=EDGE_CURVE('',#465,#425,#271,.T.);
#576=EDGE_CURVE('',#467,#428,#272,.T.);
#577=EDGE_CURVE('',#468,#427,#273,.T.);
#578=EDGE_CURVE('',#466,#426,#274,.T.);
#579=EDGE_CURVE('',#469,#421,#275,.T.);
#580=EDGE_CURVE('',#471,#424,#276,.T.);
#581=EDGE_CURVE('',#472,#423,#277,.T.);
#582=EDGE_CURVE('',#470,#422,#278,.T.);
#583=EDGE_CURVE('',#446,#417,#279,.T.);
#584=EDGE_CURVE('',#447,#420,#280,.T.);
#585=EDGE_CURVE('',#448,#419,#281,.T.);
#586=EDGE_CURVE('',#445,#418,#282,.T.);
#587=ORIENTED_EDGE('',*,*,#473,.F.);
#588=ORIENTED_EDGE('',*,*,#474,.T.);
#589=ORIENTED_EDGE('',*,*,#475,.T.);
#590=ORIENTED_EDGE('',*,*,#474,.F.);
#591=ORIENTED_EDGE('',*,*,#476,.T.);
#592=ORIENTED_EDGE('',*,*,#477,.T.);
#593=ORIENTED_EDGE('',*,*,#478,.F.);
#594=ORIENTED_EDGE('',*,*,#477,.F.);
#595=ORIENTED_EDGE('',*,*,#475,.F.);
#596=ORIENTED_EDGE('',*,*,#476,.F.);
#597=ORIENTED_EDGE('',*,*,#479,.F.);
#598=ORIENTED_EDGE('',*,*,#480,.F.);
#599=ORIENTED_EDGE('',*,*,#481,.F.);
#600=ORIENTED_EDGE('',*,*,#482,.T.);
#601=ORIENTED_EDGE('',*,*,#483,.F.);
#602=ORIENTED_EDGE('',*,*,#482,.F.);
#603=ORIENTED_EDGE('',*,*,#484,.T.);
#604=ORIENTED_EDGE('',*,*,#480,.T.);
#605=ORIENTED_EDGE('',*,*,#485,.F.);
#606=ORIENTED_EDGE('',*,*,#486,.T.);
#607=ORIENTED_EDGE('',*,*,#487,.T.);
#608=ORIENTED_EDGE('',*,*,#488,.F.);
#609=ORIENTED_EDGE('',*,*,#489,.F.);
#610=ORIENTED_EDGE('',*,*,#488,.T.);
#611=ORIENTED_EDGE('',*,*,#490,.T.);
#612=ORIENTED_EDGE('',*,*,#486,.F.);
#613=ORIENTED_EDGE('',*,*,#484,.F.);
#614=ORIENTED_EDGE('',*,*,#481,.T.);
#615=ORIENTED_EDGE('',*,*,#490,.F.);
#616=ORIENTED_EDGE('',*,*,#487,.F.);
#617=ORIENTED_EDGE('',*,*,#491,.F.);
#618=ORIENTED_EDGE('',*,*,#492,.T.);
#619=ORIENTED_EDGE('',*,*,#493,.T.);
#620=ORIENTED_EDGE('',*,*,#492,.F.);
#621=ORIENTED_EDGE('',*,*,#494,.T.);
#622=ORIENTED_EDGE('',*,*,#495,.T.);
#623=ORIENTED_EDGE('',*,*,#496,.F.);
#624=ORIENTED_EDGE('',*,*,#495,.F.);
#625=ORIENTED_EDGE('',*,*,#493,.F.);
#626=ORIENTED_EDGE('',*,*,#494,.F.);
#627=ORIENTED_EDGE('',*,*,#497,.F.);
#628=ORIENTED_EDGE('',*,*,#498,.T.);
#629=ORIENTED_EDGE('',*,*,#499,.T.);
#630=ORIENTED_EDGE('',*,*,#498,.F.);
#631=ORIENTED_EDGE('',*,*,#500,.T.);
#632=ORIENTED_EDGE('',*,*,#501,.T.);
#633=ORIENTED_EDGE('',*,*,#502,.F.);
#634=ORIENTED_EDGE('',*,*,#501,.F.);
#635=ORIENTED_EDGE('',*,*,#499,.F.);
#636=ORIENTED_EDGE('',*,*,#500,.F.);
#637=ORIENTED_EDGE('',*,*,#503,.T.);
#638=ORIENTED_EDGE('',*,*,#504,.T.);
#639=ORIENTED_EDGE('',*,*,#505,.T.);
#640=ORIENTED_EDGE('',*,*,#506,.T.);
#641=ORIENTED_EDGE('',*,*,#485,.T.);
#642=ORIENTED_EDGE('',*,*,#489,.T.);
#643=ORIENTED_EDGE('',*,*,#507,.T.);
#644=ORIENTED_EDGE('',*,*,#508,.T.);
#645=ORIENTED_EDGE('',*,*,#509,.T.);
#646=ORIENTED_EDGE('',*,*,#510,.T.);
#647=ORIENTED_EDGE('',*,*,#511,.T.);
#648=ORIENTED_EDGE('',*,*,#512,.T.);
#649=ORIENTED_EDGE('',*,*,#513,.T.);
#650=ORIENTED_EDGE('',*,*,#514,.T.);
#651=ORIENTED_EDGE('',*,*,#515,.T.);
#652=ORIENTED_EDGE('',*,*,#516,.T.);
#653=ORIENTED_EDGE('',*,*,#517,.T.);
#654=ORIENTED_EDGE('',*,*,#518,.T.);
#655=ORIENTED_EDGE('',*,*,#519,.T.);
#656=ORIENTED_EDGE('',*,*,#520,.T.);
#657=ORIENTED_EDGE('',*,*,#521,.T.);
#658=ORIENTED_EDGE('',*,*,#522,.T.);
#659=ORIENTED_EDGE('',*,*,#523,.T.);
#660=ORIENTED_EDGE('',*,*,#524,.T.);
#661=ORIENTED_EDGE('',*,*,#525,.T.);
#662=ORIENTED_EDGE('',*,*,#526,.T.);
#663=ORIENTED_EDGE('',*,*,#527,.T.);
#664=ORIENTED_EDGE('',*,*,#528,.T.);
#665=ORIENTED_EDGE('',*,*,#529,.T.);
#666=ORIENTED_EDGE('',*,*,#530,.T.);
#667=ORIENTED_EDGE('',*,*,#502,.T.);
#668=ORIENTED_EDGE('',*,*,#496,.T.);
#669=ORIENTED_EDGE('',*,*,#478,.T.);
#670=ORIENTED_EDGE('',*,*,#531,.T.);
#671=ORIENTED_EDGE('',*,*,#532,.T.);
#672=ORIENTED_EDGE('',*,*,#533,.T.);
#673=ORIENTED_EDGE('',*,*,#534,.T.);
#674=ORIENTED_EDGE('',*,*,#483,.T.);
#675=ORIENTED_EDGE('',*,*,#479,.T.);
#676=ORIENTED_EDGE('',*,*,#535,.F.);
#677=ORIENTED_EDGE('',*,*,#536,.F.);
#678=ORIENTED_EDGE('',*,*,#537,.F.);
#679=ORIENTED_EDGE('',*,*,#538,.F.);
#680=ORIENTED_EDGE('',*,*,#539,.F.);
#681=ORIENTED_EDGE('',*,*,#540,.F.);
#682=ORIENTED_EDGE('',*,*,#541,.F.);
#683=ORIENTED_EDGE('',*,*,#542,.F.);
#684=ORIENTED_EDGE('',*,*,#543,.F.);
#685=ORIENTED_EDGE('',*,*,#544,.F.);
#686=ORIENTED_EDGE('',*,*,#545,.F.);
#687=ORIENTED_EDGE('',*,*,#546,.F.);
#688=ORIENTED_EDGE('',*,*,#547,.F.);
#689=ORIENTED_EDGE('',*,*,#548,.F.);
#690=ORIENTED_EDGE('',*,*,#549,.F.);
#691=ORIENTED_EDGE('',*,*,#550,.F.);
#692=ORIENTED_EDGE('',*,*,#551,.F.);
#693=ORIENTED_EDGE('',*,*,#552,.F.);
#694=ORIENTED_EDGE('',*,*,#553,.F.);
#695=ORIENTED_EDGE('',*,*,#554,.F.);
#696=ORIENTED_EDGE('',*,*,#555,.F.);
#697=ORIENTED_EDGE('',*,*,#556,.F.);
#698=ORIENTED_EDGE('',*,*,#557,.F.);
#699=ORIENTED_EDGE('',*,*,#558,.F.);
#700=ORIENTED_EDGE('',*,*,#497,.T.);
#701=ORIENTED_EDGE('',*,*,#491,.T.);
#702=ORIENTED_EDGE('',*,*,#473,.T.);
#703=ORIENTED_EDGE('',*,*,#536,.T.);
#704=ORIENTED_EDGE('',*,*,#559,.T.);
#705=ORIENTED_EDGE('',*,*,#530,.F.);
#706=ORIENTED_EDGE('',*,*,#560,.F.);
#707=ORIENTED_EDGE('',*,*,#537,.T.);
#708=ORIENTED_EDGE('',*,*,#560,.T.);
#709=ORIENTED_EDGE('',*,*,#529,.F.);
#710=ORIENTED_EDGE('',*,*,#561,.F.);
#711=ORIENTED_EDGE('',*,*,#538,.T.);
#712=ORIENTED_EDGE('',*,*,#561,.T.);
#713=ORIENTED_EDGE('',*,*,#528,.F.);
#714=ORIENTED_EDGE('',*,*,#562,.F.);
#715=ORIENTED_EDGE('',*,*,#535,.T.);
#716=ORIENTED_EDGE('',*,*,#562,.T.);
#717=ORIENTED_EDGE('',*,*,#527,.F.);
#718=ORIENTED_EDGE('',*,*,#559,.F.);
#719=ORIENTED_EDGE('',*,*,#540,.T.);
#720=ORIENTED_EDGE('',*,*,#563,.T.);
#721=ORIENTED_EDGE('',*,*,#526,.F.);
#722=ORIENTED_EDGE('',*,*,#564,.F.);
#723=ORIENTED_EDGE('',*,*,#541,.T.);
#724=ORIENTED_EDGE('',*,*,#564,.T.);
#725=ORIENTED_EDGE('',*,*,#525,.F.);
#726=ORIENTED_EDGE('',*,*,#565,.F.);
#727=ORIENTED_EDGE('',*,*,#542,.T.);
#728=ORIENTED_EDGE('',*,*,#565,.T.);
#729=ORIENTED_EDGE('',*,*,#524,.F.);
#730=ORIENTED_EDGE('',*,*,#566,.F.);
#731=ORIENTED_EDGE('',*,*,#539,.T.);
#732=ORIENTED_EDGE('',*,*,#566,.T.);
#733=ORIENTED_EDGE('',*,*,#523,.F.);
#734=ORIENTED_EDGE('',*,*,#563,.F.);
#735=ORIENTED_EDGE('',*,*,#544,.T.);
#736=ORIENTED_EDGE('',*,*,#567,.T.);
#737=ORIENTED_EDGE('',*,*,#522,.F.);
#738=ORIENTED_EDGE('',*,*,#568,.F.);
#739=ORIENTED_EDGE('',*,*,#545,.T.);
#740=ORIENTED_EDGE('',*,*,#568,.T.);
#741=ORIENTED_EDGE('',*,*,#521,.F.);
#742=ORIENTED_EDGE('',*,*,#569,.F.);
#743=ORIENTED_EDGE('',*,*,#546,.T.);
#744=ORIENTED_EDGE('',*,*,#569,.T.);
#745=ORIENTED_EDGE('',*,*,#520,.F.);
#746=ORIENTED_EDGE('',*,*,#570,.F.);
#747=ORIENTED_EDGE('',*,*,#543,.T.);
#748=ORIENTED_EDGE('',*,*,#570,.T.);
#749=ORIENTED_EDGE('',*,*,#519,.F.);
#750=ORIENTED_EDGE('',*,*,#567,.F.);
#751=ORIENTED_EDGE('',*,*,#548,.T.);
#752=ORIENTED_EDGE('',*,*,#571,.T.);
#753=ORIENTED_EDGE('',*,*,#518,.F.);
#754=ORIENTED_EDGE('',*,*,#572,.F.);
#755=ORIENTED_EDGE('',*,*,#549,.T.);
#756=ORIENTED_EDGE('',*,*,#572,.T.);
#757=ORIENTED_EDGE('',*,*,#517,.F.);
#758=ORIENTED_EDGE('',*,*,#573,.F.);
#759=ORIENTED_EDGE('',*,*,#550,.T.);
#760=ORIENTED_EDGE('',*,*,#573,.T.);
#761=ORIENTED_EDGE('',*,*,#516,.F.);
#762=ORIENTED_EDGE('',*,*,#574,.F.);
#763=ORIENTED_EDGE('',*,*,#547,.T.);
#764=ORIENTED_EDGE('',*,*,#574,.T.);
#765=ORIENTED_EDGE('',*,*,#515,.F.);
#766=ORIENTED_EDGE('',*,*,#571,.F.);
#767=ORIENTED_EDGE('',*,*,#552,.T.);
#768=ORIENTED_EDGE('',*,*,#575,.T.);
#769=ORIENTED_EDGE('',*,*,#514,.F.);
#770=ORIENTED_EDGE('',*,*,#576,.F.);
#771=ORIENTED_EDGE('',*,*,#553,.T.);
#772=ORIENTED_EDGE('',*,*,#576,.T.);
#773=ORIENTED_EDGE('',*,*,#513,.F.);
#774=ORIENTED_EDGE('',*,*,#577,.F.);
#775=ORIENTED_EDGE('',*,*,#554,.T.);
#776=ORIENTED_EDGE('',*,*,#577,.T.);
#777=ORIENTED_EDGE('',*,*,#512,.F.);
#778=ORIENTED_EDGE('',*,*,#578,.F.);
#779=ORIENTED_EDGE('',*,*,#551,.T.);
#780=ORIENTED_EDGE('',*,*,#578,.T.);
#781=ORIENTED_EDGE('',*,*,#511,.F.);
#782=ORIENTED_EDGE('',*,*,#575,.F.);
#783=ORIENTED_EDGE('',*,*,#556,.T.);
#784=ORIENTED_EDGE('',*,*,#579,.T.);
#785=ORIENTED_EDGE('',*,*,#510,.F.);
#786=ORIENTED_EDGE('',*,*,#580,.F.);
#787=ORIENTED_EDGE('',*,*,#557,.T.);
#788=ORIENTED_EDGE('',*,*,#580,.T.);
#789=ORIENTED_EDGE('',*,*,#509,.F.);
#790=ORIENTED_EDGE('',*,*,#581,.F.);
#791=ORIENTED_EDGE('',*,*,#558,.T.);
#792=ORIENTED_EDGE('',*,*,#581,.T.);
#793=ORIENTED_EDGE('',*,*,#508,.F.);
#794=ORIENTED_EDGE('',*,*,#582,.F.);
#795=ORIENTED_EDGE('',*,*,#555,.T.);
#796=ORIENTED_EDGE('',*,*,#582,.T.);
#797=ORIENTED_EDGE('',*,*,#507,.F.);
#798=ORIENTED_EDGE('',*,*,#579,.F.);
#799=ORIENTED_EDGE('',*,*,#532,.F.);
#800=ORIENTED_EDGE('',*,*,#583,.T.);
#801=ORIENTED_EDGE('',*,*,#506,.F.);
#802=ORIENTED_EDGE('',*,*,#584,.F.);
#803=ORIENTED_EDGE('',*,*,#533,.F.);
#804=ORIENTED_EDGE('',*,*,#584,.T.);
#805=ORIENTED_EDGE('',*,*,#505,.F.);
#806=ORIENTED_EDGE('',*,*,#585,.F.);
#807=ORIENTED_EDGE('',*,*,#534,.F.);
#808=ORIENTED_EDGE('',*,*,#585,.T.);
#809=ORIENTED_EDGE('',*,*,#504,.F.);
#810=ORIENTED_EDGE('',*,*,#586,.F.);
#811=ORIENTED_EDGE('',*,*,#531,.F.);
#812=ORIENTED_EDGE('',*,*,#586,.T.);
#813=ORIENTED_EDGE('',*,*,#503,.F.);
#814=ORIENTED_EDGE('',*,*,#583,.F.);
#815=CYLINDRICAL_SURFACE('',#875,1.36019615059217);
#816=CYLINDRICAL_SURFACE('',#878,1.36019615059217);
#817=CYLINDRICAL_SURFACE('',#883,0.499999988824125);
#818=CYLINDRICAL_SURFACE('',#886,1.54194882877444);
#819=CYLINDRICAL_SURFACE('',#889,1.54194882877444);
#820=CYLINDRICAL_SURFACE('',#892,0.499999988824125);
#821=CYLINDRICAL_SURFACE('',#897,1.37218906555173);
#822=CYLINDRICAL_SURFACE('',#900,1.37218906555173);
#823=CYLINDRICAL_SURFACE('',#905,1.30095551555357);
#824=CYLINDRICAL_SURFACE('',#908,1.30095551555357);
#825=ADVANCED_FACE('',(#73),#815,.T.);
#826=ADVANCED_FACE('',(#74),#816,.T.);
#827=ADVANCED_FACE('',(#75),#35,.F.);
#828=ADVANCED_FACE('',(#76),#36,.T.);
#829=ADVANCED_FACE('',(#77),#817,.F.);
#830=ADVANCED_FACE('',(#78),#818,.T.);
#831=ADVANCED_FACE('',(#79),#819,.T.);
#832=ADVANCED_FACE('',(#80),#820,.F.);
#833=ADVANCED_FACE('',(#81),#37,.F.);
#834=ADVANCED_FACE('',(#82),#38,.T.);
#835=ADVANCED_FACE('',(#83),#821,.T.);
#836=ADVANCED_FACE('',(#84),#822,.T.);
#837=ADVANCED_FACE('',(#85),#39,.F.);
#838=ADVANCED_FACE('',(#86),#40,.T.);
#839=ADVANCED_FACE('',(#87),#823,.T.);
#840=ADVANCED_FACE('',(#88),#824,.T.);
#841=ADVANCED_FACE('',(#89),#41,.F.);
#842=ADVANCED_FACE('',(#90),#42,.T.);
#843=ADVANCED_FACE('',(#91,#15,#16,#17,#18,#19,#20,#21,#22,#23,#24),#43,
 .T.);
#844=ADVANCED_FACE('',(#92,#25,#26,#27,#28,#29,#30,#31,#32,#33,#34),#44,
 .F.);
#845=ADVANCED_FACE('',(#93),#45,.T.);
#846=ADVANCED_FACE('',(#94),#46,.T.);
#847=ADVANCED_FACE('',(#95),#47,.T.);
#848=ADVANCED_FACE('',(#96),#48,.T.);
#849=ADVANCED_FACE('',(#97),#49,.T.);
#850=ADVANCED_FACE('',(#98),#50,.T.);
#851=ADVANCED_FACE('',(#99),#51,.T.);
#852=ADVANCED_FACE('',(#100),#52,.T.);
#853=ADVANCED_FACE('',(#101),#53,.T.);
#854=ADVANCED_FACE('',(#102),#54,.T.);
#855=ADVANCED_FACE('',(#103),#55,.T.);
#856=ADVANCED_FACE('',(#104),#56,.T.);
#857=ADVANCED_FACE('',(#105),#57,.T.);
#858=ADVANCED_FACE('',(#106),#58,.T.);
#859=ADVANCED_FACE('',(#107),#59,.T.);
#860=ADVANCED_FACE('',(#108),#60,.T.);
#861=ADVANCED_FACE('',(#109),#61,.T.);
#862=ADVANCED_FACE('',(#110),#62,.T.);
#863=ADVANCED_FACE('',(#111),#63,.T.);
#864=ADVANCED_FACE('',(#112),#64,.T.);
#865=ADVANCED_FACE('',(#113),#65,.T.);
#866=ADVANCED_FACE('',(#114),#66,.T.);
#867=ADVANCED_FACE('',(#115),#67,.T.);
#868=ADVANCED_FACE('',(#116),#68,.T.);
#869=ADVANCED_FACE('',(#117),#69,.T.);
#870=ADVANCED_FACE('',(#118),#70,.T.);
#871=ADVANCED_FACE('',(#119),#71,.T.);
#872=ADVANCED_FACE('',(#120),#72,.T.);
#873=CLOSED_SHELL('',(#825,#826,#827,#828,#829,#830,#831,#832,#833,#834,
#835,#836,#837,#838,#839,#840,#841,#842,#843,#844,#845,#846,#847,#848,#849,
#850,#851,#852,#853,#854,#855,#856,#857,#858,#859,#860,#861,#862,#863,#864,
#865,#866,#867,#868,#869,#870,#871,#872));
#874=AXIS2_PLACEMENT_3D('',#1175,#943,#944);
#875=AXIS2_PLACEMENT_3D('',#1176,#945,#946);
#876=AXIS2_PLACEMENT_3D('',#1178,#947,#948);
#877=AXIS2_PLACEMENT_3D('',#1181,#950,#951);
#878=AXIS2_PLACEMENT_3D('',#1182,#952,#953);
#879=AXIS2_PLACEMENT_3D('',#1184,#954,#955);
#880=AXIS2_PLACEMENT_3D('',#1187,#957,#958);
#881=AXIS2_PLACEMENT_3D('',#1188,#959,#960);
#882=AXIS2_PLACEMENT_3D('',#1189,#961,#962);
#883=AXIS2_PLACEMENT_3D('',#1190,#963,#964);
#884=AXIS2_PLACEMENT_3D('',#1193,#965,#966);
#885=AXIS2_PLACEMENT_3D('',#1197,#968,#969);
#886=AXIS2_PLACEMENT_3D('',#1199,#971,#972);
#887=AXIS2_PLACEMENT_3D('',#1200,#973,#974);
#888=AXIS2_PLACEMENT_3D('',#1201,#975,#976);
#889=AXIS2_PLACEMENT_3D('',#1202,#977,#978);
#890=AXIS2_PLACEMENT_3D('',#1205,#979,#980);
#891=AXIS2_PLACEMENT_3D('',#1209,#982,#983);
#892=AXIS2_PLACEMENT_3D('',#1211,#985,#986);
#893=AXIS2_PLACEMENT_3D('',#1212,#987,#988);
#894=AXIS2_PLACEMENT_3D('',#1213,#989,#990);
#895=AXIS2_PLACEMENT_3D('',#1214,#991,#992);
#896=AXIS2_PLACEMENT_3D('',#1215,#993,#994);
#897=AXIS2_PLACEMENT_3D('',#1216,#995,#996);
#898=AXIS2_PLACEMENT_3D('',#1218,#997,#998);
#899=AXIS2_PLACEMENT_3D('',#1221,#1000,#1001);
#900=AXIS2_PLACEMENT_3D('',#1222,#1002,#1003);
#901=AXIS2_PLACEMENT_3D('',#1224,#1004,#1005);
#902=AXIS2_PLACEMENT_3D('',#1227,#1007,#1008);
#903=AXIS2_PLACEMENT_3D('',#1228,#1009,#1010);
#904=AXIS2_PLACEMENT_3D('',#1229,#1011,#1012);
#905=AXIS2_PLACEMENT_3D('',#1230,#1013,#1014);
#906=AXIS2_PLACEMENT_3D('',#1232,#1015,#1016);
#907=AXIS2_PLACEMENT_3D('',#1235,#1018,#1019);
#908=AXIS2_PLACEMENT_3D('',#1236,#1020,#1021);
#909=AXIS2_PLACEMENT_3D('',#1238,#1022,#1023);
#910=AXIS2_PLACEMENT_3D('',#1241,#1025,#1026);
#911=AXIS2_PLACEMENT_3D('',#1242,#1027,#1028);
#912=AXIS2_PLACEMENT_3D('',#1243,#1029,#1030);
#913=AXIS2_PLACEMENT_3D('',#1244,#1031,#1032);
#914=AXIS2_PLACEMENT_3D('',#1301,#1061,#1062);
#915=AXIS2_PLACEMENT_3D('',#1358,#1091,#1092);
#916=AXIS2_PLACEMENT_3D('',#1361,#1095,#1096);
#917=AXIS2_PLACEMENT_3D('',#1363,#1098,#1099);
#918=AXIS2_PLACEMENT_3D('',#1365,#1101,#1102);
#919=AXIS2_PLACEMENT_3D('',#1366,#1103,#1104);
#920=AXIS2_PLACEMENT_3D('',#1369,#1107,#1108);
#921=AXIS2_PLACEMENT_3D('',#1371,#1110,#1111);
#922=AXIS2_PLACEMENT_3D('',#1373,#1113,#1114);
#923=AXIS2_PLACEMENT_3D('',#1374,#1115,#1116);
#924=AXIS2_PLACEMENT_3D('',#1377,#1119,#1120);
#925=AXIS2_PLACEMENT_3D('',#1379,#1122,#1123);
#926=AXIS2_PLACEMENT_3D('',#1381,#1125,#1126);
#927=AXIS2_PLACEMENT_3D('',#1382,#1127,#1128);
#928=AXIS2_PLACEMENT_3D('',#1385,#1131,#1132);
#929=AXIS2_PLACEMENT_3D('',#1387,#1134,#1135);
#930=AXIS2_PLACEMENT_3D('',#1389,#1137,#1138);
#931=AXIS2_PLACEMENT_3D('',#1390,#1139,#1140);
#932=AXIS2_PLACEMENT_3D('',#1393,#1143,#1144);
#933=AXIS2_PLACEMENT_3D('',#1395,#1146,#1147);
#934=AXIS2_PLACEMENT_3D('',#1397,#1149,#1150);
#935=AXIS2_PLACEMENT_3D('',#1398,#1151,#1152);
#936=AXIS2_PLACEMENT_3D('',#1401,#1155,#1156);
#937=AXIS2_PLACEMENT_3D('',#1403,#1158,#1159);
#938=AXIS2_PLACEMENT_3D('',#1405,#1161,#1162);
#939=AXIS2_PLACEMENT_3D('',#1406,#1163,#1164);
#940=AXIS2_PLACEMENT_3D('',#1409,#1167,#1168);
#941=AXIS2_PLACEMENT_3D('',#1411,#1170,#1171);
#942=AXIS2_PLACEMENT_3D('',#1413,#1173,#1174);
#943=DIRECTION('axis',(0.,0.,1.));
#944=DIRECTION('refdir',(1.,0.,0.));
#945=DIRECTION('center_axis',(0.,0.,1.));
#946=DIRECTION('ref_axis',(1.,0.,0.));
#947=DIRECTION('center_axis',(0.,0.,1.));
#948=DIRECTION('ref_axis',(1.,0.,0.));
#949=DIRECTION('',(0.,0.,-1.));
#950=DIRECTION('center_axis',(0.,0.,1.));
#951=DIRECTION('ref_axis',(1.,0.,0.));
#952=DIRECTION('center_axis',(0.,0.,1.));
#953=DIRECTION('ref_axis',(1.,0.,0.));
#954=DIRECTION('center_axis',(0.,0.,1.));
#955=DIRECTION('ref_axis',(1.,0.,0.));
#956=DIRECTION('',(0.,0.,-1.));
#957=DIRECTION('center_axis',(0.,0.,-1.));
#958=DIRECTION('ref_axis',(1.,0.,0.));
#959=DIRECTION('center_axis',(0.,0.,1.));
#960=DIRECTION('ref_axis',(1.,0.,0.));
#961=DIRECTION('center_axis',(0.,0.,1.));
#962=DIRECTION('ref_axis',(1.,0.,0.));
#963=DIRECTION('center_axis',(0.,0.,1.));
#964=DIRECTION('ref_axis',(-0.899995652586104,-0.435898870526311,0.));
#965=DIRECTION('center_axis',(0.,0.,-1.));
#966=DIRECTION('ref_axis',(-0.899995652586104,-0.435898870526311,0.));
#967=DIRECTION('',(0.,0.,1.));
#968=DIRECTION('center_axis',(0.,0.,1.));
#969=DIRECTION('ref_axis',(-0.899995652586104,-0.435898870526311,0.));
#970=DIRECTION('',(0.,0.,1.));
#971=DIRECTION('center_axis',(0.,0.,1.));
#972=DIRECTION('ref_axis',(0.734803905180261,-0.678279603800555,0.));
#973=DIRECTION('center_axis',(0.,0.,1.));
#974=DIRECTION('ref_axis',(1.,0.,0.));
#975=DIRECTION('center_axis',(0.,0.,1.));
#976=DIRECTION('ref_axis',(1.,0.,0.));
#977=DIRECTION('center_axis',(0.,0.,1.));
#978=DIRECTION('ref_axis',(0.734803905180261,-0.678279603800555,0.));
#979=DIRECTION('center_axis',(0.,0.,-1.));
#980=DIRECTION('ref_axis',(1.,0.,0.));
#981=DIRECTION('',(0.,0.,1.));
#982=DIRECTION('center_axis',(0.,0.,1.));
#983=DIRECTION('ref_axis',(1.,0.,0.));
#984=DIRECTION('',(0.,0.,1.));
#985=DIRECTION('center_axis',(0.,0.,1.));
#986=DIRECTION('ref_axis',(-0.899995652586104,-0.435898870526311,0.));
#987=DIRECTION('center_axis',(0.,0.,1.));
#988=DIRECTION('ref_axis',(-0.899995652586104,-0.435898870526311,0.));
#989=DIRECTION('center_axis',(0.,0.,-1.));
#990=DIRECTION('ref_axis',(-0.899995652586104,-0.435898870526311,0.));
#991=DIRECTION('center_axis',(0.,0.,1.));
#992=DIRECTION('ref_axis',(1.,0.,0.));
#993=DIRECTION('center_axis',(0.,0.,1.));
#994=DIRECTION('ref_axis',(1.,0.,0.));
#995=DIRECTION('center_axis',(0.,0.,1.));
#996=DIRECTION('ref_axis',(1.,0.,0.));
#997=DIRECTION('center_axis',(0.,0.,1.));
#998=DIRECTION('ref_axis',(1.,0.,0.));
#999=DIRECTION('',(0.,0.,-1.));
#1000=DIRECTION('center_axis',(0.,0.,1.));
#1001=DIRECTION('ref_axis',(1.,0.,0.));
#1002=DIRECTION('center_axis',(0.,0.,1.));
#1003=DIRECTION('ref_axis',(1.,0.,0.));
#1004=DIRECTION('center_axis',(0.,0.,1.));
#1005=DIRECTION('ref_axis',(1.,0.,0.));
#1006=DIRECTION('',(0.,0.,-1.));
#1007=DIRECTION('center_axis',(0.,0.,-1.));
#1008=DIRECTION('ref_axis',(1.,0.,0.));
#1009=DIRECTION('center_axis',(0.,0.,1.));
#1010=DIRECTION('ref_axis',(1.,0.,0.));
#1011=DIRECTION('center_axis',(0.,0.,1.));
#1012=DIRECTION('ref_axis',(1.,0.,0.));
#1013=DIRECTION('center_axis',(0.,0.,1.));
#1014=DIRECTION('ref_axis',(1.,0.,0.));
#1015=DIRECTION('center_axis',(0.,0.,1.));
#1016=DIRECTION('ref_axis',(1.,0.,0.));
#1017=DIRECTION('',(0.,0.,-1.));
#1018=DIRECTION('center_axis',(0.,0.,1.));
#1019=DIRECTION('ref_axis',(1.,0.,0.));
#1020=DIRECTION('center_axis',(0.,0.,1.));
#1021=DIRECTION('ref_axis',(1.,0.,0.));
#1022=DIRECTION('center_axis',(0.,0.,1.));
#1023=DIRECTION('ref_axis',(1.,0.,0.));
#1024=DIRECTION('',(0.,0.,-1.));
#1025=DIRECTION('center_axis',(0.,0.,-1.));
#1026=DIRECTION('ref_axis',(1.,0.,0.));
#1027=DIRECTION('center_axis',(0.,0.,1.));
#1028=DIRECTION('ref_axis',(1.,0.,0.));
#1029=DIRECTION('center_axis',(0.,0.,1.));
#1030=DIRECTION('ref_axis',(1.,0.,0.));
#1031=DIRECTION('center_axis',(0.,0.,1.));
#1032=DIRECTION('ref_axis',(1.,0.,0.));
#1033=DIRECTION('',(1.,0.,0.));
#1034=DIRECTION('',(0.,1.,0.));
#1035=DIRECTION('',(-1.,0.,0.));
#1036=DIRECTION('',(0.,-1.,0.));
#1037=DIRECTION('',(1.,0.,0.));
#1038=DIRECTION('',(0.,-1.,0.));
#1039=DIRECTION('',(-1.,0.,0.));
#1040=DIRECTION('',(0.,1.,0.));
#1041=DIRECTION('',(1.,0.,0.));
#1042=DIRECTION('',(0.,-1.,0.));
#1043=DIRECTION('',(-1.,0.,0.));
#1044=DIRECTION('',(0.,1.,0.));
#1045=DIRECTION('',(1.,0.,0.));
#1046=DIRECTION('',(0.,-1.,0.));
#1047=DIRECTION('',(-1.,0.,0.));
#1048=DIRECTION('',(0.,1.,0.));
#1049=DIRECTION('',(1.,0.,0.));
#1050=DIRECTION('',(0.,-1.,0.));
#1051=DIRECTION('',(-1.,0.,0.));
#1052=DIRECTION('',(0.,1.,0.));
#1053=DIRECTION('',(1.,0.,0.));
#1054=DIRECTION('',(0.,-1.,0.));
#1055=DIRECTION('',(-1.,0.,0.));
#1056=DIRECTION('',(0.,1.,0.));
#1057=DIRECTION('',(1.,0.,0.));
#1058=DIRECTION('',(0.,-1.,0.));
#1059=DIRECTION('',(-1.,0.,0.));
#1060=DIRECTION('',(0.,1.,0.));
#1061=DIRECTION('center_axis',(0.,0.,1.));
#1062=DIRECTION('ref_axis',(1.,0.,0.));
#1063=DIRECTION('',(-1.,0.,0.));
#1064=DIRECTION('',(0.,1.,0.));
#1065=DIRECTION('',(1.,0.,0.));
#1066=DIRECTION('',(0.,-1.,0.));
#1067=DIRECTION('',(1.,0.,0.));
#1068=DIRECTION('',(0.,1.,0.));
#1069=DIRECTION('',(-1.,0.,0.));
#1070=DIRECTION('',(0.,-1.,0.));
#1071=DIRECTION('',(1.,0.,0.));
#1072=DIRECTION('',(0.,1.,0.));
#1073=DIRECTION('',(-1.,0.,0.));
#1074=DIRECTION('',(0.,-1.,0.));
#1075=DIRECTION('',(1.,0.,0.));
#1076=DIRECTION('',(0.,1.,0.));
#1077=DIRECTION('',(-1.,0.,0.));
#1078=DIRECTION('',(0.,-1.,0.));
#1079=DIRECTION('',(1.,0.,0.));
#1080=DIRECTION('',(0.,1.,0.));
#1081=DIRECTION('',(-1.,0.,0.));
#1082=DIRECTION('',(0.,-1.,0.));
#1083=DIRECTION('',(1.,0.,0.));
#1084=DIRECTION('',(0.,1.,0.));
#1085=DIRECTION('',(-1.,0.,0.));
#1086=DIRECTION('',(0.,-1.,0.));
#1087=DIRECTION('',(1.,0.,0.));
#1088=DIRECTION('',(0.,1.,0.));
#1089=DIRECTION('',(-1.,0.,0.));
#1090=DIRECTION('',(0.,-1.,0.));
#1091=DIRECTION('center_axis',(1.,0.,0.));
#1092=DIRECTION('ref_axis',(0.,1.,0.));
#1093=DIRECTION('',(0.,0.,1.));
#1094=DIRECTION('',(0.,0.,1.));
#1095=DIRECTION('center_axis',(0.,1.,0.));
#1096=DIRECTION('ref_axis',(-1.,0.,0.));
#1097=DIRECTION('',(0.,0.,1.));
#1098=DIRECTION('center_axis',(-1.,0.,0.));
#1099=DIRECTION('ref_axis',(0.,-1.,0.));
#1100=DIRECTION('',(0.,0.,1.));
#1101=DIRECTION('center_axis',(0.,-1.,0.));
#1102=DIRECTION('ref_axis',(1.,0.,0.));
#1103=DIRECTION('center_axis',(1.,0.,0.));
#1104=DIRECTION('ref_axis',(0.,1.,0.));
#1105=DIRECTION('',(0.,0.,1.));
#1106=DIRECTION('',(0.,0.,1.));
#1107=DIRECTION('center_axis',(0.,1.,0.));
#1108=DIRECTION('ref_axis',(-1.,0.,0.));
#1109=DIRECTION('',(0.,0.,1.));
#1110=DIRECTION('center_axis',(-1.,0.,0.));
#1111=DIRECTION('ref_axis',(0.,-1.,0.));
#1112=DIRECTION('',(0.,0.,1.));
#1113=DIRECTION('center_axis',(0.,-1.,0.));
#1114=DIRECTION('ref_axis',(1.,0.,0.));
#1115=DIRECTION('center_axis',(1.,0.,0.));
#1116=DIRECTION('ref_axis',(0.,1.,0.));
#1117=DIRECTION('',(0.,0.,1.));
#1118=DIRECTION('',(0.,0.,1.));
#1119=DIRECTION('center_axis',(0.,1.,0.));
#1120=DIRECTION('ref_axis',(-1.,0.,0.));
#1121=DIRECTION('',(0.,0.,1.));
#1122=DIRECTION('center_axis',(-1.,0.,0.));
#1123=DIRECTION('ref_axis',(0.,-1.,0.));
#1124=DIRECTION('',(0.,0.,1.));
#1125=DIRECTION('center_axis',(0.,-1.,0.));
#1126=DIRECTION('ref_axis',(1.,0.,0.));
#1127=DIRECTION('center_axis',(1.,0.,0.));
#1128=DIRECTION('ref_axis',(0.,1.,0.));
#1129=DIRECTION('',(0.,0.,1.));
#1130=DIRECTION('',(0.,0.,1.));
#1131=DIRECTION('center_axis',(0.,1.,0.));
#1132=DIRECTION('ref_axis',(-1.,0.,0.));
#1133=DIRECTION('',(0.,0.,1.));
#1134=DIRECTION('center_axis',(-1.,0.,0.));
#1135=DIRECTION('ref_axis',(0.,-1.,0.));
#1136=DIRECTION('',(0.,0.,1.));
#1137=DIRECTION('center_axis',(0.,-1.,0.));
#1138=DIRECTION('ref_axis',(1.,0.,0.));
#1139=DIRECTION('center_axis',(1.,0.,0.));
#1140=DIRECTION('ref_axis',(0.,1.,0.));
#1141=DIRECTION('',(0.,0.,1.));
#1142=DIRECTION('',(0.,0.,1.));
#1143=DIRECTION('center_axis',(0.,1.,0.));
#1144=DIRECTION('ref_axis',(-1.,0.,0.));
#1145=DIRECTION('',(0.,0.,1.));
#1146=DIRECTION('center_axis',(-1.,0.,0.));
#1147=DIRECTION('ref_axis',(0.,-1.,0.));
#1148=DIRECTION('',(0.,0.,1.));
#1149=DIRECTION('center_axis',(0.,-1.,0.));
#1150=DIRECTION('ref_axis',(1.,0.,0.));
#1151=DIRECTION('center_axis',(1.,0.,0.));
#1152=DIRECTION('ref_axis',(0.,1.,0.));
#1153=DIRECTION('',(0.,0.,1.));
#1154=DIRECTION('',(0.,0.,1.));
#1155=DIRECTION('center_axis',(0.,1.,0.));
#1156=DIRECTION('ref_axis',(-1.,0.,0.));
#1157=DIRECTION('',(0.,0.,1.));
#1158=DIRECTION('center_axis',(-1.,0.,0.));
#1159=DIRECTION('ref_axis',(0.,-1.,0.));
#1160=DIRECTION('',(0.,0.,1.));
#1161=DIRECTION('center_axis',(0.,-1.,0.));
#1162=DIRECTION('ref_axis',(1.,0.,0.));
#1163=DIRECTION('center_axis',(-1.,0.,0.));
#1164=DIRECTION('ref_axis',(0.,-1.,0.));
#1165=DIRECTION('',(0.,0.,1.));
#1166=DIRECTION('',(0.,0.,1.));
#1167=DIRECTION('center_axis',(0.,1.,0.));
#1168=DIRECTION('ref_axis',(-1.,0.,0.));
#1169=DIRECTION('',(0.,0.,1.));
#1170=DIRECTION('center_axis',(1.,0.,0.));
#1171=DIRECTION('ref_axis',(0.,1.,0.));
#1172=DIRECTION('',(0.,0.,1.));
#1173=DIRECTION('center_axis',(0.,-1.,0.));
#1174=DIRECTION('ref_axis',(1.,0.,0.));
#1175=CARTESIAN_POINT('',(0.,0.,0.));
#1176=CARTESIAN_POINT('Origin',(98.8555366763948,-105.264927530029,1.6));
#1177=CARTESIAN_POINT('',(97.4953405258026,-105.264927530029,5.1));
#1178=CARTESIAN_POINT('Origin',(98.8555366763948,-105.264927530029,5.1));
#1179=CARTESIAN_POINT('',(97.4953405258026,-105.264927530029,1.6));
#1180=CARTESIAN_POINT('',(97.4953405258026,-105.264927530029,1.6));
#1181=CARTESIAN_POINT('Origin',(98.8555366763948,-105.264927530029,1.6));
#1182=CARTESIAN_POINT('Origin',(98.8555366763948,-105.264927530029,1.6));
#1183=CARTESIAN_POINT('',(97.4953405258026,-105.264927530029,7.1));
#1184=CARTESIAN_POINT('Origin',(98.8555366763948,-105.264927530029,7.1));
#1185=CARTESIAN_POINT('',(97.4953405258026,-105.264927530029,6.6));
#1186=CARTESIAN_POINT('',(97.4953405258026,-105.264927530029,1.6));
#1187=CARTESIAN_POINT('Origin',(98.8555366763948,-105.264927530029,6.6));
#1188=CARTESIAN_POINT('Origin',(98.8555366763948,-105.264927530029,1.6));
#1189=CARTESIAN_POINT('Origin',(135.685479799888,-76.2975842373058,7.1));
#1190=CARTESIAN_POINT('Origin',(97.6999978162348,-46.2999989651144,1.6));
#1191=CARTESIAN_POINT('',(98.1876156285001,-46.1894147981387,5.1));
#1192=CARTESIAN_POINT('',(97.628714734978,-46.7948915909946,5.1));
#1193=CARTESIAN_POINT('Origin',(97.6999978162348,-46.2999989651144,5.1));
#1194=CARTESIAN_POINT('',(98.1876156285001,-46.1894147981387,1.6));
#1195=CARTESIAN_POINT('',(98.1876156285001,-46.1894147981387,1.6));
#1196=CARTESIAN_POINT('',(97.628714734978,-46.7948915909946,1.6));
#1197=CARTESIAN_POINT('Origin',(97.6999978162348,-46.2999989651144,1.6));
#1198=CARTESIAN_POINT('',(97.628714734978,-46.7948915909946,1.6));
#1199=CARTESIAN_POINT('Origin',(99.000001475215,-47.5000007078052,1.6));
#1200=CARTESIAN_POINT('Origin',(99.000001475215,-47.5000007078052,5.1));
#1201=CARTESIAN_POINT('Origin',(99.000001475215,-47.5000007078052,1.6));
#1202=CARTESIAN_POINT('Origin',(99.000001475215,-47.5000007078052,1.6));
#1203=CARTESIAN_POINT('',(98.1876156285001,-46.1894147981387,6.6));
#1204=CARTESIAN_POINT('',(97.628714734978,-46.7948915909946,6.6));
#1205=CARTESIAN_POINT('Origin',(99.000001475215,-47.5000007078052,6.6));
#1206=CARTESIAN_POINT('',(98.1876156285001,-46.1894147981387,7.1));
#1207=CARTESIAN_POINT('',(98.1876156285001,-46.1894147981387,1.6));
#1208=CARTESIAN_POINT('',(97.628714734978,-46.7948915909946,7.1));
#1209=CARTESIAN_POINT('Origin',(99.000001475215,-47.5000007078052,7.1));
#1210=CARTESIAN_POINT('',(97.628714734978,-46.7948915909946,1.6));
#1211=CARTESIAN_POINT('Origin',(97.6999978162348,-46.2999989651144,1.6));
#1212=CARTESIAN_POINT('Origin',(97.6999978162348,-46.2999989651144,6.6));
#1213=CARTESIAN_POINT('Origin',(97.6999978162348,-46.2999989651144,7.1));
#1214=CARTESIAN_POINT('Origin',(99.000001475215,-47.5000007078052,1.6));
#1215=CARTESIAN_POINT('Origin',(135.685479799888,-76.2975842373058,7.1));
#1216=CARTESIAN_POINT('Origin',(172.540717887784,-105.264927530029,1.6));
#1217=CARTESIAN_POINT('',(171.168528822232,-105.264927530029,5.1));
#1218=CARTESIAN_POINT('Origin',(172.540717887784,-105.264927530029,5.1));
#1219=CARTESIAN_POINT('',(171.168528822232,-105.264927530029,1.6));
#1220=CARTESIAN_POINT('',(171.168528822232,-105.264927530029,1.6));
#1221=CARTESIAN_POINT('Origin',(172.540717887784,-105.264927530029,1.6));
#1222=CARTESIAN_POINT('Origin',(172.540717887784,-105.264927530029,1.6));
#1223=CARTESIAN_POINT('',(171.168528822232,-105.264927530029,7.1));
#1224=CARTESIAN_POINT('Origin',(172.540717887784,-105.264927530029,7.1));
#1225=CARTESIAN_POINT('',(171.168528822232,-105.264927530029,6.6));
#1226=CARTESIAN_POINT('',(171.168528822232,-105.264927530029,1.6));
#1227=CARTESIAN_POINT('Origin',(172.540717887784,-105.264927530029,6.6));
#1228=CARTESIAN_POINT('Origin',(172.540717887784,-105.264927530029,1.6));
#1229=CARTESIAN_POINT('Origin',(135.685479799888,-76.2975842373058,7.1));
#1230=CARTESIAN_POINT('Origin',(172.540717887784,-47.2828142838756,1.6));
#1231=CARTESIAN_POINT('',(171.239762372231,-47.2828142838756,5.1));
#1232=CARTESIAN_POINT('Origin',(172.540717887784,-47.2828142838756,5.1));
#1233=CARTESIAN_POINT('',(171.239762372231,-47.2828142838756,1.6));
#1234=CARTESIAN_POINT('',(171.239762372231,-47.2828142838756,1.6));
#1235=CARTESIAN_POINT('Origin',(172.540717887784,-47.2828142838756,1.6));
#1236=CARTESIAN_POINT('Origin',(172.540717887784,-47.2828142838756,1.6));
#1237=CARTESIAN_POINT('',(171.239762372231,-47.2828142838756,7.1));
#1238=CARTESIAN_POINT('Origin',(172.540717887784,-47.2828142838756,7.1));
#1239=CARTESIAN_POINT('',(171.239762372231,-47.2828142838756,6.6));
#1240=CARTESIAN_POINT('',(171.239762372231,-47.2828142838756,1.6));
#1241=CARTESIAN_POINT('Origin',(172.540717887784,-47.2828142838756,6.6));
#1242=CARTESIAN_POINT('Origin',(172.540717887784,-47.2828142838756,1.6));
#1243=CARTESIAN_POINT('Origin',(135.685479799888,-76.2975842373058,7.1));
#1244=CARTESIAN_POINT('Origin',(135.85,-76.3125,6.6));
#1245=CARTESIAN_POINT('',(97.25,-106.75,6.6));
#1246=CARTESIAN_POINT('',(174.45,-106.75,6.6));
#1247=CARTESIAN_POINT('',(174.45,-106.75,6.6));
#1248=CARTESIAN_POINT('',(174.45,-45.875,6.6));
#1249=CARTESIAN_POINT('',(174.45,-45.875,6.6));
#1250=CARTESIAN_POINT('',(97.25,-45.875,6.6));
#1251=CARTESIAN_POINT('',(97.25,-45.875,6.6));
#1252=CARTESIAN_POINT('',(97.25,-106.75,6.6));
#1253=CARTESIAN_POINT('',(135.681525722448,-63.6544800643515,6.6));
#1254=CARTESIAN_POINT('',(149.681525722448,-63.6544800643515,6.6));
#1255=CARTESIAN_POINT('',(135.681525722448,-63.6544800643515,6.6));
#1256=CARTESIAN_POINT('',(149.681525722448,-77.6544800643515,6.6));
#1257=CARTESIAN_POINT('',(149.681525722448,-63.6544800643515,6.6));
#1258=CARTESIAN_POINT('',(135.681525722448,-77.6544800643515,6.6));
#1259=CARTESIAN_POINT('',(149.681525722448,-77.6544800643515,6.6));
#1260=CARTESIAN_POINT('',(135.681525722448,-77.6544800643515,6.6));
#1261=CARTESIAN_POINT('',(120.655272320175,-78.903441577478,6.6));
#1262=CARTESIAN_POINT('',(134.655272320175,-78.903441577478,6.6));
#1263=CARTESIAN_POINT('',(120.655272320175,-78.903441577478,6.6));
#1264=CARTESIAN_POINT('',(134.655272320175,-92.903441577478,6.6));
#1265=CARTESIAN_POINT('',(134.655272320175,-78.903441577478,6.6));
#1266=CARTESIAN_POINT('',(120.655272320175,-92.903441577478,6.6));
#1267=CARTESIAN_POINT('',(134.655272320175,-92.903441577478,6.6));
#1268=CARTESIAN_POINT('',(120.655272320175,-92.903441577478,6.6));
#1269=CARTESIAN_POINT('',(120.510867919109,-63.7455967206104,6.6));
#1270=CARTESIAN_POINT('',(134.510867919109,-63.7455967206104,6.6));
#1271=CARTESIAN_POINT('',(120.510867919109,-63.7455967206104,6.6));
#1272=CARTESIAN_POINT('',(134.510867919109,-77.7455967206104,6.6));
#1273=CARTESIAN_POINT('',(134.510867919109,-63.7455967206104,6.6));
#1274=CARTESIAN_POINT('',(120.510867919109,-77.7455967206104,6.6));
#1275=CARTESIAN_POINT('',(134.510867919109,-77.7455967206104,6.6));
#1276=CARTESIAN_POINT('',(120.510867919109,-77.7455967206104,6.6));
#1277=CARTESIAN_POINT('',(150.81304802421,-63.6065463810601,6.6));
#1278=CARTESIAN_POINT('',(164.81304802421,-63.6065463810601,6.6));
#1279=CARTESIAN_POINT('',(150.81304802421,-63.6065463810601,6.6));
#1280=CARTESIAN_POINT('',(164.81304802421,-77.6065463810601,6.6));
#1281=CARTESIAN_POINT('',(164.81304802421,-63.6065463810601,6.6));
#1282=CARTESIAN_POINT('',(150.81304802421,-77.6065463810601,6.6));
#1283=CARTESIAN_POINT('',(164.81304802421,-77.6065463810601,6.6));
#1284=CARTESIAN_POINT('',(150.81304802421,-77.6065463810601,6.6));
#1285=CARTESIAN_POINT('',(135.743565470043,-78.903140038878,6.6));
#1286=CARTESIAN_POINT('',(149.743565470043,-78.903140038878,6.6));
#1287=CARTESIAN_POINT('',(135.743565470043,-78.903140038878,6.6));
#1288=CARTESIAN_POINT('',(149.743565470043,-92.9031400388779,6.6));
#1289=CARTESIAN_POINT('',(149.743565470043,-78.903140038878,6.6));
#1290=CARTESIAN_POINT('',(135.743565470043,-92.9031400388779,6.6));
#1291=CARTESIAN_POINT('',(149.743565470043,-92.9031400388779,6.6));
#1292=CARTESIAN_POINT('',(135.743565470043,-92.9031400388779,6.6));
#1293=CARTESIAN_POINT('',(150.901124979301,-78.9464535770187,6.6));
#1294=CARTESIAN_POINT('',(164.901124979301,-78.9464535770187,6.6));
#1295=CARTESIAN_POINT('',(150.901124979301,-78.9464535770187,6.6));
#1296=CARTESIAN_POINT('',(164.901124979301,-92.9464535770187,6.6));
#1297=CARTESIAN_POINT('',(164.901124979301,-78.9464535770187,6.6));
#1298=CARTESIAN_POINT('',(150.901124979301,-92.9464535770187,6.6));
#1299=CARTESIAN_POINT('',(164.901124979301,-92.9464535770187,6.6));
#1300=CARTESIAN_POINT('',(150.901124979301,-92.9464535770187,6.6));
#1301=CARTESIAN_POINT('Origin',(135.85,-76.3125,5.1));
#1302=CARTESIAN_POINT('',(174.45,-106.75,5.1));
#1303=CARTESIAN_POINT('',(97.25,-106.75,5.1));
#1304=CARTESIAN_POINT('',(174.45,-106.75,5.1));
#1305=CARTESIAN_POINT('',(97.25,-45.875,5.1));
#1306=CARTESIAN_POINT('',(97.25,-106.75,5.1));
#1307=CARTESIAN_POINT('',(174.45,-45.875,5.1));
#1308=CARTESIAN_POINT('',(97.25,-45.875,5.1));
#1309=CARTESIAN_POINT('',(174.45,-45.875,5.1));
#1310=CARTESIAN_POINT('',(150.901124979301,-78.9464535770187,5.1));
#1311=CARTESIAN_POINT('',(164.901124979301,-78.9464535770187,5.1));
#1312=CARTESIAN_POINT('',(150.901124979301,-78.9464535770187,5.1));
#1313=CARTESIAN_POINT('',(150.901124979301,-92.9464535770187,5.1));
#1314=CARTESIAN_POINT('',(150.901124979301,-92.9464535770187,5.1));
#1315=CARTESIAN_POINT('',(164.901124979301,-92.9464535770187,5.1));
#1316=CARTESIAN_POINT('',(164.901124979301,-92.9464535770187,5.1));
#1317=CARTESIAN_POINT('',(164.901124979301,-78.9464535770187,5.1));
#1318=CARTESIAN_POINT('',(135.743565470043,-78.903140038878,5.1));
#1319=CARTESIAN_POINT('',(149.743565470043,-78.903140038878,5.1));
#1320=CARTESIAN_POINT('',(135.743565470043,-78.903140038878,5.1));
#1321=CARTESIAN_POINT('',(135.743565470043,-92.9031400388779,5.1));
#1322=CARTESIAN_POINT('',(135.743565470043,-92.9031400388779,5.1));
#1323=CARTESIAN_POINT('',(149.743565470043,-92.9031400388779,5.1));
#1324=CARTESIAN_POINT('',(149.743565470043,-92.9031400388779,5.1));
#1325=CARTESIAN_POINT('',(149.743565470043,-78.903140038878,5.1));
#1326=CARTESIAN_POINT('',(150.81304802421,-63.6065463810601,5.1));
#1327=CARTESIAN_POINT('',(164.81304802421,-63.6065463810601,5.1));
#1328=CARTESIAN_POINT('',(150.81304802421,-63.6065463810601,5.1));
#1329=CARTESIAN_POINT('',(150.81304802421,-77.6065463810601,5.1));
#1330=CARTESIAN_POINT('',(150.81304802421,-77.6065463810601,5.1));
#1331=CARTESIAN_POINT('',(164.81304802421,-77.6065463810601,5.1));
#1332=CARTESIAN_POINT('',(164.81304802421,-77.6065463810601,5.1));
#1333=CARTESIAN_POINT('',(164.81304802421,-63.6065463810601,5.1));
#1334=CARTESIAN_POINT('',(120.510867919109,-63.7455967206104,5.1));
#1335=CARTESIAN_POINT('',(134.510867919109,-63.7455967206104,5.1));
#1336=CARTESIAN_POINT('',(120.510867919109,-63.7455967206104,5.1));
#1337=CARTESIAN_POINT('',(120.510867919109,-77.7455967206104,5.1));
#1338=CARTESIAN_POINT('',(120.510867919109,-77.7455967206104,5.1));
#1339=CARTESIAN_POINT('',(134.510867919109,-77.7455967206104,5.1));
#1340=CARTESIAN_POINT('',(134.510867919109,-77.7455967206104,5.1));
#1341=CARTESIAN_POINT('',(134.510867919109,-63.7455967206104,5.1));
#1342=CARTESIAN_POINT('',(120.655272320175,-78.903441577478,5.1));
#1343=CARTESIAN_POINT('',(134.655272320175,-78.903441577478,5.1));
#1344=CARTESIAN_POINT('',(120.655272320175,-78.903441577478,5.1));
#1345=CARTESIAN_POINT('',(120.655272320175,-92.903441577478,5.1));
#1346=CARTESIAN_POINT('',(120.655272320175,-92.903441577478,5.1));
#1347=CARTESIAN_POINT('',(134.655272320175,-92.903441577478,5.1));
#1348=CARTESIAN_POINT('',(134.655272320175,-92.903441577478,5.1));
#1349=CARTESIAN_POINT('',(134.655272320175,-78.903441577478,5.1));
#1350=CARTESIAN_POINT('',(135.681525722448,-63.6544800643515,5.1));
#1351=CARTESIAN_POINT('',(149.681525722448,-63.6544800643515,5.1));
#1352=CARTESIAN_POINT('',(135.681525722448,-63.6544800643515,5.1));
#1353=CARTESIAN_POINT('',(135.681525722448,-77.6544800643515,5.1));
#1354=CARTESIAN_POINT('',(135.681525722448,-77.6544800643515,5.1));
#1355=CARTESIAN_POINT('',(149.681525722448,-77.6544800643515,5.1));
#1356=CARTESIAN_POINT('',(149.681525722448,-77.6544800643515,5.1));
#1357=CARTESIAN_POINT('',(149.681525722448,-63.6544800643515,5.1));
#1358=CARTESIAN_POINT('Origin',(150.901124979301,-92.9464535770187,5.1));
#1359=CARTESIAN_POINT('',(150.901124979301,-78.9464535770187,5.1));
#1360=CARTESIAN_POINT('',(150.901124979301,-92.9464535770187,5.1));
#1361=CARTESIAN_POINT('Origin',(164.901124979301,-92.9464535770187,5.1));
#1362=CARTESIAN_POINT('',(164.901124979301,-92.9464535770187,5.1));
#1363=CARTESIAN_POINT('Origin',(164.901124979301,-78.9464535770187,5.1));
#1364=CARTESIAN_POINT('',(164.901124979301,-78.9464535770187,5.1));
#1365=CARTESIAN_POINT('Origin',(150.901124979301,-78.9464535770187,5.1));
#1366=CARTESIAN_POINT('Origin',(135.743565470043,-92.9031400388779,5.1));
#1367=CARTESIAN_POINT('',(135.743565470043,-78.903140038878,5.1));
#1368=CARTESIAN_POINT('',(135.743565470043,-92.9031400388779,5.1));
#1369=CARTESIAN_POINT('Origin',(149.743565470043,-92.9031400388779,5.1));
#1370=CARTESIAN_POINT('',(149.743565470043,-92.9031400388779,5.1));
#1371=CARTESIAN_POINT('Origin',(149.743565470043,-78.903140038878,5.1));
#1372=CARTESIAN_POINT('',(149.743565470043,-78.903140038878,5.1));
#1373=CARTESIAN_POINT('Origin',(135.743565470043,-78.903140038878,5.1));
#1374=CARTESIAN_POINT('Origin',(150.81304802421,-77.6065463810601,5.1));
#1375=CARTESIAN_POINT('',(150.81304802421,-63.6065463810601,5.1));
#1376=CARTESIAN_POINT('',(150.81304802421,-77.6065463810601,5.1));
#1377=CARTESIAN_POINT('Origin',(164.81304802421,-77.6065463810601,5.1));
#1378=CARTESIAN_POINT('',(164.81304802421,-77.6065463810601,5.1));
#1379=CARTESIAN_POINT('Origin',(164.81304802421,-63.6065463810601,5.1));
#1380=CARTESIAN_POINT('',(164.81304802421,-63.6065463810601,5.1));
#1381=CARTESIAN_POINT('Origin',(150.81304802421,-63.6065463810601,5.1));
#1382=CARTESIAN_POINT('Origin',(120.510867919109,-77.7455967206104,5.1));
#1383=CARTESIAN_POINT('',(120.510867919109,-63.7455967206104,5.1));
#1384=CARTESIAN_POINT('',(120.510867919109,-77.7455967206104,5.1));
#1385=CARTESIAN_POINT('Origin',(134.510867919109,-77.7455967206104,5.1));
#1386=CARTESIAN_POINT('',(134.510867919109,-77.7455967206104,5.1));
#1387=CARTESIAN_POINT('Origin',(134.510867919109,-63.7455967206104,5.1));
#1388=CARTESIAN_POINT('',(134.510867919109,-63.7455967206104,5.1));
#1389=CARTESIAN_POINT('Origin',(120.510867919109,-63.7455967206104,5.1));
#1390=CARTESIAN_POINT('Origin',(120.655272320175,-92.903441577478,5.1));
#1391=CARTESIAN_POINT('',(120.655272320175,-78.903441577478,5.1));
#1392=CARTESIAN_POINT('',(120.655272320175,-92.903441577478,5.1));
#1393=CARTESIAN_POINT('Origin',(134.655272320175,-92.903441577478,5.1));
#1394=CARTESIAN_POINT('',(134.655272320175,-92.903441577478,5.1));
#1395=CARTESIAN_POINT('Origin',(134.655272320175,-78.903441577478,5.1));
#1396=CARTESIAN_POINT('',(134.655272320175,-78.903441577478,5.1));
#1397=CARTESIAN_POINT('Origin',(120.655272320175,-78.903441577478,5.1));
#1398=CARTESIAN_POINT('Origin',(135.681525722448,-77.6544800643515,5.1));
#1399=CARTESIAN_POINT('',(135.681525722448,-63.6544800643515,5.1));
#1400=CARTESIAN_POINT('',(135.681525722448,-77.6544800643515,5.1));
#1401=CARTESIAN_POINT('Origin',(149.681525722448,-77.6544800643515,5.1));
#1402=CARTESIAN_POINT('',(149.681525722448,-77.6544800643515,5.1));
#1403=CARTESIAN_POINT('Origin',(149.681525722448,-63.6544800643515,5.1));
#1404=CARTESIAN_POINT('',(149.681525722448,-63.6544800643515,5.1));
#1405=CARTESIAN_POINT('Origin',(135.681525722448,-63.6544800643515,5.1));
#1406=CARTESIAN_POINT('Origin',(97.25,-45.875,5.1));
#1407=CARTESIAN_POINT('',(97.25,-106.75,5.1));
#1408=CARTESIAN_POINT('',(97.25,-45.875,5.1));
#1409=CARTESIAN_POINT('Origin',(174.45,-45.875,5.1));
#1410=CARTESIAN_POINT('',(174.45,-45.875,5.1));
#1411=CARTESIAN_POINT('Origin',(174.45,-106.75,5.1));
#1412=CARTESIAN_POINT('',(174.45,-106.75,5.1));
#1413=CARTESIAN_POINT('Origin',(97.25,-106.75,5.1));
#1414=UNCERTAINTY_MEASURE_WITH_UNIT(LENGTH_MEASURE(0.01),#1418,
'DISTANCE_ACCURACY_VALUE',
'Maximum model space distance between geometric entities at asserted c
onnectivities');
#1415=UNCERTAINTY_MEASURE_WITH_UNIT(LENGTH_MEASURE(0.01),#1418,
'DISTANCE_ACCURACY_VALUE',
'Maximum model space distance between geometric entities at asserted c
onnectivities');
#1416=(
GEOMETRIC_REPRESENTATION_CONTEXT(3)
GLOBAL_UNCERTAINTY_ASSIGNED_CONTEXT((#1414))
GLOBAL_UNIT_ASSIGNED_CONTEXT((#1418,#1419,#1420))
REPRESENTATION_CONTEXT('','3D')
);
#1417=(
GEOMETRIC_REPRESENTATION_CONTEXT(3)
GLOBAL_UNCERTAINTY_ASSIGNED_CONTEXT((#1415))
GLOBAL_UNIT_ASSIGNED_CONTEXT((#1418,#1419,#1420))
REPRESENTATION_CONTEXT('','3D')
);
#1418=(
LENGTH_UNIT()
NAMED_UNIT(*)
SI_UNIT(.MILLI.,.METRE.)
);
#1419=(
NAMED_UNIT(*)
PLANE_ANGLE_UNIT()
SI_UNIT($,.RADIAN.)
);
#1420=(
NAMED_UNIT(*)
SI_UNIT($,.STERADIAN.)
SOLID_ANGLE_UNIT()
);
#1421=SHAPE_DEFINITION_REPRESENTATION(#1422,#1423);
#1422=PRODUCT_DEFINITION_SHAPE('',$,#1425);
#1423=SHAPE_REPRESENTATION('',(#874),#1416);
#1424=PRODUCT_DEFINITION_CONTEXT('part definition',#1429,'design');
#1425=PRODUCT_DEFINITION('HackPad1 1','HackMain',#1426,#1424);
#1426=PRODUCT_DEFINITION_FORMATION('',$,#1431);
#1427=PRODUCT_RELATED_PRODUCT_CATEGORY('HackMain','HackMain',(#1431));
#1428=APPLICATION_PROTOCOL_DEFINITION('international standard',
'automotive_design',2009,#1429);
#1429=APPLICATION_CONTEXT(
'Core Data for Automotive Mechanical Design Process');
#1430=PRODUCT_CONTEXT('part definition',#1429,'mechanical');
#1431=PRODUCT('HackPad1 1','HackMain','KiCad electronic assembly',(#1430));
#1432=PRESENTATION_STYLE_ASSIGNMENT((#1433));
#1433=SURFACE_STYLE_USAGE(.BOTH.,#1434);
#1434=SURFACE_SIDE_STYLE('',(#1435));
#1435=SURFACE_STYLE_FILL_AREA(#1436);
#1436=FILL_AREA_STYLE('Steel - Satin',(#1437));
#1437=FILL_AREA_STYLE_COLOUR('Steel - Satin',#1438);
#1438=COLOUR_RGB('Steel - Satin',0.627450980392157,0.627450980392157,0.627450980392157);
ENDSEC;
END-ISO-10303-21;
