%TF.GenerationSoftware,KiCad,Pcbnew,8.0.1*%
%TF.CreationDate,2026-09-05T00:52:43+05:30*%
%TF.ProjectId,HackPad1,4861636b-5061-4643-912e-6b696361645f,rev?*%
%TF.SameCoordinates,Original*%
%TF.FileFunction,Soldermask,Bot*%
%TF.FilePolarity,Negative*%
%FSLAX46Y46*%
G04 Gerber Fmt 4.6, Leading zero omitted, Abs format (unit mm)*
G04 Created by KiCad (PCBNEW 8.0.1) date 2026-09-05 00:52:43*
%MOMM*%
%LPD*%
G01*
G04 APERTURE LIST*
%ADD10C,1.700000*%
%ADD11C,4.000000*%
%ADD12C,2.200000*%
%ADD13R,1.600000X1.600000*%
%ADD14O,1.600000X1.600000*%
%ADD15C,1.524000*%
%ADD16R,2.000000X2.000000*%
%ADD17C,2.000000*%
%ADD18R,3.200000X2.000000*%
%ADD19R,1.700000X1.700000*%
%ADD20O,1.700000X1.700000*%
%ADD21R,1.500000X1.000000*%
G04 APERTURE END LIST*
D10*
%TO.C,SW2*%
X122580000Y-87230000D03*
D11*
X127660000Y-87230000D03*
D10*
X132740000Y-87230000D03*
D12*
X130200000Y-82150000D03*
X123850000Y-84690000D03*
%TD*%
D13*
%TO.C,D2*%
X131060000Y-96250000D03*
D14*
X123440000Y-96250000D03*
%TD*%
D10*
%TO.C,SW4*%
X137670000Y-72140000D03*
D11*
X142750000Y-72140000D03*
D10*
X147830000Y-72140000D03*
D12*
X145290000Y-67060000D03*
X138940000Y-69600000D03*
%TD*%
D10*
%TO.C,SW5*%
X137670000Y-87230000D03*
D11*
X142750000Y-87230000D03*
D10*
X147830000Y-87230000D03*
D12*
X145290000Y-82150000D03*
X138940000Y-84690000D03*
%TD*%
D13*
%TO.C,D1*%
X123690000Y-62000000D03*
D14*
X131310000Y-62000000D03*
%TD*%
D10*
%TO.C,SW7*%
X152760000Y-72140000D03*
D11*
X157840000Y-72140000D03*
D10*
X162920000Y-72140000D03*
D12*
X160380000Y-67060000D03*
X154030000Y-69600000D03*
%TD*%
D10*
%TO.C,SW1*%
X122580000Y-72140000D03*
D11*
X127660000Y-72140000D03*
D10*
X132740000Y-72140000D03*
D12*
X130200000Y-67060000D03*
X123850000Y-69600000D03*
%TD*%
D13*
%TO.C,D4*%
X137920000Y-62000000D03*
D14*
X148080000Y-62000000D03*
%TD*%
D10*
%TO.C,SW8*%
X152760000Y-87230000D03*
D11*
X157840000Y-87230000D03*
D10*
X162920000Y-87230000D03*
D12*
X160380000Y-82150000D03*
X154030000Y-84690000D03*
%TD*%
D15*
%TO.C,U1*%
X100630000Y-92870000D03*
X103170000Y-92870000D03*
X105710000Y-92870000D03*
X108250000Y-92870000D03*
X110790000Y-92870000D03*
X113330000Y-92870000D03*
X115870000Y-92870000D03*
X115870000Y-77630000D03*
X113330000Y-77630000D03*
X110790000Y-77630000D03*
X108250000Y-77630000D03*
X105710000Y-77630000D03*
X103170000Y-77630000D03*
X100630000Y-77630000D03*
%TD*%
D13*
%TO.C,D8*%
X152670000Y-96750000D03*
D14*
X162830000Y-96750000D03*
%TD*%
D16*
%TO.C,SW10*%
X101500000Y-63000000D03*
D17*
X101500000Y-68000000D03*
X101500000Y-65500000D03*
D18*
X109000000Y-59900000D03*
X109000000Y-71100000D03*
D17*
X116000000Y-68000000D03*
X116000000Y-63000000D03*
%TD*%
D13*
%TO.C,D5*%
X137670000Y-96500000D03*
D14*
X147830000Y-96500000D03*
%TD*%
D19*
%TO.C,J1*%
X132525000Y-49950000D03*
D20*
X132525000Y-52490000D03*
X132525000Y-55030000D03*
X132525000Y-57570000D03*
%TD*%
D13*
%TO.C,D7*%
X152670000Y-62000000D03*
D14*
X162830000Y-62000000D03*
%TD*%
D21*
%TO.C,D11*%
X155050000Y-58100000D03*
X155050000Y-54900000D03*
X159950000Y-54900000D03*
X159950000Y-58100000D03*
%TD*%
%TO.C,D10*%
X122550000Y-58100000D03*
X122550000Y-54900000D03*
X127450000Y-54900000D03*
X127450000Y-58100000D03*
%TD*%
%TO.C,D13*%
X123850000Y-103450000D03*
X123850000Y-100250000D03*
X128750000Y-100250000D03*
X128750000Y-103450000D03*
%TD*%
%TO.C,D12*%
X156050000Y-103350000D03*
X156050000Y-100150000D03*
X160950000Y-100150000D03*
X160950000Y-103350000D03*
%TD*%
M02*
