%TF.GenerationSoftware,KiCad,Pcbnew,8.0.1*%
%TF.CreationDate,2026-09-05T00:52:43+05:30*%
%TF.ProjectId,HackPad1,4861636b-5061-4643-912e-6b696361645f,rev?*%
%TF.SameCoordinates,Original*%
%TF.FileFunction,Copper,L1,Top*%
%TF.FilePolarity,Positive*%
%FSLAX46Y46*%
G04 Gerber Fmt 4.6, Leading zero omitted, Abs format (unit mm)*
G04 Created by KiCad (PCBNEW 8.0.1) date 2026-09-05 00:52:43*
%MOMM*%
%LPD*%
G01*
G04 APERTURE LIST*
G04 Aperture macros list*
%AMRoundRect*
0 Rectangle with rounded corners*
0 $1 Rounding radius*
0 $2 $3 $4 $5 $6 $7 $8 $9 X,Y pos of 4 corners*
0 Add a 4 corners polygon primitive as box body*
4,1,4,$2,$3,$4,$5,$6,$7,$8,$9,$2,$3,0*
0 Add four circle primitives for the rounded corners*
1,1,$1+$1,$2,$3*
1,1,$1+$1,$4,$5*
1,1,$1+$1,$6,$7*
1,1,$1+$1,$8,$9*
0 Add four rect primitives between the rounded corners*
20,1,$1+$1,$2,$3,$4,$5,0*
20,1,$1+$1,$4,$5,$6,$7,0*
20,1,$1+$1,$6,$7,$8,$9,0*
20,1,$1+$1,$8,$9,$2,$3,0*%
G04 Aperture macros list end*
%TA.AperFunction,ComponentPad*%
%ADD10C,2.200000*%
%TD*%
%TA.AperFunction,ComponentPad*%
%ADD11R,1.600000X1.600000*%
%TD*%
%TA.AperFunction,ComponentPad*%
%ADD12O,1.600000X1.600000*%
%TD*%
%TA.AperFunction,SMDPad,CuDef*%
%ADD13RoundRect,0.152400X-0.609600X1.063600X-0.609600X-1.063600X0.609600X-1.063600X0.609600X1.063600X0*%
%TD*%
%TA.AperFunction,ComponentPad*%
%ADD14C,1.524000*%
%TD*%
%TA.AperFunction,SMDPad,CuDef*%
%ADD15RoundRect,0.152400X0.609600X-1.063600X0.609600X1.063600X-0.609600X1.063600X-0.609600X-1.063600X0*%
%TD*%
%TA.AperFunction,ComponentPad*%
%ADD16R,2.000000X2.000000*%
%TD*%
%TA.AperFunction,ComponentPad*%
%ADD17C,2.000000*%
%TD*%
%TA.AperFunction,ComponentPad*%
%ADD18R,3.200000X2.000000*%
%TD*%
%TA.AperFunction,ComponentPad*%
%ADD19R,1.700000X1.700000*%
%TD*%
%TA.AperFunction,ComponentPad*%
%ADD20O,1.700000X1.700000*%
%TD*%
%TA.AperFunction,ViaPad*%
%ADD21C,0.600000*%
%TD*%
%TA.AperFunction,Conductor*%
%ADD22C,0.200000*%
%TD*%
%TA.AperFunction,Conductor*%
%ADD23C,0.500000*%
%TD*%
G04 APERTURE END LIST*
D10*
%TO.P,SW2,1,1*%
%TO.N,ROW2*%
X130200000Y-82150000D03*
%TO.P,SW2,2,2*%
%TO.N,Net-(D2-A)*%
X123850000Y-84690000D03*
%TD*%
D11*
%TO.P,D2,1,K*%
%TO.N,COL1*%
X131060000Y-96250000D03*
D12*
%TO.P,D2,2,A*%
%TO.N,Net-(D2-A)*%
X123440000Y-96250000D03*
%TD*%
D10*
%TO.P,SW4,1,1*%
%TO.N,ROW1*%
X145290000Y-67060000D03*
%TO.P,SW4,2,2*%
%TO.N,Net-(D4-A)*%
X138940000Y-69600000D03*
%TD*%
%TO.P,SW5,1,1*%
%TO.N,ROW2*%
X145290000Y-82150000D03*
%TO.P,SW5,2,2*%
%TO.N,Net-(D5-A)*%
X138940000Y-84690000D03*
%TD*%
D11*
%TO.P,D1,1,K*%
%TO.N,COL1*%
X123690000Y-62000000D03*
D12*
%TO.P,D1,2,A*%
%TO.N,Net-(D1-A)*%
X131310000Y-62000000D03*
%TD*%
D10*
%TO.P,SW7,1,1*%
%TO.N,ROW1*%
X160380000Y-67060000D03*
%TO.P,SW7,2,2*%
%TO.N,Net-(D7-A)*%
X154030000Y-69600000D03*
%TD*%
%TO.P,SW1,1,1*%
%TO.N,ROW1*%
X130200000Y-67060000D03*
%TO.P,SW1,2,2*%
%TO.N,Net-(D1-A)*%
X123850000Y-69600000D03*
%TD*%
D11*
%TO.P,D4,1,K*%
%TO.N,COL2*%
X137920000Y-62000000D03*
D12*
%TO.P,D4,2,A*%
%TO.N,Net-(D4-A)*%
X148080000Y-62000000D03*
%TD*%
D10*
%TO.P,SW8,1,1*%
%TO.N,ROW2*%
X160380000Y-82150000D03*
%TO.P,SW8,2,2*%
%TO.N,Net-(D8-A)*%
X154030000Y-84690000D03*
%TD*%
D13*
%TO.P,U1,1,PA02_A0_D0*%
%TO.N,COL1*%
X100630000Y-93705000D03*
D14*
X100630000Y-92870000D03*
D13*
%TO.P,U1,2,PA4_A1_D1*%
%TO.N,COL2*%
X103170000Y-93705000D03*
D14*
X103170000Y-92870000D03*
D13*
%TO.P,U1,3,PA10_A2_D2*%
%TO.N,COL3*%
X105710000Y-93705000D03*
D14*
X105710000Y-92870000D03*
D13*
%TO.P,U1,4,PA11_A3_D3*%
%TO.N,ROW1*%
X108250000Y-93705000D03*
D14*
X108250000Y-92870000D03*
D13*
%TO.P,U1,5,PA8_A4_D4_SDA*%
%TO.N,SDA*%
X110790000Y-93705000D03*
D14*
X110790000Y-92870000D03*
D13*
%TO.P,U1,6,PA9_A5_D5_SCL*%
%TO.N,SCL*%
X113330000Y-93705000D03*
D14*
X113330000Y-92870000D03*
D13*
%TO.P,U1,7,PB08_A6_D6_TX*%
%TO.N,ROW2*%
X115870000Y-93705000D03*
D14*
X115870000Y-92870000D03*
%TO.P,U1,8,PB09_A7_D7_RX*%
%TO.N,unconnected-(U1-PB09_A7_D7_RX-Pad8)*%
X115870000Y-77630000D03*
D15*
%TO.N,unconnected-(U1-PB09_A7_D7_RX-Pad8)_0*%
X115870000Y-76795000D03*
D14*
%TO.P,U1,9,PA7_A8_D8_SCK*%
%TO.N,LED_DATA*%
X113330000Y-77630000D03*
D15*
X113330000Y-76795000D03*
D14*
%TO.P,U1,10,PA5_A9_D9_MISO*%
%TO.N,ENCA*%
X110790000Y-77630000D03*
D15*
X110790000Y-76795000D03*
D14*
%TO.P,U1,11,PA6_A10_D10_MOSI*%
%TO.N,ENCB*%
X108250000Y-77630000D03*
D15*
X108250000Y-76795000D03*
D14*
%TO.P,U1,12,3V3*%
%TO.N,+3V3*%
X105710000Y-77630000D03*
D15*
X105710000Y-76795000D03*
D14*
%TO.P,U1,13,GND*%
%TO.N,GND*%
X103170000Y-77630000D03*
D15*
X103170000Y-76795000D03*
D14*
%TO.P,U1,14,5V*%
%TO.N,+5V*%
X100630000Y-77630000D03*
D15*
X100630000Y-76795000D03*
%TD*%
D11*
%TO.P,D8,1,K*%
%TO.N,COL3*%
X152670000Y-96750000D03*
D12*
%TO.P,D8,2,A*%
%TO.N,Net-(D8-A)*%
X162830000Y-96750000D03*
%TD*%
D16*
%TO.P,SW10,A,A*%
%TO.N,ENCA*%
X101500000Y-63000000D03*
D17*
%TO.P,SW10,B,B*%
%TO.N,ENCB*%
X101500000Y-68000000D03*
%TO.P,SW10,C,C*%
%TO.N,GND*%
X101500000Y-65500000D03*
D18*
%TO.P,SW10,MP*%
%TO.N,N/C*%
X109000000Y-59900000D03*
X109000000Y-71100000D03*
D17*
%TO.P,SW10,S1*%
X116000000Y-68000000D03*
%TO.P,SW10,S2*%
X116000000Y-63000000D03*
%TD*%
D11*
%TO.P,D5,1,K*%
%TO.N,COL2*%
X137670000Y-96500000D03*
D12*
%TO.P,D5,2,A*%
%TO.N,Net-(D5-A)*%
X147830000Y-96500000D03*
%TD*%
D19*
%TO.P,J1,1,Pin_1*%
%TO.N,GND*%
X132525000Y-49950000D03*
D20*
%TO.P,J1,2,Pin_2*%
%TO.N,+3V3*%
X132525000Y-52490000D03*
%TO.P,J1,3,Pin_3*%
%TO.N,SCL*%
X132525000Y-55030000D03*
%TO.P,J1,4,Pin_4*%
%TO.N,SDA*%
X132525000Y-57570000D03*
%TD*%
D11*
%TO.P,D7,1,K*%
%TO.N,COL3*%
X152670000Y-62000000D03*
D12*
%TO.P,D7,2,A*%
%TO.N,Net-(D7-A)*%
X162830000Y-62000000D03*
%TD*%
D21*
%TO.N,Net-(D2-A)*%
X125763200Y-96250000D03*
%TO.N,GND*%
X126170600Y-54523300D03*
X161237100Y-54985400D03*
%TO.N,+5V*%
X123883700Y-57522500D03*
X156306500Y-58045200D03*
X154848300Y-104169100D03*
X122557800Y-104169100D03*
%TO.N,Net-(D10-DOUT)*%
X158358000Y-56300000D03*
X123601700Y-56300000D03*
%TO.N,+3V3*%
X119836400Y-58988800D03*
%TO.N,SDA*%
X130667900Y-90577800D03*
%TO.N,SCL*%
X119397500Y-91289100D03*
%TO.N,ENCA*%
X104624000Y-67828200D03*
%TO.N,ENCB*%
X103755800Y-72399800D03*
%TD*%
D22*
%TO.N,COL1*%
X104276700Y-97351700D02*
X128856600Y-97351700D01*
X131060000Y-96250000D02*
X129958300Y-96250000D01*
X100630000Y-92870000D02*
X100630000Y-93705000D01*
X100630000Y-93705000D02*
X104276700Y-97351700D01*
X128856600Y-97351700D02*
X129958300Y-96250000D01*
%TO.N,Net-(D1-A)*%
X131310000Y-63101700D02*
X130348300Y-63101700D01*
X130348300Y-63101700D02*
X123850000Y-69600000D01*
X131310000Y-62000000D02*
X131310000Y-63101700D01*
%TO.N,Net-(D2-A)*%
X123440000Y-96250000D02*
X125763200Y-96250000D01*
D23*
%TO.N,GND*%
X101500000Y-65500000D02*
X103004100Y-65500000D01*
X103004100Y-65500000D02*
X103004100Y-76629100D01*
X103170000Y-77630000D02*
X103170000Y-76795000D01*
X156201700Y-49950000D02*
X132525000Y-49950000D01*
X122149200Y-54523300D02*
X111172500Y-65500000D01*
X161237100Y-54985400D02*
X156201700Y-49950000D01*
X126170600Y-54523300D02*
X122149200Y-54523300D01*
X111172500Y-65500000D02*
X103004100Y-65500000D01*
X103004100Y-76629100D02*
X103170000Y-76795000D01*
D22*
%TO.N,COL2*%
X104282100Y-91757900D02*
X103170000Y-92870000D01*
X136568300Y-96500000D02*
X134801800Y-94733500D01*
X134801800Y-94733500D02*
X122391800Y-94733500D01*
X122391800Y-94733500D02*
X121869300Y-95256000D01*
X106774300Y-94547000D02*
X106774300Y-92397800D01*
X107483300Y-95256000D02*
X106774300Y-94547000D01*
X103170000Y-92870000D02*
X103170000Y-93705000D01*
X137670000Y-96500000D02*
X136568300Y-96500000D01*
X106774300Y-92397800D02*
X106134400Y-91757900D01*
X121869300Y-95256000D02*
X107483300Y-95256000D01*
X106134400Y-91757900D02*
X104282100Y-91757900D01*
%TO.N,COL3*%
X105710000Y-94085400D02*
X105710000Y-93705000D01*
X107287000Y-95662400D02*
X105710000Y-94085400D01*
X152670000Y-96750000D02*
X151568300Y-96750000D01*
X135105800Y-97601700D02*
X132639300Y-95135200D01*
X151568300Y-96750000D02*
X150716600Y-97601700D01*
X105710000Y-92870000D02*
X105710000Y-93705000D01*
X132639300Y-95135200D02*
X122840800Y-95135200D01*
X150716600Y-97601700D02*
X135105800Y-97601700D01*
X122313600Y-95662400D02*
X107287000Y-95662400D01*
X122840800Y-95135200D02*
X122313600Y-95662400D01*
%TO.N,Net-(D7-A)*%
X162830000Y-62000000D02*
X162830000Y-66630400D01*
X160968700Y-68491700D02*
X155138300Y-68491700D01*
X155138300Y-68491700D02*
X154030000Y-69600000D01*
X162830000Y-66630400D02*
X160968700Y-68491700D01*
D23*
%TO.N,+5V*%
X155476300Y-58875400D02*
X129953500Y-58875400D01*
X156306500Y-58045200D02*
X155476300Y-58875400D01*
X128600600Y-57522500D02*
X123883700Y-57522500D01*
X129953500Y-58875400D02*
X128600600Y-57522500D01*
X154848300Y-104169100D02*
X122557800Y-104169100D01*
X100630000Y-77630000D02*
X100630000Y-76795000D01*
D22*
%TO.N,Net-(D10-DOUT)*%
X158358000Y-56300000D02*
X123601700Y-56300000D01*
%TO.N,LED_DATA*%
X113330000Y-77630000D02*
X113330000Y-76795000D01*
D23*
%TO.N,+3V3*%
X132525000Y-52490000D02*
X131223300Y-52490000D01*
X105710000Y-77630000D02*
X105710000Y-76795000D01*
X123519000Y-55306200D02*
X119836400Y-58988800D01*
X128407100Y-55306200D02*
X123519000Y-55306200D01*
X131223300Y-52490000D02*
X128407100Y-55306200D01*
D22*
%TO.N,SDA*%
X113082200Y-90577800D02*
X130667900Y-90577800D01*
X110790000Y-92870000D02*
X113082200Y-90577800D01*
X110790000Y-92870000D02*
X110790000Y-93705000D01*
%TO.N,SCL*%
X114910900Y-91289100D02*
X119397500Y-91289100D01*
X113330000Y-92870000D02*
X114910900Y-91289100D01*
X113330000Y-92870000D02*
X113330000Y-93705000D01*
%TO.N,ROW1*%
X130293700Y-73149300D02*
X130293700Y-67153700D01*
X160380000Y-67060000D02*
X145290000Y-67060000D01*
X130293700Y-67153700D02*
X130200000Y-67060000D01*
X108250000Y-92870000D02*
X125947400Y-75172600D01*
X128270400Y-75172600D02*
X130293700Y-73149300D01*
X130293700Y-67153700D02*
X145196300Y-67153700D01*
X108250000Y-92870000D02*
X108250000Y-93705000D01*
X125947400Y-75172600D02*
X128270400Y-75172600D01*
X145196300Y-67153700D02*
X145290000Y-67060000D01*
%TO.N,ROW2*%
X136535100Y-90352000D02*
X131339800Y-90352000D01*
X130574800Y-89587000D02*
X130574800Y-82524800D01*
X139260200Y-87098200D02*
X139260200Y-87626900D01*
X131339800Y-90352000D02*
X130574800Y-89587000D01*
X139260200Y-87626900D02*
X136535100Y-90352000D01*
X131339800Y-90844500D02*
X131339800Y-90352000D01*
X160380000Y-82150000D02*
X145290000Y-82150000D01*
X129314300Y-92870000D02*
X131339800Y-90844500D01*
X115870000Y-92870000D02*
X115870000Y-93705000D01*
X145290000Y-82150000D02*
X144208400Y-82150000D01*
X115870000Y-92870000D02*
X129314300Y-92870000D01*
X130574800Y-82524800D02*
X130200000Y-82150000D01*
X144208400Y-82150000D02*
X139260200Y-87098200D01*
%TO.N,ENCA*%
X110790000Y-76795000D02*
X110901700Y-76683300D01*
X110901700Y-69935700D02*
X108794200Y-67828200D01*
X110901700Y-76683300D02*
X110901700Y-69935700D01*
X110790000Y-77630000D02*
X110790000Y-76795000D01*
X108794200Y-67828200D02*
X104624000Y-67828200D01*
%TO.N,ENCB*%
X108250000Y-77630000D02*
X108250000Y-76795000D01*
X103854800Y-72399800D02*
X103755800Y-72399800D01*
X108250000Y-76795000D02*
X103854800Y-72399800D01*
%TD*%
M02*
