M48
; DRILL file {KiCad 8.0.1} date 2026-09-05T00:54:25+0530
; FORMAT={-:-/ absolute / metric / decimal}
; #@! TF.CreationDate,2026-09-05T00:54:25+05:30
; #@! TF.GenerationSoftware,Kicad,Pcbnew,8.0.1
; #@! TF.FileFunction,MixedPlating,1,2
FMAT,2
METRIC
; #@! TA.AperFunction,Plated,PTH,ViaDrill
T1C0.300
; #@! TA.AperFunction,Plated,PTH,ComponentDrill
T2C0.800
; #@! TA.AperFunction,Plated,PTH,ComponentDrill
T3C0.889
; #@! TA.AperFunction,Plated,PTH,ComponentDrill
T4C1.000
; #@! TA.AperFunction,Plated,PTH,ComponentDrill
T5C1.500
; #@! TA.AperFunction,NonPlated,NPTH,ComponentDrill
T6C1.700
; #@! TA.AperFunction,NonPlated,NPTH,ComponentDrill
T7C4.000
%
G90
G05
T1
X103.756Y-72.4
X104.624Y-67.828
X119.397Y-91.289
X119.836Y-58.989
X122.558Y-104.169
X123.602Y-56.3
X123.884Y-57.523
X125.763Y-96.25
X126.171Y-54.523
X130.668Y-90.578
X154.848Y-104.169
X156.306Y-58.045
X158.358Y-56.3
X161.237Y-54.985
T2
X123.44Y-96.25
X123.69Y-62.0
X131.06Y-96.25
X131.31Y-62.0
X137.67Y-96.5
X137.92Y-62.0
X147.83Y-96.5
X148.08Y-62.0
X152.67Y-62.0
X152.67Y-96.75
X162.83Y-62.0
X162.83Y-96.75
T3
X100.63Y-77.63
X100.63Y-92.87
X103.17Y-77.63
X103.17Y-92.87
X105.71Y-77.63
X105.71Y-92.87
X108.25Y-77.63
X108.25Y-92.87
X110.79Y-77.63
X110.79Y-92.87
X113.33Y-77.63
X113.33Y-92.87
X115.87Y-77.63
X115.87Y-92.87
T4
X101.5Y-63.0
X101.5Y-65.5
X101.5Y-68.0
X116.0Y-63.0
X116.0Y-68.0
X132.525Y-49.95
X132.525Y-52.49
X132.525Y-55.03
X132.525Y-57.57
T5
X123.85Y-69.6
X123.85Y-84.69
X130.2Y-67.06
X130.2Y-82.15
X138.94Y-69.6
X138.94Y-84.69
X145.29Y-67.06
X145.29Y-82.15
X154.03Y-69.6
X154.03Y-84.69
X160.38Y-67.06
X160.38Y-82.15
T6
X122.58Y-72.14
X122.58Y-87.23
X132.74Y-72.14
X132.74Y-87.23
X137.67Y-72.14
X137.67Y-87.23
X147.83Y-72.14
X147.83Y-87.23
X152.76Y-72.14
X152.76Y-87.23
X162.92Y-72.14
X162.92Y-87.23
T7
X127.66Y-72.14
X127.66Y-87.23
X142.75Y-72.14
X142.75Y-87.23
X157.84Y-72.14
X157.84Y-87.23
T5
G00X108.35Y-59.9
M15
G01X109.65Y-59.9
M16
G05
G00X108.35Y-71.1
M15
G01X109.65Y-71.1
M16
G05
M30
