%TF.GenerationSoftware,KiCad,Pcbnew,8.0.1*%
%TF.CreationDate,2026-09-05T00:52:43+05:30*%
%TF.ProjectId,HackPad1,4861636b-5061-4643-912e-6b696361645f,rev?*%
%TF.SameCoordinates,Original*%
%TF.FileFunction,Legend,Bot*%
%TF.FilePolarity,Positive*%
%FSLAX46Y46*%
G04 Gerber Fmt 4.6, Leading zero omitted, Abs format (unit mm)*
G04 Created by KiCad (PCBNEW 8.0.1) date 2026-09-05 00:52:43*
%MOMM*%
%LPD*%
G01*
G04 APERTURE LIST*
%ADD10C,0.150000*%
%ADD11C,0.120000*%
G04 APERTURE END LIST*
D10*
X158714285Y-53454819D02*
X158714285Y-52454819D01*
X158714285Y-52454819D02*
X158476190Y-52454819D01*
X158476190Y-52454819D02*
X158333333Y-52502438D01*
X158333333Y-52502438D02*
X158238095Y-52597676D01*
X158238095Y-52597676D02*
X158190476Y-52692914D01*
X158190476Y-52692914D02*
X158142857Y-52883390D01*
X158142857Y-52883390D02*
X158142857Y-53026247D01*
X158142857Y-53026247D02*
X158190476Y-53216723D01*
X158190476Y-53216723D02*
X158238095Y-53311961D01*
X158238095Y-53311961D02*
X158333333Y-53407200D01*
X158333333Y-53407200D02*
X158476190Y-53454819D01*
X158476190Y-53454819D02*
X158714285Y-53454819D01*
X157190476Y-53454819D02*
X157761904Y-53454819D01*
X157476190Y-53454819D02*
X157476190Y-52454819D01*
X157476190Y-52454819D02*
X157571428Y-52597676D01*
X157571428Y-52597676D02*
X157666666Y-52692914D01*
X157666666Y-52692914D02*
X157761904Y-52740533D01*
X156238095Y-53454819D02*
X156809523Y-53454819D01*
X156523809Y-53454819D02*
X156523809Y-52454819D01*
X156523809Y-52454819D02*
X156619047Y-52597676D01*
X156619047Y-52597676D02*
X156714285Y-52692914D01*
X156714285Y-52692914D02*
X156809523Y-52740533D01*
X126214285Y-53454819D02*
X126214285Y-52454819D01*
X126214285Y-52454819D02*
X125976190Y-52454819D01*
X125976190Y-52454819D02*
X125833333Y-52502438D01*
X125833333Y-52502438D02*
X125738095Y-52597676D01*
X125738095Y-52597676D02*
X125690476Y-52692914D01*
X125690476Y-52692914D02*
X125642857Y-52883390D01*
X125642857Y-52883390D02*
X125642857Y-53026247D01*
X125642857Y-53026247D02*
X125690476Y-53216723D01*
X125690476Y-53216723D02*
X125738095Y-53311961D01*
X125738095Y-53311961D02*
X125833333Y-53407200D01*
X125833333Y-53407200D02*
X125976190Y-53454819D01*
X125976190Y-53454819D02*
X126214285Y-53454819D01*
X124690476Y-53454819D02*
X125261904Y-53454819D01*
X124976190Y-53454819D02*
X124976190Y-52454819D01*
X124976190Y-52454819D02*
X125071428Y-52597676D01*
X125071428Y-52597676D02*
X125166666Y-52692914D01*
X125166666Y-52692914D02*
X125261904Y-52740533D01*
X124071428Y-52454819D02*
X123976190Y-52454819D01*
X123976190Y-52454819D02*
X123880952Y-52502438D01*
X123880952Y-52502438D02*
X123833333Y-52550057D01*
X123833333Y-52550057D02*
X123785714Y-52645295D01*
X123785714Y-52645295D02*
X123738095Y-52835771D01*
X123738095Y-52835771D02*
X123738095Y-53073866D01*
X123738095Y-53073866D02*
X123785714Y-53264342D01*
X123785714Y-53264342D02*
X123833333Y-53359580D01*
X123833333Y-53359580D02*
X123880952Y-53407200D01*
X123880952Y-53407200D02*
X123976190Y-53454819D01*
X123976190Y-53454819D02*
X124071428Y-53454819D01*
X124071428Y-53454819D02*
X124166666Y-53407200D01*
X124166666Y-53407200D02*
X124214285Y-53359580D01*
X124214285Y-53359580D02*
X124261904Y-53264342D01*
X124261904Y-53264342D02*
X124309523Y-53073866D01*
X124309523Y-53073866D02*
X124309523Y-52835771D01*
X124309523Y-52835771D02*
X124261904Y-52645295D01*
X124261904Y-52645295D02*
X124214285Y-52550057D01*
X124214285Y-52550057D02*
X124166666Y-52502438D01*
X124166666Y-52502438D02*
X124071428Y-52454819D01*
X127514285Y-98804819D02*
X127514285Y-97804819D01*
X127514285Y-97804819D02*
X127276190Y-97804819D01*
X127276190Y-97804819D02*
X127133333Y-97852438D01*
X127133333Y-97852438D02*
X127038095Y-97947676D01*
X127038095Y-97947676D02*
X126990476Y-98042914D01*
X126990476Y-98042914D02*
X126942857Y-98233390D01*
X126942857Y-98233390D02*
X126942857Y-98376247D01*
X126942857Y-98376247D02*
X126990476Y-98566723D01*
X126990476Y-98566723D02*
X127038095Y-98661961D01*
X127038095Y-98661961D02*
X127133333Y-98757200D01*
X127133333Y-98757200D02*
X127276190Y-98804819D01*
X127276190Y-98804819D02*
X127514285Y-98804819D01*
X125990476Y-98804819D02*
X126561904Y-98804819D01*
X126276190Y-98804819D02*
X126276190Y-97804819D01*
X126276190Y-97804819D02*
X126371428Y-97947676D01*
X126371428Y-97947676D02*
X126466666Y-98042914D01*
X126466666Y-98042914D02*
X126561904Y-98090533D01*
X125657142Y-97804819D02*
X125038095Y-97804819D01*
X125038095Y-97804819D02*
X125371428Y-98185771D01*
X125371428Y-98185771D02*
X125228571Y-98185771D01*
X125228571Y-98185771D02*
X125133333Y-98233390D01*
X125133333Y-98233390D02*
X125085714Y-98281009D01*
X125085714Y-98281009D02*
X125038095Y-98376247D01*
X125038095Y-98376247D02*
X125038095Y-98614342D01*
X125038095Y-98614342D02*
X125085714Y-98709580D01*
X125085714Y-98709580D02*
X125133333Y-98757200D01*
X125133333Y-98757200D02*
X125228571Y-98804819D01*
X125228571Y-98804819D02*
X125514285Y-98804819D01*
X125514285Y-98804819D02*
X125609523Y-98757200D01*
X125609523Y-98757200D02*
X125657142Y-98709580D01*
X159714285Y-98704819D02*
X159714285Y-97704819D01*
X159714285Y-97704819D02*
X159476190Y-97704819D01*
X159476190Y-97704819D02*
X159333333Y-97752438D01*
X159333333Y-97752438D02*
X159238095Y-97847676D01*
X159238095Y-97847676D02*
X159190476Y-97942914D01*
X159190476Y-97942914D02*
X159142857Y-98133390D01*
X159142857Y-98133390D02*
X159142857Y-98276247D01*
X159142857Y-98276247D02*
X159190476Y-98466723D01*
X159190476Y-98466723D02*
X159238095Y-98561961D01*
X159238095Y-98561961D02*
X159333333Y-98657200D01*
X159333333Y-98657200D02*
X159476190Y-98704819D01*
X159476190Y-98704819D02*
X159714285Y-98704819D01*
X158190476Y-98704819D02*
X158761904Y-98704819D01*
X158476190Y-98704819D02*
X158476190Y-97704819D01*
X158476190Y-97704819D02*
X158571428Y-97847676D01*
X158571428Y-97847676D02*
X158666666Y-97942914D01*
X158666666Y-97942914D02*
X158761904Y-97990533D01*
X157809523Y-97800057D02*
X157761904Y-97752438D01*
X157761904Y-97752438D02*
X157666666Y-97704819D01*
X157666666Y-97704819D02*
X157428571Y-97704819D01*
X157428571Y-97704819D02*
X157333333Y-97752438D01*
X157333333Y-97752438D02*
X157285714Y-97800057D01*
X157285714Y-97800057D02*
X157238095Y-97895295D01*
X157238095Y-97895295D02*
X157238095Y-97990533D01*
X157238095Y-97990533D02*
X157285714Y-98133390D01*
X157285714Y-98133390D02*
X157857142Y-98704819D01*
X157857142Y-98704819D02*
X157238095Y-98704819D01*
D11*
%TO.C,D11*%
X153850000Y-53750000D02*
X161150000Y-53750000D01*
X153850000Y-58100000D02*
X153850000Y-59250000D01*
X153850000Y-59250000D02*
X161150000Y-59250000D01*
%TO.C,D10*%
X121350000Y-53750000D02*
X128650000Y-53750000D01*
X121350000Y-58100000D02*
X121350000Y-59250000D01*
X121350000Y-59250000D02*
X128650000Y-59250000D01*
%TO.C,D13*%
X122650000Y-99100000D02*
X129950000Y-99100000D01*
X122650000Y-103450000D02*
X122650000Y-104600000D01*
X122650000Y-104600000D02*
X129950000Y-104600000D01*
%TO.C,D12*%
X154850000Y-99000000D02*
X162150000Y-99000000D01*
X154850000Y-103350000D02*
X154850000Y-104500000D01*
X154850000Y-104500000D02*
X162150000Y-104500000D01*
%TD*%
M02*
