%TF.GenerationSoftware,KiCad,Pcbnew,8.0.1*%
%TF.CreationDate,2026-09-05T00:52:43+05:30*%
%TF.ProjectId,HackPad1,4861636b-5061-4643-912e-6b696361645f,rev?*%
%TF.SameCoordinates,Original*%
%TF.FileFunction,Legend,Top*%
%TF.FilePolarity,Positive*%
%FSLAX46Y46*%
G04 Gerber Fmt 4.6, Leading zero omitted, Abs format (unit mm)*
G04 Created by KiCad (PCBNEW 8.0.1) date 2026-09-05 00:52:43*
%MOMM*%
%LPD*%
G01*
G04 APERTURE LIST*
%ADD10C,0.150000*%
%ADD11C,0.101600*%
%ADD12C,0.120000*%
%ADD13C,0.127000*%
%ADD14C,0.100000*%
%ADD15C,0.504000*%
G04 APERTURE END LIST*
D10*
X126326667Y-79763200D02*
X126469524Y-79810819D01*
X126469524Y-79810819D02*
X126707619Y-79810819D01*
X126707619Y-79810819D02*
X126802857Y-79763200D01*
X126802857Y-79763200D02*
X126850476Y-79715580D01*
X126850476Y-79715580D02*
X126898095Y-79620342D01*
X126898095Y-79620342D02*
X126898095Y-79525104D01*
X126898095Y-79525104D02*
X126850476Y-79429866D01*
X126850476Y-79429866D02*
X126802857Y-79382247D01*
X126802857Y-79382247D02*
X126707619Y-79334628D01*
X126707619Y-79334628D02*
X126517143Y-79287009D01*
X126517143Y-79287009D02*
X126421905Y-79239390D01*
X126421905Y-79239390D02*
X126374286Y-79191771D01*
X126374286Y-79191771D02*
X126326667Y-79096533D01*
X126326667Y-79096533D02*
X126326667Y-79001295D01*
X126326667Y-79001295D02*
X126374286Y-78906057D01*
X126374286Y-78906057D02*
X126421905Y-78858438D01*
X126421905Y-78858438D02*
X126517143Y-78810819D01*
X126517143Y-78810819D02*
X126755238Y-78810819D01*
X126755238Y-78810819D02*
X126898095Y-78858438D01*
X127231429Y-78810819D02*
X127469524Y-79810819D01*
X127469524Y-79810819D02*
X127660000Y-79096533D01*
X127660000Y-79096533D02*
X127850476Y-79810819D01*
X127850476Y-79810819D02*
X128088572Y-78810819D01*
X128421905Y-78906057D02*
X128469524Y-78858438D01*
X128469524Y-78858438D02*
X128564762Y-78810819D01*
X128564762Y-78810819D02*
X128802857Y-78810819D01*
X128802857Y-78810819D02*
X128898095Y-78858438D01*
X128898095Y-78858438D02*
X128945714Y-78906057D01*
X128945714Y-78906057D02*
X128993333Y-79001295D01*
X128993333Y-79001295D02*
X128993333Y-79096533D01*
X128993333Y-79096533D02*
X128945714Y-79239390D01*
X128945714Y-79239390D02*
X128374286Y-79810819D01*
X128374286Y-79810819D02*
X128993333Y-79810819D01*
X126511905Y-98824819D02*
X126511905Y-97824819D01*
X126511905Y-97824819D02*
X126750000Y-97824819D01*
X126750000Y-97824819D02*
X126892857Y-97872438D01*
X126892857Y-97872438D02*
X126988095Y-97967676D01*
X126988095Y-97967676D02*
X127035714Y-98062914D01*
X127035714Y-98062914D02*
X127083333Y-98253390D01*
X127083333Y-98253390D02*
X127083333Y-98396247D01*
X127083333Y-98396247D02*
X127035714Y-98586723D01*
X127035714Y-98586723D02*
X126988095Y-98681961D01*
X126988095Y-98681961D02*
X126892857Y-98777200D01*
X126892857Y-98777200D02*
X126750000Y-98824819D01*
X126750000Y-98824819D02*
X126511905Y-98824819D01*
X127464286Y-97920057D02*
X127511905Y-97872438D01*
X127511905Y-97872438D02*
X127607143Y-97824819D01*
X127607143Y-97824819D02*
X127845238Y-97824819D01*
X127845238Y-97824819D02*
X127940476Y-97872438D01*
X127940476Y-97872438D02*
X127988095Y-97920057D01*
X127988095Y-97920057D02*
X128035714Y-98015295D01*
X128035714Y-98015295D02*
X128035714Y-98110533D01*
X128035714Y-98110533D02*
X127988095Y-98253390D01*
X127988095Y-98253390D02*
X127416667Y-98824819D01*
X127416667Y-98824819D02*
X128035714Y-98824819D01*
X130798095Y-98504819D02*
X130798095Y-97504819D01*
X131369523Y-98504819D02*
X130940952Y-97933390D01*
X131369523Y-97504819D02*
X130798095Y-98076247D01*
X141416667Y-64673200D02*
X141559524Y-64720819D01*
X141559524Y-64720819D02*
X141797619Y-64720819D01*
X141797619Y-64720819D02*
X141892857Y-64673200D01*
X141892857Y-64673200D02*
X141940476Y-64625580D01*
X141940476Y-64625580D02*
X141988095Y-64530342D01*
X141988095Y-64530342D02*
X141988095Y-64435104D01*
X141988095Y-64435104D02*
X141940476Y-64339866D01*
X141940476Y-64339866D02*
X141892857Y-64292247D01*
X141892857Y-64292247D02*
X141797619Y-64244628D01*
X141797619Y-64244628D02*
X141607143Y-64197009D01*
X141607143Y-64197009D02*
X141511905Y-64149390D01*
X141511905Y-64149390D02*
X141464286Y-64101771D01*
X141464286Y-64101771D02*
X141416667Y-64006533D01*
X141416667Y-64006533D02*
X141416667Y-63911295D01*
X141416667Y-63911295D02*
X141464286Y-63816057D01*
X141464286Y-63816057D02*
X141511905Y-63768438D01*
X141511905Y-63768438D02*
X141607143Y-63720819D01*
X141607143Y-63720819D02*
X141845238Y-63720819D01*
X141845238Y-63720819D02*
X141988095Y-63768438D01*
X142321429Y-63720819D02*
X142559524Y-64720819D01*
X142559524Y-64720819D02*
X142750000Y-64006533D01*
X142750000Y-64006533D02*
X142940476Y-64720819D01*
X142940476Y-64720819D02*
X143178572Y-63720819D01*
X143988095Y-64054152D02*
X143988095Y-64720819D01*
X143750000Y-63673200D02*
X143511905Y-64387485D01*
X143511905Y-64387485D02*
X144130952Y-64387485D01*
X141416667Y-79763200D02*
X141559524Y-79810819D01*
X141559524Y-79810819D02*
X141797619Y-79810819D01*
X141797619Y-79810819D02*
X141892857Y-79763200D01*
X141892857Y-79763200D02*
X141940476Y-79715580D01*
X141940476Y-79715580D02*
X141988095Y-79620342D01*
X141988095Y-79620342D02*
X141988095Y-79525104D01*
X141988095Y-79525104D02*
X141940476Y-79429866D01*
X141940476Y-79429866D02*
X141892857Y-79382247D01*
X141892857Y-79382247D02*
X141797619Y-79334628D01*
X141797619Y-79334628D02*
X141607143Y-79287009D01*
X141607143Y-79287009D02*
X141511905Y-79239390D01*
X141511905Y-79239390D02*
X141464286Y-79191771D01*
X141464286Y-79191771D02*
X141416667Y-79096533D01*
X141416667Y-79096533D02*
X141416667Y-79001295D01*
X141416667Y-79001295D02*
X141464286Y-78906057D01*
X141464286Y-78906057D02*
X141511905Y-78858438D01*
X141511905Y-78858438D02*
X141607143Y-78810819D01*
X141607143Y-78810819D02*
X141845238Y-78810819D01*
X141845238Y-78810819D02*
X141988095Y-78858438D01*
X142321429Y-78810819D02*
X142559524Y-79810819D01*
X142559524Y-79810819D02*
X142750000Y-79096533D01*
X142750000Y-79096533D02*
X142940476Y-79810819D01*
X142940476Y-79810819D02*
X143178572Y-78810819D01*
X144035714Y-78810819D02*
X143559524Y-78810819D01*
X143559524Y-78810819D02*
X143511905Y-79287009D01*
X143511905Y-79287009D02*
X143559524Y-79239390D01*
X143559524Y-79239390D02*
X143654762Y-79191771D01*
X143654762Y-79191771D02*
X143892857Y-79191771D01*
X143892857Y-79191771D02*
X143988095Y-79239390D01*
X143988095Y-79239390D02*
X144035714Y-79287009D01*
X144035714Y-79287009D02*
X144083333Y-79382247D01*
X144083333Y-79382247D02*
X144083333Y-79620342D01*
X144083333Y-79620342D02*
X144035714Y-79715580D01*
X144035714Y-79715580D02*
X143988095Y-79763200D01*
X143988095Y-79763200D02*
X143892857Y-79810819D01*
X143892857Y-79810819D02*
X143654762Y-79810819D01*
X143654762Y-79810819D02*
X143559524Y-79763200D01*
X143559524Y-79763200D02*
X143511905Y-79715580D01*
X126761905Y-60334819D02*
X126761905Y-59334819D01*
X126761905Y-59334819D02*
X127000000Y-59334819D01*
X127000000Y-59334819D02*
X127142857Y-59382438D01*
X127142857Y-59382438D02*
X127238095Y-59477676D01*
X127238095Y-59477676D02*
X127285714Y-59572914D01*
X127285714Y-59572914D02*
X127333333Y-59763390D01*
X127333333Y-59763390D02*
X127333333Y-59906247D01*
X127333333Y-59906247D02*
X127285714Y-60096723D01*
X127285714Y-60096723D02*
X127238095Y-60191961D01*
X127238095Y-60191961D02*
X127142857Y-60287200D01*
X127142857Y-60287200D02*
X127000000Y-60334819D01*
X127000000Y-60334819D02*
X126761905Y-60334819D01*
X128285714Y-60334819D02*
X127714286Y-60334819D01*
X128000000Y-60334819D02*
X128000000Y-59334819D01*
X128000000Y-59334819D02*
X127904762Y-59477676D01*
X127904762Y-59477676D02*
X127809524Y-59572914D01*
X127809524Y-59572914D02*
X127714286Y-59620533D01*
X123428095Y-60654819D02*
X123428095Y-59654819D01*
X123999523Y-60654819D02*
X123570952Y-60083390D01*
X123999523Y-59654819D02*
X123428095Y-60226247D01*
X156506667Y-64673200D02*
X156649524Y-64720819D01*
X156649524Y-64720819D02*
X156887619Y-64720819D01*
X156887619Y-64720819D02*
X156982857Y-64673200D01*
X156982857Y-64673200D02*
X157030476Y-64625580D01*
X157030476Y-64625580D02*
X157078095Y-64530342D01*
X157078095Y-64530342D02*
X157078095Y-64435104D01*
X157078095Y-64435104D02*
X157030476Y-64339866D01*
X157030476Y-64339866D02*
X156982857Y-64292247D01*
X156982857Y-64292247D02*
X156887619Y-64244628D01*
X156887619Y-64244628D02*
X156697143Y-64197009D01*
X156697143Y-64197009D02*
X156601905Y-64149390D01*
X156601905Y-64149390D02*
X156554286Y-64101771D01*
X156554286Y-64101771D02*
X156506667Y-64006533D01*
X156506667Y-64006533D02*
X156506667Y-63911295D01*
X156506667Y-63911295D02*
X156554286Y-63816057D01*
X156554286Y-63816057D02*
X156601905Y-63768438D01*
X156601905Y-63768438D02*
X156697143Y-63720819D01*
X156697143Y-63720819D02*
X156935238Y-63720819D01*
X156935238Y-63720819D02*
X157078095Y-63768438D01*
X157411429Y-63720819D02*
X157649524Y-64720819D01*
X157649524Y-64720819D02*
X157840000Y-64006533D01*
X157840000Y-64006533D02*
X158030476Y-64720819D01*
X158030476Y-64720819D02*
X158268572Y-63720819D01*
X158554286Y-63720819D02*
X159220952Y-63720819D01*
X159220952Y-63720819D02*
X158792381Y-64720819D01*
X126326667Y-64673200D02*
X126469524Y-64720819D01*
X126469524Y-64720819D02*
X126707619Y-64720819D01*
X126707619Y-64720819D02*
X126802857Y-64673200D01*
X126802857Y-64673200D02*
X126850476Y-64625580D01*
X126850476Y-64625580D02*
X126898095Y-64530342D01*
X126898095Y-64530342D02*
X126898095Y-64435104D01*
X126898095Y-64435104D02*
X126850476Y-64339866D01*
X126850476Y-64339866D02*
X126802857Y-64292247D01*
X126802857Y-64292247D02*
X126707619Y-64244628D01*
X126707619Y-64244628D02*
X126517143Y-64197009D01*
X126517143Y-64197009D02*
X126421905Y-64149390D01*
X126421905Y-64149390D02*
X126374286Y-64101771D01*
X126374286Y-64101771D02*
X126326667Y-64006533D01*
X126326667Y-64006533D02*
X126326667Y-63911295D01*
X126326667Y-63911295D02*
X126374286Y-63816057D01*
X126374286Y-63816057D02*
X126421905Y-63768438D01*
X126421905Y-63768438D02*
X126517143Y-63720819D01*
X126517143Y-63720819D02*
X126755238Y-63720819D01*
X126755238Y-63720819D02*
X126898095Y-63768438D01*
X127231429Y-63720819D02*
X127469524Y-64720819D01*
X127469524Y-64720819D02*
X127660000Y-64006533D01*
X127660000Y-64006533D02*
X127850476Y-64720819D01*
X127850476Y-64720819D02*
X128088572Y-63720819D01*
X128993333Y-64720819D02*
X128421905Y-64720819D01*
X128707619Y-64720819D02*
X128707619Y-63720819D01*
X128707619Y-63720819D02*
X128612381Y-63863676D01*
X128612381Y-63863676D02*
X128517143Y-63958914D01*
X128517143Y-63958914D02*
X128421905Y-64006533D01*
X142261905Y-60334819D02*
X142261905Y-59334819D01*
X142261905Y-59334819D02*
X142500000Y-59334819D01*
X142500000Y-59334819D02*
X142642857Y-59382438D01*
X142642857Y-59382438D02*
X142738095Y-59477676D01*
X142738095Y-59477676D02*
X142785714Y-59572914D01*
X142785714Y-59572914D02*
X142833333Y-59763390D01*
X142833333Y-59763390D02*
X142833333Y-59906247D01*
X142833333Y-59906247D02*
X142785714Y-60096723D01*
X142785714Y-60096723D02*
X142738095Y-60191961D01*
X142738095Y-60191961D02*
X142642857Y-60287200D01*
X142642857Y-60287200D02*
X142500000Y-60334819D01*
X142500000Y-60334819D02*
X142261905Y-60334819D01*
X143690476Y-59668152D02*
X143690476Y-60334819D01*
X143452381Y-59287200D02*
X143214286Y-60001485D01*
X143214286Y-60001485D02*
X143833333Y-60001485D01*
X137658095Y-60654819D02*
X137658095Y-59654819D01*
X138229523Y-60654819D02*
X137800952Y-60083390D01*
X138229523Y-59654819D02*
X137658095Y-60226247D01*
X156506667Y-79763200D02*
X156649524Y-79810819D01*
X156649524Y-79810819D02*
X156887619Y-79810819D01*
X156887619Y-79810819D02*
X156982857Y-79763200D01*
X156982857Y-79763200D02*
X157030476Y-79715580D01*
X157030476Y-79715580D02*
X157078095Y-79620342D01*
X157078095Y-79620342D02*
X157078095Y-79525104D01*
X157078095Y-79525104D02*
X157030476Y-79429866D01*
X157030476Y-79429866D02*
X156982857Y-79382247D01*
X156982857Y-79382247D02*
X156887619Y-79334628D01*
X156887619Y-79334628D02*
X156697143Y-79287009D01*
X156697143Y-79287009D02*
X156601905Y-79239390D01*
X156601905Y-79239390D02*
X156554286Y-79191771D01*
X156554286Y-79191771D02*
X156506667Y-79096533D01*
X156506667Y-79096533D02*
X156506667Y-79001295D01*
X156506667Y-79001295D02*
X156554286Y-78906057D01*
X156554286Y-78906057D02*
X156601905Y-78858438D01*
X156601905Y-78858438D02*
X156697143Y-78810819D01*
X156697143Y-78810819D02*
X156935238Y-78810819D01*
X156935238Y-78810819D02*
X157078095Y-78858438D01*
X157411429Y-78810819D02*
X157649524Y-79810819D01*
X157649524Y-79810819D02*
X157840000Y-79096533D01*
X157840000Y-79096533D02*
X158030476Y-79810819D01*
X158030476Y-79810819D02*
X158268572Y-78810819D01*
X158792381Y-79239390D02*
X158697143Y-79191771D01*
X158697143Y-79191771D02*
X158649524Y-79144152D01*
X158649524Y-79144152D02*
X158601905Y-79048914D01*
X158601905Y-79048914D02*
X158601905Y-79001295D01*
X158601905Y-79001295D02*
X158649524Y-78906057D01*
X158649524Y-78906057D02*
X158697143Y-78858438D01*
X158697143Y-78858438D02*
X158792381Y-78810819D01*
X158792381Y-78810819D02*
X158982857Y-78810819D01*
X158982857Y-78810819D02*
X159078095Y-78858438D01*
X159078095Y-78858438D02*
X159125714Y-78906057D01*
X159125714Y-78906057D02*
X159173333Y-79001295D01*
X159173333Y-79001295D02*
X159173333Y-79048914D01*
X159173333Y-79048914D02*
X159125714Y-79144152D01*
X159125714Y-79144152D02*
X159078095Y-79191771D01*
X159078095Y-79191771D02*
X158982857Y-79239390D01*
X158982857Y-79239390D02*
X158792381Y-79239390D01*
X158792381Y-79239390D02*
X158697143Y-79287009D01*
X158697143Y-79287009D02*
X158649524Y-79334628D01*
X158649524Y-79334628D02*
X158601905Y-79429866D01*
X158601905Y-79429866D02*
X158601905Y-79620342D01*
X158601905Y-79620342D02*
X158649524Y-79715580D01*
X158649524Y-79715580D02*
X158697143Y-79763200D01*
X158697143Y-79763200D02*
X158792381Y-79810819D01*
X158792381Y-79810819D02*
X158982857Y-79810819D01*
X158982857Y-79810819D02*
X159078095Y-79763200D01*
X159078095Y-79763200D02*
X159125714Y-79715580D01*
X159125714Y-79715580D02*
X159173333Y-79620342D01*
X159173333Y-79620342D02*
X159173333Y-79429866D01*
X159173333Y-79429866D02*
X159125714Y-79334628D01*
X159125714Y-79334628D02*
X159078095Y-79287009D01*
X159078095Y-79287009D02*
X158982857Y-79239390D01*
D11*
X108608809Y-95821520D02*
X108608809Y-95307473D01*
X108608809Y-95307473D02*
X108578571Y-95246997D01*
X108578571Y-95246997D02*
X108548333Y-95216759D01*
X108548333Y-95216759D02*
X108487857Y-95186520D01*
X108487857Y-95186520D02*
X108366904Y-95186520D01*
X108366904Y-95186520D02*
X108306428Y-95216759D01*
X108306428Y-95216759D02*
X108276190Y-95246997D01*
X108276190Y-95246997D02*
X108245952Y-95307473D01*
X108245952Y-95307473D02*
X108245952Y-95821520D01*
X107610952Y-95186520D02*
X107973809Y-95186520D01*
X107792381Y-95186520D02*
X107792381Y-95821520D01*
X107792381Y-95821520D02*
X107852857Y-95730806D01*
X107852857Y-95730806D02*
X107913333Y-95670330D01*
X107913333Y-95670330D02*
X107973809Y-95640092D01*
D10*
X157011905Y-95084819D02*
X157011905Y-94084819D01*
X157011905Y-94084819D02*
X157250000Y-94084819D01*
X157250000Y-94084819D02*
X157392857Y-94132438D01*
X157392857Y-94132438D02*
X157488095Y-94227676D01*
X157488095Y-94227676D02*
X157535714Y-94322914D01*
X157535714Y-94322914D02*
X157583333Y-94513390D01*
X157583333Y-94513390D02*
X157583333Y-94656247D01*
X157583333Y-94656247D02*
X157535714Y-94846723D01*
X157535714Y-94846723D02*
X157488095Y-94941961D01*
X157488095Y-94941961D02*
X157392857Y-95037200D01*
X157392857Y-95037200D02*
X157250000Y-95084819D01*
X157250000Y-95084819D02*
X157011905Y-95084819D01*
X158154762Y-94513390D02*
X158059524Y-94465771D01*
X158059524Y-94465771D02*
X158011905Y-94418152D01*
X158011905Y-94418152D02*
X157964286Y-94322914D01*
X157964286Y-94322914D02*
X157964286Y-94275295D01*
X157964286Y-94275295D02*
X158011905Y-94180057D01*
X158011905Y-94180057D02*
X158059524Y-94132438D01*
X158059524Y-94132438D02*
X158154762Y-94084819D01*
X158154762Y-94084819D02*
X158345238Y-94084819D01*
X158345238Y-94084819D02*
X158440476Y-94132438D01*
X158440476Y-94132438D02*
X158488095Y-94180057D01*
X158488095Y-94180057D02*
X158535714Y-94275295D01*
X158535714Y-94275295D02*
X158535714Y-94322914D01*
X158535714Y-94322914D02*
X158488095Y-94418152D01*
X158488095Y-94418152D02*
X158440476Y-94465771D01*
X158440476Y-94465771D02*
X158345238Y-94513390D01*
X158345238Y-94513390D02*
X158154762Y-94513390D01*
X158154762Y-94513390D02*
X158059524Y-94561009D01*
X158059524Y-94561009D02*
X158011905Y-94608628D01*
X158011905Y-94608628D02*
X157964286Y-94703866D01*
X157964286Y-94703866D02*
X157964286Y-94894342D01*
X157964286Y-94894342D02*
X158011905Y-94989580D01*
X158011905Y-94989580D02*
X158059524Y-95037200D01*
X158059524Y-95037200D02*
X158154762Y-95084819D01*
X158154762Y-95084819D02*
X158345238Y-95084819D01*
X158345238Y-95084819D02*
X158440476Y-95037200D01*
X158440476Y-95037200D02*
X158488095Y-94989580D01*
X158488095Y-94989580D02*
X158535714Y-94894342D01*
X158535714Y-94894342D02*
X158535714Y-94703866D01*
X158535714Y-94703866D02*
X158488095Y-94608628D01*
X158488095Y-94608628D02*
X158440476Y-94561009D01*
X158440476Y-94561009D02*
X158345238Y-94513390D01*
X152408095Y-95404819D02*
X152408095Y-94404819D01*
X152979523Y-95404819D02*
X152550952Y-94833390D01*
X152979523Y-94404819D02*
X152408095Y-94976247D01*
X102490476Y-58707200D02*
X102633333Y-58754819D01*
X102633333Y-58754819D02*
X102871428Y-58754819D01*
X102871428Y-58754819D02*
X102966666Y-58707200D01*
X102966666Y-58707200D02*
X103014285Y-58659580D01*
X103014285Y-58659580D02*
X103061904Y-58564342D01*
X103061904Y-58564342D02*
X103061904Y-58469104D01*
X103061904Y-58469104D02*
X103014285Y-58373866D01*
X103014285Y-58373866D02*
X102966666Y-58326247D01*
X102966666Y-58326247D02*
X102871428Y-58278628D01*
X102871428Y-58278628D02*
X102680952Y-58231009D01*
X102680952Y-58231009D02*
X102585714Y-58183390D01*
X102585714Y-58183390D02*
X102538095Y-58135771D01*
X102538095Y-58135771D02*
X102490476Y-58040533D01*
X102490476Y-58040533D02*
X102490476Y-57945295D01*
X102490476Y-57945295D02*
X102538095Y-57850057D01*
X102538095Y-57850057D02*
X102585714Y-57802438D01*
X102585714Y-57802438D02*
X102680952Y-57754819D01*
X102680952Y-57754819D02*
X102919047Y-57754819D01*
X102919047Y-57754819D02*
X103061904Y-57802438D01*
X103395238Y-57754819D02*
X103633333Y-58754819D01*
X103633333Y-58754819D02*
X103823809Y-58040533D01*
X103823809Y-58040533D02*
X104014285Y-58754819D01*
X104014285Y-58754819D02*
X104252381Y-57754819D01*
X105157142Y-58754819D02*
X104585714Y-58754819D01*
X104871428Y-58754819D02*
X104871428Y-57754819D01*
X104871428Y-57754819D02*
X104776190Y-57897676D01*
X104776190Y-57897676D02*
X104680952Y-57992914D01*
X104680952Y-57992914D02*
X104585714Y-58040533D01*
X105776190Y-57754819D02*
X105871428Y-57754819D01*
X105871428Y-57754819D02*
X105966666Y-57802438D01*
X105966666Y-57802438D02*
X106014285Y-57850057D01*
X106014285Y-57850057D02*
X106061904Y-57945295D01*
X106061904Y-57945295D02*
X106109523Y-58135771D01*
X106109523Y-58135771D02*
X106109523Y-58373866D01*
X106109523Y-58373866D02*
X106061904Y-58564342D01*
X106061904Y-58564342D02*
X106014285Y-58659580D01*
X106014285Y-58659580D02*
X105966666Y-58707200D01*
X105966666Y-58707200D02*
X105871428Y-58754819D01*
X105871428Y-58754819D02*
X105776190Y-58754819D01*
X105776190Y-58754819D02*
X105680952Y-58707200D01*
X105680952Y-58707200D02*
X105633333Y-58659580D01*
X105633333Y-58659580D02*
X105585714Y-58564342D01*
X105585714Y-58564342D02*
X105538095Y-58373866D01*
X105538095Y-58373866D02*
X105538095Y-58135771D01*
X105538095Y-58135771D02*
X105585714Y-57945295D01*
X105585714Y-57945295D02*
X105633333Y-57850057D01*
X105633333Y-57850057D02*
X105680952Y-57802438D01*
X105680952Y-57802438D02*
X105776190Y-57754819D01*
X142011905Y-94834819D02*
X142011905Y-93834819D01*
X142011905Y-93834819D02*
X142250000Y-93834819D01*
X142250000Y-93834819D02*
X142392857Y-93882438D01*
X142392857Y-93882438D02*
X142488095Y-93977676D01*
X142488095Y-93977676D02*
X142535714Y-94072914D01*
X142535714Y-94072914D02*
X142583333Y-94263390D01*
X142583333Y-94263390D02*
X142583333Y-94406247D01*
X142583333Y-94406247D02*
X142535714Y-94596723D01*
X142535714Y-94596723D02*
X142488095Y-94691961D01*
X142488095Y-94691961D02*
X142392857Y-94787200D01*
X142392857Y-94787200D02*
X142250000Y-94834819D01*
X142250000Y-94834819D02*
X142011905Y-94834819D01*
X143488095Y-93834819D02*
X143011905Y-93834819D01*
X143011905Y-93834819D02*
X142964286Y-94311009D01*
X142964286Y-94311009D02*
X143011905Y-94263390D01*
X143011905Y-94263390D02*
X143107143Y-94215771D01*
X143107143Y-94215771D02*
X143345238Y-94215771D01*
X143345238Y-94215771D02*
X143440476Y-94263390D01*
X143440476Y-94263390D02*
X143488095Y-94311009D01*
X143488095Y-94311009D02*
X143535714Y-94406247D01*
X143535714Y-94406247D02*
X143535714Y-94644342D01*
X143535714Y-94644342D02*
X143488095Y-94739580D01*
X143488095Y-94739580D02*
X143440476Y-94787200D01*
X143440476Y-94787200D02*
X143345238Y-94834819D01*
X143345238Y-94834819D02*
X143107143Y-94834819D01*
X143107143Y-94834819D02*
X143011905Y-94787200D01*
X143011905Y-94787200D02*
X142964286Y-94739580D01*
X137408095Y-95154819D02*
X137408095Y-94154819D01*
X137979523Y-95154819D02*
X137550952Y-94583390D01*
X137979523Y-94154819D02*
X137408095Y-94726247D01*
X132191666Y-46634819D02*
X132191666Y-47349104D01*
X132191666Y-47349104D02*
X132144047Y-47491961D01*
X132144047Y-47491961D02*
X132048809Y-47587200D01*
X132048809Y-47587200D02*
X131905952Y-47634819D01*
X131905952Y-47634819D02*
X131810714Y-47634819D01*
X133191666Y-47634819D02*
X132620238Y-47634819D01*
X132905952Y-47634819D02*
X132905952Y-46634819D01*
X132905952Y-46634819D02*
X132810714Y-46777676D01*
X132810714Y-46777676D02*
X132715476Y-46872914D01*
X132715476Y-46872914D02*
X132620238Y-46920533D01*
X157011905Y-60334819D02*
X157011905Y-59334819D01*
X157011905Y-59334819D02*
X157250000Y-59334819D01*
X157250000Y-59334819D02*
X157392857Y-59382438D01*
X157392857Y-59382438D02*
X157488095Y-59477676D01*
X157488095Y-59477676D02*
X157535714Y-59572914D01*
X157535714Y-59572914D02*
X157583333Y-59763390D01*
X157583333Y-59763390D02*
X157583333Y-59906247D01*
X157583333Y-59906247D02*
X157535714Y-60096723D01*
X157535714Y-60096723D02*
X157488095Y-60191961D01*
X157488095Y-60191961D02*
X157392857Y-60287200D01*
X157392857Y-60287200D02*
X157250000Y-60334819D01*
X157250000Y-60334819D02*
X157011905Y-60334819D01*
X157916667Y-59334819D02*
X158583333Y-59334819D01*
X158583333Y-59334819D02*
X158154762Y-60334819D01*
X152408095Y-60654819D02*
X152408095Y-59654819D01*
X152979523Y-60654819D02*
X152550952Y-60083390D01*
X152979523Y-59654819D02*
X152408095Y-60226247D01*
D12*
%TO.C,SW2*%
X120675000Y-80245000D02*
X134645000Y-80245000D01*
X120675000Y-94215000D02*
X120675000Y-80245000D01*
X134645000Y-80245000D02*
X134645000Y-94215000D01*
X134645000Y-94215000D02*
X120675000Y-94215000D01*
%TO.C,D2*%
X124480000Y-96250000D02*
X125130000Y-96250000D01*
X125130000Y-95130000D02*
X125130000Y-97370000D01*
X125130000Y-97370000D02*
X129370000Y-97370000D01*
X128530000Y-97370000D02*
X128530000Y-95130000D01*
X128650000Y-97370000D02*
X128650000Y-95130000D01*
X128770000Y-97370000D02*
X128770000Y-95130000D01*
X129370000Y-95130000D02*
X125130000Y-95130000D01*
X129370000Y-97370000D02*
X129370000Y-95130000D01*
X130020000Y-96250000D02*
X129370000Y-96250000D01*
%TO.C,SW4*%
X135765000Y-65155000D02*
X149735000Y-65155000D01*
X135765000Y-79125000D02*
X135765000Y-65155000D01*
X149735000Y-65155000D02*
X149735000Y-79125000D01*
X149735000Y-79125000D02*
X135765000Y-79125000D01*
%TO.C,SW5*%
X135765000Y-80245000D02*
X149735000Y-80245000D01*
X135765000Y-94215000D02*
X135765000Y-80245000D01*
X149735000Y-80245000D02*
X149735000Y-94215000D01*
X149735000Y-94215000D02*
X135765000Y-94215000D01*
%TO.C,D1*%
X124730000Y-62000000D02*
X125380000Y-62000000D01*
X125380000Y-60880000D02*
X125380000Y-63120000D01*
X125380000Y-63120000D02*
X129620000Y-63120000D01*
X125980000Y-60880000D02*
X125980000Y-63120000D01*
X126100000Y-60880000D02*
X126100000Y-63120000D01*
X126220000Y-60880000D02*
X126220000Y-63120000D01*
X129620000Y-60880000D02*
X125380000Y-60880000D01*
X129620000Y-63120000D02*
X129620000Y-60880000D01*
X130270000Y-62000000D02*
X129620000Y-62000000D01*
%TO.C,SW7*%
X150855000Y-65155000D02*
X164825000Y-65155000D01*
X150855000Y-79125000D02*
X150855000Y-65155000D01*
X164825000Y-65155000D02*
X164825000Y-79125000D01*
X164825000Y-79125000D02*
X150855000Y-79125000D01*
%TO.C,SW1*%
X120675000Y-65155000D02*
X134645000Y-65155000D01*
X120675000Y-79125000D02*
X120675000Y-65155000D01*
X134645000Y-65155000D02*
X134645000Y-79125000D01*
X134645000Y-79125000D02*
X120675000Y-79125000D01*
%TO.C,D4*%
X138960000Y-62000000D02*
X140880000Y-62000000D01*
X140880000Y-60880000D02*
X140880000Y-63120000D01*
X140880000Y-63120000D02*
X145120000Y-63120000D01*
X141480000Y-60880000D02*
X141480000Y-63120000D01*
X141600000Y-60880000D02*
X141600000Y-63120000D01*
X141720000Y-60880000D02*
X141720000Y-63120000D01*
X145120000Y-60880000D02*
X140880000Y-60880000D01*
X145120000Y-63120000D02*
X145120000Y-60880000D01*
X147040000Y-62000000D02*
X145120000Y-62000000D01*
%TO.C,SW8*%
X150855000Y-80245000D02*
X164825000Y-80245000D01*
X150855000Y-94215000D02*
X150855000Y-80245000D01*
X164825000Y-80245000D02*
X164825000Y-94215000D01*
X164825000Y-94215000D02*
X150855000Y-94215000D01*
D13*
%TO.C,U1*%
X96199000Y-89241272D02*
X96199000Y-81246000D01*
X96699000Y-80746000D02*
X97709000Y-80746000D01*
D14*
X97709000Y-78265000D02*
X97709000Y-92235000D01*
D13*
X97709000Y-78265000D02*
X97709000Y-92235000D01*
X97709000Y-89745000D02*
X96698728Y-89741272D01*
X116759000Y-76360000D02*
X99614000Y-76360000D01*
X116759000Y-94140000D02*
X99614000Y-94140000D01*
X118664000Y-92235000D02*
X118664000Y-78265000D01*
X96199000Y-81246000D02*
G75*
G02*
X96699000Y-80746000I500000J0D01*
G01*
X96698728Y-89741272D02*
G75*
G02*
X96199028Y-89241272I272J499972D01*
G01*
X97709000Y-78265000D02*
G75*
G02*
X99614000Y-76360000I1905000J0D01*
G01*
X99614000Y-94140000D02*
G75*
G02*
X97709000Y-92235000I0J1905000D01*
G01*
X116759000Y-76360000D02*
G75*
G02*
X118664000Y-78265000I-1J-1905001D01*
G01*
X118664000Y-92235000D02*
G75*
G02*
X116759000Y-94140000I-1905001J1D01*
G01*
D15*
X98102000Y-94104000D02*
G75*
G02*
X97598000Y-94104000I-252000J0D01*
G01*
X97598000Y-94104000D02*
G75*
G02*
X98102000Y-94104000I252000J0D01*
G01*
X98982000Y-92961000D02*
G75*
G02*
X98478000Y-92961000I-252000J0D01*
G01*
X98478000Y-92961000D02*
G75*
G02*
X98982000Y-92961000I252000J0D01*
G01*
D12*
%TO.C,D8*%
X153710000Y-96750000D02*
X155630000Y-96750000D01*
X155630000Y-95630000D02*
X155630000Y-97870000D01*
X155630000Y-97870000D02*
X159870000Y-97870000D01*
X156230000Y-95630000D02*
X156230000Y-97870000D01*
X156350000Y-95630000D02*
X156350000Y-97870000D01*
X156470000Y-95630000D02*
X156470000Y-97870000D01*
X159870000Y-95630000D02*
X155630000Y-95630000D01*
X159870000Y-97870000D02*
X159870000Y-95630000D01*
X161790000Y-96750000D02*
X159870000Y-96750000D01*
%TO.C,SW10*%
X101200000Y-61400000D02*
X101800000Y-61400000D01*
X101500000Y-61700000D02*
X101200000Y-61400000D01*
X101800000Y-61400000D02*
X101500000Y-61700000D01*
X102900000Y-59600000D02*
X102900000Y-71400000D01*
X107000000Y-59600000D02*
X102900000Y-59600000D01*
X107000000Y-71400000D02*
X102900000Y-71400000D01*
X108500000Y-65500000D02*
X109500000Y-65500000D01*
X109000000Y-65000000D02*
X109000000Y-66000000D01*
X111000000Y-59600000D02*
X115100000Y-59600000D01*
X115100000Y-59600000D02*
X115100000Y-62000000D01*
X115100000Y-64200000D02*
X115100000Y-66800000D01*
X115100000Y-69000000D02*
X115100000Y-71400000D01*
X115100000Y-71400000D02*
X111000000Y-71400000D01*
X112000000Y-65500000D02*
G75*
G02*
X106000000Y-65500000I-3000000J0D01*
G01*
X106000000Y-65500000D02*
G75*
G02*
X112000000Y-65500000I3000000J0D01*
G01*
%TO.C,D5*%
X138710000Y-96500000D02*
X140630000Y-96500000D01*
X140630000Y-95380000D02*
X140630000Y-97620000D01*
X140630000Y-97620000D02*
X144870000Y-97620000D01*
X141230000Y-95380000D02*
X141230000Y-97620000D01*
X141350000Y-95380000D02*
X141350000Y-97620000D01*
X141470000Y-95380000D02*
X141470000Y-97620000D01*
X144870000Y-95380000D02*
X140630000Y-95380000D01*
X144870000Y-97620000D02*
X144870000Y-95380000D01*
X146790000Y-96500000D02*
X144870000Y-96500000D01*
%TO.C,J1*%
X131195000Y-51220000D02*
X131195000Y-58900000D01*
X131195000Y-51220000D02*
X133855000Y-51220000D01*
X131195000Y-58900000D02*
X133855000Y-58900000D01*
X132525000Y-48620000D02*
X133855000Y-48620000D01*
X133855000Y-48620000D02*
X133855000Y-49950000D01*
X133855000Y-51220000D02*
X133855000Y-58900000D01*
%TO.C,D7*%
X153710000Y-62000000D02*
X155630000Y-62000000D01*
X155630000Y-60880000D02*
X155630000Y-63120000D01*
X155630000Y-63120000D02*
X159870000Y-63120000D01*
X156230000Y-60880000D02*
X156230000Y-63120000D01*
X156350000Y-60880000D02*
X156350000Y-63120000D01*
X156470000Y-60880000D02*
X156470000Y-63120000D01*
X159870000Y-60880000D02*
X155630000Y-60880000D01*
X159870000Y-63120000D02*
X159870000Y-60880000D01*
X161790000Y-62000000D02*
X159870000Y-62000000D01*
%TD*%
M02*
